G04*
G04 #@! TF.GenerationSoftware,Altium Limited,Altium Designer,26.1.1 (7)*
G04*
G04 Layer_Color=255*
%FSLAX44Y44*%
%MOMM*%
G71*
G04*
G04 #@! TF.SameCoordinates,36130511-03F3-4BEF-8F91-A88FF725B84A*
G04*
G04*
G04 #@! TF.FilePolarity,Positive*
G04*
G01*
G75*
%ADD14R,1.0000X1.0500*%
%ADD15O,0.8000X1.5000*%
%ADD16R,0.9000X0.8000*%
%ADD17R,1.0500X1.0000*%
%ADD18R,1.1500X0.3000*%
%ADD19R,1.1500X0.6000*%
%ADD20R,2.0000X2.1800*%
%ADD21R,1.4000X1.2000*%
%ADD22R,1.5000X1.6000*%
%ADD29C,0.6500*%
G04:AMPARAMS|DCode=35|XSize=1.65mm|YSize=1.65mm|CornerRadius=0.4125mm|HoleSize=0mm|Usage=FLASHONLY|Rotation=90.000|XOffset=0mm|YOffset=0mm|HoleType=Round|Shape=RoundedRectangle|*
%AMROUNDEDRECTD35*
21,1,1.6500,0.8250,0,0,90.0*
21,1,0.8250,1.6500,0,0,90.0*
1,1,0.8250,0.4125,0.4125*
1,1,0.8250,0.4125,-0.4125*
1,1,0.8250,-0.4125,-0.4125*
1,1,0.8250,-0.4125,0.4125*
%
%ADD35ROUNDEDRECTD35*%
%ADD36C,1.6500*%
D14*
X1235710Y1140840D02*
D03*
Y1124840D02*
D03*
X1127120Y1162940D02*
D03*
Y1178940D02*
D03*
X1108710D02*
D03*
Y1162940D02*
D03*
D15*
X1198880Y1181430D02*
D03*
X1186180D02*
D03*
X1173480D02*
D03*
X1160780D02*
D03*
X1198880Y1127430D02*
D03*
X1186180D02*
D03*
X1173480D02*
D03*
X1160780D02*
D03*
D16*
X1127760Y1107490D02*
D03*
Y1126490D02*
D03*
X1107760Y1116990D02*
D03*
D17*
X1126870Y1087120D02*
D03*
X1110870D02*
D03*
D18*
X1075660Y1132500D02*
D03*
Y1137500D02*
D03*
Y1142500D02*
D03*
Y1147500D02*
D03*
Y1152500D02*
D03*
Y1157500D02*
D03*
Y1162500D02*
D03*
Y1167500D02*
D03*
D19*
Y1126000D02*
D03*
Y1174000D02*
D03*
Y1118000D02*
D03*
Y1182000D02*
D03*
D20*
X1069910Y1098900D02*
D03*
Y1201100D02*
D03*
X1030610Y1098900D02*
D03*
Y1201100D02*
D03*
D21*
X1135380Y1256980D02*
D03*
Y1236980D02*
D03*
X1193800Y1256980D02*
D03*
Y1236980D02*
D03*
D22*
X1168390Y1247140D02*
D03*
X1226810D02*
D03*
D29*
X1064910Y1121100D02*
D03*
Y1178900D02*
D03*
D35*
X1258570Y1175400D02*
D03*
D36*
Y1150000D02*
D03*
Y1124600D02*
D03*
M02*
