G04*
G04 #@! TF.GenerationSoftware,Altium Limited,Altium Designer,26.1.1 (7)*
G04*
G04 Layer_Color=32768*
%FSLAX44Y44*%
%MOMM*%
G71*
G04*
G04 #@! TF.SameCoordinates,36130511-03F3-4BEF-8F91-A88FF725B84A*
G04*
G04*
G04 #@! TF.FilePolarity,Positive*
G04*
G01*
G75*
%ADD39C,0.1000*%
%ADD40C,0.0500*%
D39*
X1145500Y1102500D02*
X1154500D01*
X1150000Y1098000D02*
Y1107000D01*
X1231210Y1132840D02*
X1240210D01*
X1235710Y1128340D02*
Y1137340D01*
X1122620Y1170940D02*
X1131620D01*
X1127120Y1166440D02*
Y1175440D01*
X1112760Y1116990D02*
X1122760D01*
X1117760Y1111990D02*
Y1121990D01*
X1114370Y1087120D02*
X1123370D01*
X1118870Y1082620D02*
Y1091620D01*
X1108710Y1166440D02*
Y1175440D01*
X1104210Y1170940D02*
X1113210D01*
D40*
X1137500Y1095000D02*
Y1110000D01*
X1162500Y1095000D02*
Y1110000D01*
X1137500Y1095000D02*
X1162500D01*
X1137500Y1110000D02*
X1162500D01*
X1243210Y1119840D02*
Y1145840D01*
X1228210Y1119840D02*
Y1145840D01*
X1243210D01*
X1228210Y1119840D02*
X1243210D01*
X1119620Y1157940D02*
Y1183940D01*
X1134620Y1157940D02*
Y1183940D01*
X1119620Y1157940D02*
X1134620D01*
X1119620Y1183940D02*
X1134620D01*
X1133260Y1101390D02*
Y1132590D01*
X1102260Y1101390D02*
Y1132590D01*
Y1101390D02*
X1133260D01*
X1102260Y1132590D02*
X1133260D01*
X1131370Y1079620D02*
Y1094620D01*
X1106370Y1079620D02*
Y1094620D01*
Y1079620D02*
X1131370D01*
X1106370Y1094620D02*
X1131370D01*
X1101210Y1183440D02*
X1116210D01*
X1101210Y1158440D02*
X1116210D01*
Y1183440D01*
X1101210Y1158440D02*
Y1183440D01*
M02*
