G04*
G04 #@! TF.GenerationSoftware,Altium Limited,Altium Designer,26.1.1 (7)*
G04*
G04 Layer_Physical_Order=1*
G04 Layer_Color=255*
%FSLAX44Y44*%
%MOMM*%
G71*
G04*
G04 #@! TF.SameCoordinates,36130511-03F3-4BEF-8F91-A88FF725B84A*
G04*
G04*
G04 #@! TF.FilePolarity,Positive*
G04*
G01*
G75*
%ADD13C,0.2540*%
%ADD14R,1.0000X1.0500*%
%ADD15O,0.8000X1.5000*%
%ADD16R,0.9000X0.8000*%
%ADD17R,1.0500X1.0000*%
%ADD18R,1.1500X0.3000*%
%ADD19R,1.1500X0.6000*%
%ADD20R,2.0000X2.1800*%
%ADD21R,1.4000X1.2000*%
%ADD22R,1.5000X1.6000*%
%ADD29C,0.6500*%
%ADD31C,0.3810*%
%ADD32C,0.2900*%
%ADD33C,0.5080*%
%ADD34C,0.2800*%
G04:AMPARAMS|DCode=35|XSize=1.65mm|YSize=1.65mm|CornerRadius=0.4125mm|HoleSize=0mm|Usage=FLASHONLY|Rotation=90.000|XOffset=0mm|YOffset=0mm|HoleType=Round|Shape=RoundedRectangle|*
%AMROUNDEDRECTD35*
21,1,1.6500,0.8250,0,0,90.0*
21,1,0.8250,1.6500,0,0,90.0*
1,1,0.8250,0.4125,0.4125*
1,1,0.8250,0.4125,-0.4125*
1,1,0.8250,-0.4125,-0.4125*
1,1,0.8250,-0.4125,0.4125*
%
%ADD35ROUNDEDRECTD35*%
%ADD36C,1.6500*%
%ADD37C,0.5000*%
G36*
X1256842Y1299210D02*
X1253228Y1297369D01*
X1249153Y1294408D01*
X1245592Y1290847D01*
X1242631Y1286772D01*
X1240344Y1282284D01*
X1238788Y1277493D01*
X1238000Y1272518D01*
Y1267482D01*
X1238788Y1262507D01*
X1240344Y1257716D01*
X1242631Y1253228D01*
X1245592Y1249153D01*
X1249153Y1245592D01*
X1253228Y1242631D01*
X1257716Y1240344D01*
X1262507Y1238788D01*
X1267482Y1238000D01*
X1272518D01*
X1277493Y1238788D01*
X1282284Y1240344D01*
X1286772Y1242631D01*
X1290847Y1245592D01*
X1294408Y1249153D01*
X1297369Y1253228D01*
X1299210Y1256842D01*
X1300480Y1256537D01*
Y1043463D01*
X1299210Y1043158D01*
X1297369Y1046772D01*
X1294408Y1050847D01*
X1290847Y1054408D01*
X1286772Y1057369D01*
X1282284Y1059656D01*
X1277493Y1061212D01*
X1272518Y1062000D01*
X1267482D01*
X1262507Y1061212D01*
X1257716Y1059656D01*
X1253228Y1057369D01*
X1249153Y1054408D01*
X1245592Y1050847D01*
X1242631Y1046772D01*
X1240344Y1042284D01*
X1238788Y1037493D01*
X1238000Y1032518D01*
Y1027482D01*
X1238788Y1022507D01*
X1240344Y1017716D01*
X1242631Y1013228D01*
X1245592Y1009153D01*
X1249153Y1005592D01*
X1253228Y1002631D01*
X1256901Y1000760D01*
X1256596Y999490D01*
X1043404D01*
X1043099Y1000760D01*
X1046772Y1002631D01*
X1050847Y1005592D01*
X1054408Y1009153D01*
X1057369Y1013228D01*
X1059656Y1017716D01*
X1061212Y1022507D01*
X1062000Y1027482D01*
Y1032518D01*
X1061212Y1037493D01*
X1059656Y1042284D01*
X1057369Y1046772D01*
X1054408Y1050847D01*
X1050847Y1054408D01*
X1046772Y1057369D01*
X1042284Y1059656D01*
X1037493Y1061212D01*
X1032518Y1062000D01*
X1027482D01*
X1022507Y1061212D01*
X1017716Y1059656D01*
X1013228Y1057369D01*
X1009153Y1054408D01*
X1005592Y1050847D01*
X1002631Y1046772D01*
X1000760Y1043099D01*
X999490Y1043404D01*
Y1085745D01*
X1082040D01*
X1083012Y1086148D01*
X1083415Y1087120D01*
Y1121410D01*
X1083012Y1122382D01*
X1082040Y1122785D01*
X1069430D01*
X1069152Y1122670D01*
X1068742Y1123660D01*
X1067470Y1124932D01*
X1065809Y1125620D01*
X1064011D01*
X1062350Y1124932D01*
X1061825Y1124407D01*
X1060555Y1124933D01*
Y1175067D01*
X1061825Y1175593D01*
X1062350Y1175068D01*
X1064011Y1174380D01*
X1065809D01*
X1067470Y1175068D01*
X1068742Y1176340D01*
X1069142Y1177305D01*
X1069430Y1177185D01*
X1082040D01*
X1083012Y1177588D01*
X1083415Y1178560D01*
Y1214120D01*
X1083012Y1215092D01*
X1082040Y1215495D01*
X999490D01*
Y1256596D01*
X1000760Y1256901D01*
X1002631Y1253228D01*
X1005592Y1249153D01*
X1009153Y1245592D01*
X1013228Y1242631D01*
X1017716Y1240344D01*
X1022507Y1238788D01*
X1027482Y1238000D01*
X1032518D01*
X1037493Y1238788D01*
X1042284Y1240344D01*
X1046772Y1242631D01*
X1050847Y1245592D01*
X1054408Y1249153D01*
X1057369Y1253228D01*
X1059656Y1257716D01*
X1061212Y1262507D01*
X1062000Y1267482D01*
Y1272518D01*
X1061212Y1277493D01*
X1059656Y1282284D01*
X1057369Y1286772D01*
X1054408Y1290847D01*
X1050847Y1294408D01*
X1046772Y1297369D01*
X1043158Y1299210D01*
X1043463Y1300480D01*
X1256537D01*
X1256842Y1299210D01*
D02*
G37*
G36*
X1082040Y1178560D02*
X1069430D01*
Y1179799D01*
X1068742Y1181460D01*
X1067470Y1182732D01*
X1065809Y1183420D01*
X1064011D01*
X1062350Y1182732D01*
X1061078Y1181460D01*
X1060390Y1179799D01*
Y1178560D01*
X1059180D01*
Y1121410D01*
X1060390D01*
Y1120201D01*
X1061078Y1118540D01*
X1062350Y1117268D01*
X1064011Y1116580D01*
X1065809D01*
X1067470Y1117268D01*
X1068742Y1118540D01*
X1069430Y1120201D01*
Y1121410D01*
X1082040D01*
Y1087120D01*
X999490D01*
Y1214120D01*
X1082040D01*
Y1178560D01*
D02*
G37*
%LPC*%
G36*
X1203340Y1265520D02*
X1195705D01*
Y1258885D01*
X1203340D01*
Y1265520D01*
D02*
G37*
G36*
X1191895D02*
X1184260D01*
Y1258885D01*
X1191895D01*
Y1265520D01*
D02*
G37*
G36*
X1144920D02*
X1137285D01*
Y1258885D01*
X1144920D01*
Y1265520D01*
D02*
G37*
G36*
X1133475D02*
X1125840D01*
Y1258885D01*
X1133475D01*
Y1265520D01*
D02*
G37*
G36*
X1203340Y1255075D02*
X1195705D01*
Y1248440D01*
X1203340D01*
Y1255075D01*
D02*
G37*
G36*
X1191895D02*
X1184260D01*
Y1248440D01*
X1191895D01*
Y1255075D01*
D02*
G37*
G36*
X1144920D02*
X1137285D01*
Y1248440D01*
X1144920D01*
Y1255075D01*
D02*
G37*
G36*
X1133475D02*
X1125840D01*
Y1248440D01*
X1133475D01*
Y1255075D01*
D02*
G37*
G36*
X1202070Y1244250D02*
X1185530D01*
Y1229710D01*
X1202070D01*
Y1232903D01*
X1202137Y1233026D01*
X1202158Y1233227D01*
X1202161Y1233236D01*
X1202166Y1233244D01*
X1202214Y1233288D01*
X1202345Y1233368D01*
X1202582Y1233465D01*
X1202929Y1233559D01*
X1203382Y1233634D01*
X1203443Y1233640D01*
X1204480Y1233210D01*
X1205980D01*
X1207365Y1233784D01*
X1208426Y1234845D01*
X1209000Y1236230D01*
Y1237730D01*
X1208426Y1239116D01*
X1207365Y1240176D01*
X1205980Y1240750D01*
X1204480D01*
X1203443Y1240321D01*
X1203382Y1240326D01*
X1202929Y1240401D01*
X1202582Y1240495D01*
X1202345Y1240592D01*
X1202214Y1240672D01*
X1202166Y1240716D01*
X1202161Y1240724D01*
X1202158Y1240733D01*
X1202137Y1240934D01*
X1202070Y1241057D01*
Y1244250D01*
D02*
G37*
G36*
X1143650D02*
X1127110D01*
Y1229710D01*
X1143650D01*
Y1232903D01*
X1143717Y1233026D01*
X1143738Y1233227D01*
X1143741Y1233236D01*
X1143746Y1233244D01*
X1143793Y1233288D01*
X1143925Y1233368D01*
X1144162Y1233465D01*
X1144509Y1233559D01*
X1144961Y1233634D01*
X1145023Y1233640D01*
X1146060Y1233210D01*
X1147560D01*
X1148945Y1233784D01*
X1150006Y1234845D01*
X1150580Y1236230D01*
Y1237730D01*
X1150006Y1239116D01*
X1148945Y1240176D01*
X1147560Y1240750D01*
X1146060D01*
X1145023Y1240321D01*
X1144961Y1240326D01*
X1144509Y1240401D01*
X1144162Y1240495D01*
X1143925Y1240592D01*
X1143793Y1240672D01*
X1143746Y1240716D01*
X1143741Y1240724D01*
X1143738Y1240733D01*
X1143717Y1240934D01*
X1143650Y1241057D01*
Y1244250D01*
D02*
G37*
G36*
X1177160Y1256410D02*
X1159620D01*
Y1237870D01*
X1170243D01*
Y1189105D01*
X1169680Y1188729D01*
X1168516Y1186986D01*
X1168438Y1186596D01*
X1167152Y1186637D01*
X1166493Y1188228D01*
X1165444Y1189594D01*
X1164078Y1190643D01*
X1162685Y1191220D01*
Y1181430D01*
Y1171640D01*
X1164078Y1172217D01*
X1165444Y1173266D01*
X1166493Y1174632D01*
X1167152Y1176223D01*
X1168438Y1176264D01*
X1168516Y1175874D01*
X1169680Y1174130D01*
X1171424Y1172966D01*
X1173480Y1172557D01*
X1175536Y1172966D01*
X1177280Y1174130D01*
X1178444Y1175874D01*
X1178853Y1177930D01*
Y1184930D01*
X1178444Y1186986D01*
X1177280Y1188729D01*
X1176717Y1189105D01*
Y1237870D01*
X1177160D01*
Y1256410D01*
D02*
G37*
G36*
X1158875Y1191220D02*
X1157482Y1190643D01*
X1156116Y1189594D01*
X1155067Y1188228D01*
X1154408Y1186637D01*
X1154184Y1184930D01*
Y1183335D01*
X1158875D01*
Y1191220D01*
D02*
G37*
G36*
X1133390Y1185460D02*
X1120850D01*
Y1183017D01*
X1120783Y1182894D01*
X1120762Y1182693D01*
X1120759Y1182684D01*
X1120753Y1182676D01*
X1120706Y1182632D01*
X1120575Y1182552D01*
X1120338Y1182455D01*
X1119991Y1182361D01*
X1119538Y1182286D01*
X1118985Y1182237D01*
X1118304Y1182219D01*
X1118210Y1182177D01*
X1117620D01*
X1117526Y1182219D01*
X1116844Y1182237D01*
X1116292Y1182286D01*
X1115839Y1182361D01*
X1115492Y1182455D01*
X1115255Y1182552D01*
X1115124Y1182632D01*
X1115076Y1182676D01*
X1115071Y1182684D01*
X1115068Y1182693D01*
X1115047Y1182894D01*
X1114980Y1183017D01*
Y1185460D01*
X1102440D01*
Y1172420D01*
X1114980D01*
Y1174863D01*
X1115047Y1174986D01*
X1115068Y1175187D01*
X1115071Y1175196D01*
X1115076Y1175204D01*
X1115124Y1175248D01*
X1115255Y1175328D01*
X1115492Y1175425D01*
X1115839Y1175519D01*
X1116292Y1175594D01*
X1116844Y1175643D01*
X1117526Y1175661D01*
X1117620Y1175703D01*
X1118210D01*
X1118304Y1175661D01*
X1118985Y1175643D01*
X1119538Y1175594D01*
X1119991Y1175519D01*
X1120338Y1175425D01*
X1120575Y1175328D01*
X1120706Y1175248D01*
X1120753Y1175204D01*
X1120759Y1175196D01*
X1120762Y1175187D01*
X1120783Y1174986D01*
X1120850Y1174863D01*
Y1172420D01*
X1133390D01*
Y1173722D01*
X1133455Y1173837D01*
X1133479Y1174042D01*
X1133481Y1174047D01*
X1133500Y1174072D01*
X1133590Y1174147D01*
X1133794Y1174257D01*
X1134126Y1174378D01*
X1134585Y1174487D01*
X1135163Y1174572D01*
X1135853Y1174626D01*
X1136682Y1174646D01*
X1136830Y1174711D01*
X1137226Y1174790D01*
X1137400D01*
X1137560Y1174856D01*
X1138137Y1174971D01*
X1138625Y1175297D01*
X1138785Y1175364D01*
X1138908Y1175487D01*
X1139397Y1175813D01*
X1139723Y1176302D01*
X1139846Y1176424D01*
X1139912Y1176585D01*
X1140239Y1177073D01*
X1140354Y1177650D01*
X1140420Y1177810D01*
Y1177984D01*
X1140535Y1178560D01*
X1140420Y1179136D01*
Y1179310D01*
X1140354Y1179470D01*
X1140239Y1180047D01*
X1139912Y1180535D01*
X1139846Y1180695D01*
X1139723Y1180818D01*
X1139397Y1181307D01*
X1138908Y1181633D01*
X1138785Y1181756D01*
X1138625Y1181823D01*
X1138137Y1182149D01*
X1137560Y1182264D01*
X1137400Y1182330D01*
X1137226D01*
X1136830Y1182409D01*
X1136682Y1182474D01*
X1135853Y1182494D01*
X1135163Y1182548D01*
X1134585Y1182633D01*
X1134126Y1182742D01*
X1133794Y1182863D01*
X1133590Y1182973D01*
X1133500Y1183047D01*
X1133481Y1183073D01*
X1133479Y1183078D01*
X1133455Y1183283D01*
X1133390Y1183398D01*
Y1185460D01*
D02*
G37*
G36*
X1235580Y1256410D02*
X1218040D01*
Y1237870D01*
X1222733D01*
X1222856Y1237803D01*
X1223057Y1237782D01*
X1223066Y1237779D01*
X1223074Y1237774D01*
X1223118Y1237727D01*
X1223198Y1237595D01*
X1223295Y1237358D01*
X1223389Y1237011D01*
X1223464Y1236559D01*
X1223513Y1236005D01*
X1223531Y1235324D01*
X1223573Y1235230D01*
Y1226881D01*
X1196591Y1199899D01*
X1195889Y1198849D01*
X1195643Y1197610D01*
Y1192372D01*
X1195602Y1192283D01*
X1195547Y1191058D01*
X1195488Y1190558D01*
X1195403Y1190081D01*
X1195297Y1189645D01*
X1195172Y1189247D01*
X1195028Y1188888D01*
X1194867Y1188565D01*
X1194691Y1188276D01*
X1194461Y1187967D01*
X1194394Y1187702D01*
X1193916Y1186986D01*
X1193507Y1184930D01*
Y1177930D01*
X1193916Y1175874D01*
X1195080Y1174130D01*
X1196824Y1172966D01*
X1198880Y1172557D01*
X1200936Y1172966D01*
X1202680Y1174130D01*
X1203844Y1175874D01*
X1204253Y1177930D01*
Y1184930D01*
X1203844Y1186986D01*
X1203366Y1187702D01*
X1203299Y1187967D01*
X1203069Y1188277D01*
X1202893Y1188565D01*
X1202732Y1188887D01*
X1202588Y1189247D01*
X1202463Y1189645D01*
X1202357Y1190081D01*
X1202275Y1190540D01*
X1202172Y1191647D01*
X1202159Y1192252D01*
X1202117Y1192348D01*
Y1196269D01*
X1229099Y1223251D01*
X1229801Y1224301D01*
X1230047Y1225540D01*
Y1235230D01*
X1230089Y1235324D01*
X1230107Y1236005D01*
X1230156Y1236559D01*
X1230231Y1237011D01*
X1230325Y1237358D01*
X1230422Y1237595D01*
X1230502Y1237727D01*
X1230546Y1237774D01*
X1230554Y1237779D01*
X1230563Y1237782D01*
X1230764Y1237803D01*
X1230887Y1237870D01*
X1235580D01*
Y1256410D01*
D02*
G37*
G36*
X1158875Y1179525D02*
X1154184D01*
Y1177930D01*
X1154408Y1176223D01*
X1155067Y1174632D01*
X1156116Y1173266D01*
X1157482Y1172217D01*
X1158875Y1171640D01*
Y1179525D01*
D02*
G37*
G36*
X1186180Y1190303D02*
X1184124Y1189894D01*
X1182381Y1188729D01*
X1181216Y1186986D01*
X1180807Y1184930D01*
Y1177930D01*
X1181216Y1175874D01*
X1181666Y1175200D01*
X1181707Y1174970D01*
X1181792Y1174839D01*
X1181848Y1174707D01*
X1181927Y1174443D01*
X1182008Y1174064D01*
X1182078Y1173614D01*
X1182258Y1170704D01*
X1182265Y1169788D01*
X1182295Y1169717D01*
Y1169670D01*
X1182410Y1169094D01*
Y1168920D01*
X1182476Y1168760D01*
X1182591Y1168183D01*
X1182917Y1167695D01*
X1182984Y1167534D01*
X1183107Y1167412D01*
X1183433Y1166923D01*
X1183922Y1166597D01*
X1184044Y1166474D01*
X1184205Y1166407D01*
X1184693Y1166081D01*
X1185270Y1165966D01*
X1185430Y1165900D01*
X1185604D01*
X1186180Y1165785D01*
X1186756Y1165900D01*
X1186930D01*
X1187090Y1165966D01*
X1187667Y1166081D01*
X1188155Y1166407D01*
X1188316Y1166474D01*
X1188438Y1166597D01*
X1188927Y1166923D01*
X1189253Y1167412D01*
X1189376Y1167534D01*
X1189443Y1167695D01*
X1189769Y1168183D01*
X1189884Y1168760D01*
X1189950Y1168920D01*
Y1169094D01*
X1190065Y1169670D01*
Y1169717D01*
X1190095Y1169788D01*
X1190102Y1170722D01*
X1190162Y1172329D01*
X1190279Y1173593D01*
X1190352Y1174064D01*
X1190433Y1174443D01*
X1190512Y1174707D01*
X1190568Y1174839D01*
X1190653Y1174970D01*
X1190694Y1175200D01*
X1191144Y1175874D01*
X1191553Y1177930D01*
Y1184930D01*
X1191144Y1186986D01*
X1189979Y1188729D01*
X1188236Y1189894D01*
X1186180Y1190303D01*
D02*
G37*
G36*
X1134660Y1170730D02*
X1129025D01*
Y1164845D01*
X1134660D01*
Y1170730D01*
D02*
G37*
G36*
X1125215D02*
X1119580D01*
Y1164845D01*
X1125215D01*
Y1170730D01*
D02*
G37*
G36*
X1082680Y1170270D02*
X1068640D01*
Y1159730D01*
Y1149730D01*
Y1139730D01*
Y1129730D01*
X1075643D01*
X1075660Y1129727D01*
X1081208D01*
X1081379Y1129656D01*
X1081384Y1129658D01*
X1081389Y1129656D01*
X1084289Y1129675D01*
X1084410Y1129727D01*
X1087166D01*
X1087491Y1129509D01*
X1088730Y1129263D01*
X1100089D01*
X1104501Y1124851D01*
X1104481Y1124806D01*
X1104463Y1124125D01*
X1104414Y1123571D01*
X1104339Y1123119D01*
X1104245Y1122772D01*
X1104148Y1122535D01*
X1104068Y1122403D01*
X1104024Y1122356D01*
X1104016Y1122351D01*
X1104007Y1122348D01*
X1103806Y1122327D01*
X1103683Y1122260D01*
X1101990D01*
Y1111720D01*
X1103683D01*
X1103806Y1111653D01*
X1104007Y1111632D01*
X1104016Y1111629D01*
X1104024Y1111624D01*
X1104068Y1111577D01*
X1104148Y1111445D01*
X1104245Y1111208D01*
X1104339Y1110861D01*
X1104414Y1110408D01*
X1104463Y1109855D01*
X1104481Y1109174D01*
X1104523Y1109080D01*
Y1096012D01*
X1104480Y1095912D01*
X1104462Y1093993D01*
X1104436Y1093390D01*
X1104350D01*
Y1092277D01*
X1104276Y1092103D01*
X1104279Y1092096D01*
X1104276Y1092089D01*
X1104350Y1091910D01*
Y1080850D01*
X1117390D01*
Y1093390D01*
X1111837D01*
X1111714Y1093457D01*
X1111513Y1093478D01*
X1111504Y1093481D01*
X1111496Y1093486D01*
X1111452Y1093534D01*
X1111372Y1093665D01*
X1111275Y1093902D01*
X1111181Y1094249D01*
X1111106Y1094702D01*
X1111057Y1095255D01*
X1111039Y1095936D01*
X1110997Y1096030D01*
Y1109080D01*
X1111039Y1109174D01*
X1111057Y1109855D01*
X1111106Y1110408D01*
X1111181Y1110861D01*
X1111275Y1111208D01*
X1111372Y1111445D01*
X1111452Y1111577D01*
X1111496Y1111624D01*
X1111504Y1111629D01*
X1111513Y1111632D01*
X1111714Y1111653D01*
X1111837Y1111720D01*
X1113530D01*
Y1112913D01*
X1113597Y1113036D01*
X1113618Y1113237D01*
X1113621Y1113246D01*
X1113626Y1113254D01*
X1113673Y1113298D01*
X1113805Y1113378D01*
X1114042Y1113475D01*
X1114389Y1113569D01*
X1114842Y1113644D01*
X1115395Y1113693D01*
X1116076Y1113711D01*
X1116170Y1113753D01*
X1121321D01*
X1121990Y1112760D01*
X1121990Y1112483D01*
Y1111567D01*
X1121923Y1111444D01*
X1121902Y1111243D01*
X1121899Y1111234D01*
X1121894Y1111226D01*
X1121846Y1111182D01*
X1121715Y1111102D01*
X1121478Y1111005D01*
X1121131Y1110911D01*
X1120678Y1110836D01*
X1120550Y1110825D01*
X1119620Y1111210D01*
X1118120D01*
X1116734Y1110636D01*
X1115674Y1109576D01*
X1115100Y1108190D01*
Y1106690D01*
X1115674Y1105304D01*
X1116734Y1104244D01*
X1118120Y1103670D01*
X1119620D01*
X1120740Y1104134D01*
X1120842Y1104117D01*
X1121916Y1103521D01*
X1121990Y1103341D01*
Y1102220D01*
X1123012D01*
X1123127Y1102156D01*
X1123213Y1102145D01*
X1123214Y1102144D01*
X1123287Y1102007D01*
X1123377Y1101757D01*
X1123463Y1101395D01*
X1123531Y1100929D01*
X1123575Y1100366D01*
X1123591Y1099679D01*
X1123633Y1099583D01*
Y1096030D01*
X1123591Y1095936D01*
X1123573Y1095255D01*
X1123524Y1094702D01*
X1123449Y1094249D01*
X1123355Y1093902D01*
X1123258Y1093665D01*
X1123178Y1093533D01*
X1123134Y1093486D01*
X1123126Y1093481D01*
X1123117Y1093478D01*
X1122916Y1093457D01*
X1122793Y1093390D01*
X1120350D01*
Y1080850D01*
X1133390D01*
Y1093390D01*
X1130947D01*
X1130824Y1093457D01*
X1130623Y1093478D01*
X1130614Y1093481D01*
X1130606Y1093486D01*
X1130562Y1093534D01*
X1130482Y1093665D01*
X1130385Y1093902D01*
X1130291Y1094249D01*
X1130216Y1094702D01*
X1130167Y1095255D01*
X1130149Y1095936D01*
X1130107Y1096030D01*
Y1099580D01*
X1130149Y1099674D01*
X1130167Y1100356D01*
X1130216Y1100909D01*
X1130291Y1101361D01*
X1130385Y1101708D01*
X1130482Y1101945D01*
X1130562Y1102076D01*
X1130606Y1102124D01*
X1130614Y1102129D01*
X1130623Y1102132D01*
X1130824Y1102153D01*
X1130947Y1102220D01*
X1133530D01*
Y1112483D01*
X1133530Y1112760D01*
X1134199Y1113753D01*
X1153840D01*
X1155079Y1113999D01*
X1156129Y1114701D01*
X1157807Y1116379D01*
X1157898Y1116412D01*
X1158803Y1117241D01*
X1159199Y1117552D01*
X1159596Y1117829D01*
X1159979Y1118063D01*
X1160350Y1118255D01*
X1160705Y1118408D01*
X1161047Y1118522D01*
X1161376Y1118602D01*
X1161758Y1118658D01*
X1161992Y1118798D01*
X1162836Y1118966D01*
X1164579Y1120131D01*
X1165744Y1121874D01*
X1166153Y1123930D01*
Y1130930D01*
X1165744Y1132986D01*
X1164579Y1134730D01*
X1162836Y1135894D01*
X1160780Y1136303D01*
X1158724Y1135894D01*
X1156981Y1134730D01*
X1155816Y1132986D01*
X1155407Y1130930D01*
Y1125151D01*
X1155396Y1124921D01*
X1155339Y1124514D01*
X1155242Y1124107D01*
X1155104Y1123695D01*
X1154923Y1123278D01*
X1154697Y1122853D01*
X1154424Y1122422D01*
X1154101Y1121984D01*
X1153728Y1121541D01*
X1153278Y1121065D01*
X1153241Y1120969D01*
X1152499Y1120227D01*
X1134199D01*
X1133530Y1121220D01*
X1133530Y1121497D01*
Y1131760D01*
X1121990D01*
Y1121497D01*
X1121990Y1121220D01*
X1121321Y1120227D01*
X1116170D01*
X1116076Y1120269D01*
X1115395Y1120287D01*
X1114842Y1120336D01*
X1114389Y1120411D01*
X1114042Y1120505D01*
X1113805Y1120602D01*
X1113673Y1120682D01*
X1113626Y1120726D01*
X1113621Y1120734D01*
X1113618Y1120743D01*
X1113597Y1120944D01*
X1113530Y1121067D01*
Y1122260D01*
X1111837D01*
X1111714Y1122327D01*
X1111513Y1122348D01*
X1111504Y1122351D01*
X1111496Y1122356D01*
X1111452Y1122404D01*
X1111372Y1122535D01*
X1111275Y1122772D01*
X1111181Y1123119D01*
X1111106Y1123571D01*
X1111057Y1124125D01*
X1111039Y1124806D01*
X1110997Y1124900D01*
Y1126170D01*
X1110751Y1127409D01*
X1110049Y1128459D01*
X1103719Y1134789D01*
X1102669Y1135491D01*
X1101430Y1135737D01*
X1088730D01*
X1087491Y1135491D01*
X1087166Y1135273D01*
X1084408D01*
X1084286Y1135325D01*
X1082680Y1135332D01*
Y1139730D01*
Y1149730D01*
Y1159688D01*
X1084214Y1159726D01*
X1084331Y1159778D01*
X1086749D01*
X1087151Y1159509D01*
X1088390Y1159263D01*
X1099800D01*
X1099894Y1159221D01*
X1100575Y1159203D01*
X1101128Y1159154D01*
X1101581Y1159079D01*
X1101928Y1158985D01*
X1102165Y1158888D01*
X1102297Y1158808D01*
X1102344Y1158764D01*
X1102349Y1158756D01*
X1102352Y1158747D01*
X1102373Y1158546D01*
X1102440Y1158423D01*
Y1156420D01*
X1114980D01*
Y1169460D01*
X1102440D01*
Y1166577D01*
X1102373Y1166454D01*
X1102352Y1166253D01*
X1102349Y1166244D01*
X1102344Y1166236D01*
X1102296Y1166192D01*
X1102165Y1166112D01*
X1101928Y1166015D01*
X1101581Y1165921D01*
X1101128Y1165846D01*
X1100575Y1165797D01*
X1099894Y1165779D01*
X1099800Y1165737D01*
X1088390D01*
X1087151Y1165491D01*
X1086749Y1165222D01*
X1084309D01*
X1084183Y1165275D01*
X1083187Y1165277D01*
X1082680Y1165288D01*
Y1170270D01*
D02*
G37*
G36*
X1134660Y1161035D02*
X1129025D01*
Y1155150D01*
X1134660D01*
Y1161035D01*
D02*
G37*
G36*
X1125215D02*
X1119580D01*
Y1155150D01*
X1125215D01*
Y1161035D01*
D02*
G37*
G36*
X1243250Y1148630D02*
X1237615D01*
Y1142745D01*
X1240679D01*
Y1145920D01*
X1240730Y1145437D01*
X1240883Y1145006D01*
X1241137Y1144625D01*
X1241492Y1144294D01*
X1241949Y1144015D01*
X1242508Y1143786D01*
X1243169Y1143609D01*
X1243250Y1143595D01*
Y1148630D01*
D02*
G37*
G36*
X1233805D02*
X1228170D01*
Y1142745D01*
X1233805D01*
Y1148630D01*
D02*
G37*
G36*
X1240679Y1138935D02*
X1237615D01*
Y1133050D01*
X1243250D01*
Y1138085D01*
X1243169Y1138071D01*
X1242508Y1137894D01*
X1241949Y1137665D01*
X1241492Y1137386D01*
X1241137Y1137055D01*
X1240883Y1136674D01*
X1240730Y1136243D01*
X1240679Y1135760D01*
Y1138935D01*
D02*
G37*
G36*
X1233805D02*
X1228170D01*
Y1133050D01*
X1233805D01*
Y1138935D01*
D02*
G37*
G36*
X1259823Y1134120D02*
X1257317D01*
X1254895Y1133471D01*
X1252725Y1132218D01*
X1251967Y1131461D01*
X1251726Y1131366D01*
X1251118Y1130782D01*
X1250537Y1130291D01*
X1249954Y1129864D01*
X1249369Y1129500D01*
X1248783Y1129195D01*
X1248194Y1128949D01*
X1247601Y1128759D01*
X1247001Y1128624D01*
X1246392Y1128543D01*
X1245754Y1128515D01*
X1244873Y1128539D01*
X1244104Y1128606D01*
X1243461Y1128714D01*
X1242949Y1128851D01*
X1242572Y1129006D01*
X1242327Y1129156D01*
X1242191Y1129282D01*
X1242122Y1129385D01*
X1242081Y1129502D01*
X1242047Y1129824D01*
X1241980Y1129947D01*
Y1131360D01*
X1229440D01*
Y1125569D01*
X1229247Y1124600D01*
X1229440Y1123631D01*
Y1118320D01*
X1240409D01*
X1240530Y1118254D01*
X1240606Y1118276D01*
X1240679Y1118246D01*
X1240859Y1118320D01*
X1241980D01*
Y1119350D01*
X1242046Y1119471D01*
X1242078Y1119767D01*
X1242112Y1119859D01*
X1242173Y1119947D01*
X1242306Y1120065D01*
X1242552Y1120210D01*
X1242933Y1120360D01*
X1243450Y1120493D01*
X1244098Y1120597D01*
X1244870Y1120663D01*
X1245754Y1120685D01*
X1246392Y1120657D01*
X1247001Y1120576D01*
X1247601Y1120441D01*
X1248194Y1120251D01*
X1248783Y1120005D01*
X1249369Y1119700D01*
X1249954Y1119336D01*
X1250537Y1118909D01*
X1251118Y1118418D01*
X1251726Y1117834D01*
X1251967Y1117739D01*
X1252725Y1116982D01*
X1254895Y1115729D01*
X1257317Y1115080D01*
X1259823D01*
X1262245Y1115729D01*
X1264415Y1116982D01*
X1266188Y1118755D01*
X1267441Y1120925D01*
X1268090Y1123347D01*
Y1125853D01*
X1267441Y1128275D01*
X1266188Y1130445D01*
X1264415Y1132218D01*
X1262245Y1133471D01*
X1259823Y1134120D01*
D02*
G37*
G36*
X1198880Y1136303D02*
X1196824Y1135894D01*
X1195080Y1134730D01*
X1193916Y1132986D01*
X1193507Y1130930D01*
Y1123930D01*
X1193916Y1121874D01*
X1195080Y1120131D01*
X1196824Y1118966D01*
X1198880Y1118557D01*
X1200936Y1118966D01*
X1202680Y1120131D01*
X1203844Y1121874D01*
X1204253Y1123930D01*
Y1130930D01*
X1203844Y1132986D01*
X1202680Y1134730D01*
X1200936Y1135894D01*
X1198880Y1136303D01*
D02*
G37*
G36*
X1262695Y1185026D02*
X1254445D01*
X1252340Y1184607D01*
X1250555Y1183415D01*
X1249363Y1181630D01*
X1248944Y1179525D01*
Y1172328D01*
X1248936Y1172140D01*
X1248878Y1171733D01*
X1248783Y1171326D01*
X1248646Y1170916D01*
X1248468Y1170501D01*
X1248244Y1170080D01*
X1247974Y1169652D01*
X1247656Y1169219D01*
X1247288Y1168780D01*
X1246842Y1168310D01*
X1246806Y1168214D01*
X1242609Y1164017D01*
X1197610D01*
X1196371Y1163771D01*
X1195321Y1163069D01*
X1183891Y1151639D01*
X1183189Y1150589D01*
X1182943Y1149350D01*
Y1138372D01*
X1182902Y1138283D01*
X1182848Y1137058D01*
X1182788Y1136558D01*
X1182703Y1136081D01*
X1182597Y1135645D01*
X1182472Y1135247D01*
X1182328Y1134888D01*
X1182167Y1134565D01*
X1181991Y1134276D01*
X1181761Y1133967D01*
X1181694Y1133702D01*
X1181216Y1132986D01*
X1180807Y1130930D01*
Y1123930D01*
X1181216Y1121874D01*
X1182381Y1120131D01*
X1184124Y1118966D01*
X1186180Y1118557D01*
X1188236Y1118966D01*
X1189979Y1120131D01*
X1191144Y1121874D01*
X1191553Y1123930D01*
Y1130930D01*
X1191144Y1132986D01*
X1190666Y1133702D01*
X1190599Y1133967D01*
X1190369Y1134277D01*
X1190193Y1134565D01*
X1190032Y1134887D01*
X1189888Y1135247D01*
X1189763Y1135645D01*
X1189657Y1136081D01*
X1189576Y1136540D01*
X1189472Y1137647D01*
X1189459Y1138252D01*
X1189417Y1138348D01*
Y1148009D01*
X1198951Y1157543D01*
X1243950D01*
X1245189Y1157789D01*
X1246239Y1158491D01*
X1251384Y1163636D01*
X1251480Y1163672D01*
X1251950Y1164117D01*
X1252389Y1164486D01*
X1252822Y1164804D01*
X1253250Y1165074D01*
X1253671Y1165298D01*
X1254086Y1165477D01*
X1254496Y1165613D01*
X1254903Y1165709D01*
X1255310Y1165766D01*
X1255498Y1165774D01*
X1262695D01*
X1264800Y1166193D01*
X1266585Y1167385D01*
X1267777Y1169170D01*
X1268196Y1171275D01*
Y1179525D01*
X1267777Y1181630D01*
X1266585Y1183415D01*
X1264800Y1184607D01*
X1262695Y1185026D01*
D02*
G37*
G36*
X1173480Y1136303D02*
X1171424Y1135894D01*
X1169680Y1134730D01*
X1168516Y1132986D01*
X1168107Y1130930D01*
Y1123930D01*
X1168516Y1121874D01*
X1168994Y1121158D01*
X1169061Y1120893D01*
X1169291Y1120583D01*
X1169467Y1120295D01*
X1169628Y1119973D01*
X1169772Y1119613D01*
X1169897Y1119215D01*
X1170003Y1118779D01*
X1170085Y1118320D01*
X1170188Y1117213D01*
X1170201Y1116608D01*
X1170243Y1116512D01*
Y1104396D01*
X1169710Y1103110D01*
Y1101610D01*
X1170284Y1100225D01*
X1171345Y1099164D01*
X1172730Y1098590D01*
X1174230D01*
X1175615Y1099164D01*
X1176676Y1100225D01*
X1177250Y1101610D01*
Y1103110D01*
X1176717Y1104396D01*
Y1116488D01*
X1176758Y1116577D01*
X1176813Y1117802D01*
X1176872Y1118302D01*
X1176957Y1118779D01*
X1177063Y1119215D01*
X1177188Y1119613D01*
X1177332Y1119972D01*
X1177493Y1120295D01*
X1177669Y1120584D01*
X1177899Y1120893D01*
X1177966Y1121158D01*
X1178444Y1121874D01*
X1178853Y1123930D01*
Y1130930D01*
X1178444Y1132986D01*
X1177280Y1134730D01*
X1175536Y1135894D01*
X1173480Y1136303D01*
D02*
G37*
%LPD*%
G36*
X1200808Y1240428D02*
X1200922Y1240104D01*
X1201112Y1239818D01*
X1201379Y1239571D01*
X1201722Y1239361D01*
X1202141Y1239190D01*
X1202636Y1239056D01*
X1203208Y1238961D01*
X1203856Y1238904D01*
X1204579Y1238885D01*
Y1235075D01*
X1203856Y1235056D01*
X1203208Y1234999D01*
X1202636Y1234904D01*
X1202141Y1234770D01*
X1201722Y1234599D01*
X1201379Y1234389D01*
X1201112Y1234142D01*
X1200922Y1233856D01*
X1200808Y1233532D01*
X1200770Y1233170D01*
Y1240790D01*
X1200808Y1240428D01*
D02*
G37*
G36*
X1142388D02*
X1142502Y1240104D01*
X1142692Y1239818D01*
X1142959Y1239571D01*
X1143302Y1239361D01*
X1143721Y1239190D01*
X1144216Y1239056D01*
X1144788Y1238961D01*
X1145436Y1238904D01*
X1146160Y1238885D01*
Y1235075D01*
X1145436Y1235056D01*
X1144788Y1234999D01*
X1144216Y1234904D01*
X1143721Y1234770D01*
X1143302Y1234599D01*
X1142959Y1234389D01*
X1142692Y1234142D01*
X1142502Y1233856D01*
X1142388Y1233532D01*
X1142349Y1233170D01*
Y1240790D01*
X1142388Y1240428D01*
D02*
G37*
G36*
X1108910Y1180835D02*
X1106815Y1178740D01*
X1106792Y1178786D01*
X1106725Y1178872D01*
X1106616Y1178998D01*
X1105067Y1180602D01*
X1104660Y1181010D01*
X1106640Y1182990D01*
X1108910Y1180835D01*
D02*
G37*
G36*
X1122150Y1175130D02*
X1122112Y1175492D01*
X1121998Y1175816D01*
X1121807Y1176102D01*
X1121541Y1176349D01*
X1121198Y1176559D01*
X1120779Y1176730D01*
X1120284Y1176864D01*
X1119712Y1176959D01*
X1119064Y1177016D01*
X1118340Y1177035D01*
Y1180845D01*
X1119064Y1180864D01*
X1119712Y1180921D01*
X1120284Y1181016D01*
X1120779Y1181150D01*
X1121198Y1181321D01*
X1121541Y1181531D01*
X1121807Y1181778D01*
X1121998Y1182064D01*
X1122112Y1182388D01*
X1122150Y1182750D01*
Y1175130D01*
D02*
G37*
G36*
X1113718Y1182388D02*
X1113832Y1182064D01*
X1114022Y1181778D01*
X1114289Y1181531D01*
X1114632Y1181321D01*
X1115051Y1181150D01*
X1115546Y1181016D01*
X1116118Y1180921D01*
X1116766Y1180864D01*
X1117489Y1180845D01*
Y1177035D01*
X1116766Y1177016D01*
X1116118Y1176959D01*
X1115546Y1176864D01*
X1115051Y1176730D01*
X1114632Y1176559D01*
X1114289Y1176349D01*
X1114022Y1176102D01*
X1113832Y1175816D01*
X1113718Y1175492D01*
X1113680Y1175130D01*
Y1182750D01*
X1113718Y1182388D01*
D02*
G37*
G36*
X1132135Y1182737D02*
X1132272Y1182393D01*
X1132500Y1182090D01*
X1132819Y1181827D01*
X1133230Y1181605D01*
X1133731Y1181423D01*
X1134324Y1181282D01*
X1135008Y1181181D01*
X1135783Y1181120D01*
X1136650Y1181100D01*
Y1176020D01*
X1135783Y1176000D01*
X1135008Y1175939D01*
X1134324Y1175838D01*
X1133731Y1175697D01*
X1133230Y1175515D01*
X1132819Y1175293D01*
X1132500Y1175030D01*
X1132272Y1174727D01*
X1132135Y1174383D01*
X1132089Y1173999D01*
Y1183121D01*
X1132135Y1182737D01*
D02*
G37*
G36*
X1230258Y1239132D02*
X1229934Y1239018D01*
X1229648Y1238828D01*
X1229401Y1238561D01*
X1229191Y1238218D01*
X1229020Y1237799D01*
X1228886Y1237304D01*
X1228791Y1236732D01*
X1228734Y1236084D01*
X1228715Y1235360D01*
X1224905D01*
X1224886Y1236084D01*
X1224829Y1236732D01*
X1224734Y1237304D01*
X1224600Y1237799D01*
X1224429Y1238218D01*
X1224219Y1238561D01*
X1223971Y1238828D01*
X1223686Y1239018D01*
X1223362Y1239132D01*
X1223000Y1239171D01*
X1230620D01*
X1230258Y1239132D01*
D02*
G37*
G36*
X1200799Y1191568D02*
X1200912Y1190356D01*
X1201011Y1189799D01*
X1201138Y1189275D01*
X1201293Y1188784D01*
X1201477Y1188325D01*
X1201688Y1187899D01*
X1201928Y1187506D01*
X1202197Y1187146D01*
X1195564D01*
X1195832Y1187506D01*
X1196072Y1187899D01*
X1196283Y1188325D01*
X1196467Y1188784D01*
X1196622Y1189275D01*
X1196749Y1189799D01*
X1196848Y1190356D01*
X1196918Y1190945D01*
X1196975Y1192223D01*
X1200785D01*
X1200799Y1191568D01*
D02*
G37*
G36*
X1189349Y1175484D02*
X1189217Y1175175D01*
X1189100Y1174784D01*
X1189000Y1174314D01*
X1188914Y1173762D01*
X1188790Y1172419D01*
X1188728Y1170753D01*
X1188720Y1169799D01*
X1183640D01*
X1183632Y1170753D01*
X1183446Y1173762D01*
X1183360Y1174314D01*
X1183260Y1174784D01*
X1183143Y1175175D01*
X1183011Y1175484D01*
X1182863Y1175714D01*
X1189497D01*
X1189349Y1175484D01*
D02*
G37*
G36*
X1081407Y1163956D02*
X1081491Y1163944D01*
X1081631Y1163934D01*
X1083171Y1163903D01*
X1084180Y1163900D01*
Y1161100D01*
X1081379Y1161031D01*
Y1163969D01*
X1081407Y1163956D01*
D02*
G37*
G36*
X1103740Y1158690D02*
X1103702Y1159052D01*
X1103588Y1159376D01*
X1103398Y1159662D01*
X1103131Y1159909D01*
X1102788Y1160119D01*
X1102369Y1160290D01*
X1101874Y1160424D01*
X1101302Y1160519D01*
X1100654Y1160576D01*
X1099930Y1160595D01*
Y1164405D01*
X1100654Y1164424D01*
X1101302Y1164481D01*
X1101874Y1164576D01*
X1102369Y1164710D01*
X1102788Y1164881D01*
X1103131Y1165091D01*
X1103398Y1165339D01*
X1103588Y1165624D01*
X1103702Y1165948D01*
X1103740Y1166310D01*
Y1158690D01*
D02*
G37*
G36*
X1081408Y1133966D02*
X1081496Y1133962D01*
X1084279Y1133950D01*
Y1131050D01*
X1081379Y1131031D01*
Y1133969D01*
X1081408Y1133966D01*
D02*
G37*
G36*
X1162053Y1127043D02*
X1162140Y1125613D01*
X1162172Y1125429D01*
X1162210Y1125278D01*
X1162252Y1125162D01*
X1162300Y1125078D01*
X1159260D01*
X1159308Y1125162D01*
X1159350Y1125278D01*
X1159388Y1125429D01*
X1159420Y1125613D01*
X1159470Y1126084D01*
X1159500Y1126689D01*
X1159510Y1127430D01*
X1162050D01*
X1162053Y1127043D01*
D02*
G37*
G36*
X1109684Y1124046D02*
X1109741Y1123398D01*
X1109836Y1122826D01*
X1109970Y1122331D01*
X1110141Y1121912D01*
X1110351Y1121569D01*
X1110598Y1121302D01*
X1110884Y1121112D01*
X1111208Y1120998D01*
X1111570Y1120959D01*
X1103950D01*
X1104312Y1120998D01*
X1104636Y1121112D01*
X1104921Y1121302D01*
X1105169Y1121569D01*
X1105379Y1121912D01*
X1105550Y1122331D01*
X1105684Y1122826D01*
X1105779Y1123398D01*
X1105836Y1124046D01*
X1105855Y1124770D01*
X1109665D01*
X1109684Y1124046D01*
D02*
G37*
G36*
X1161558Y1120018D02*
X1161114Y1119953D01*
X1160666Y1119845D01*
X1160215Y1119693D01*
X1159761Y1119499D01*
X1159304Y1119261D01*
X1158844Y1118980D01*
X1158380Y1118656D01*
X1157913Y1118289D01*
X1156970Y1117426D01*
X1154276Y1120120D01*
X1154754Y1120625D01*
X1155182Y1121133D01*
X1155559Y1121646D01*
X1155886Y1122161D01*
X1156162Y1122680D01*
X1156389Y1123203D01*
X1156565Y1123729D01*
X1156691Y1124259D01*
X1156766Y1124792D01*
X1156791Y1125329D01*
X1161558Y1120018D01*
D02*
G37*
G36*
X1112268Y1120438D02*
X1112382Y1120114D01*
X1112572Y1119828D01*
X1112839Y1119581D01*
X1113182Y1119371D01*
X1113601Y1119200D01*
X1114096Y1119066D01*
X1114668Y1118971D01*
X1115316Y1118914D01*
X1116040Y1118895D01*
Y1115085D01*
X1115316Y1115066D01*
X1114668Y1115009D01*
X1114096Y1114914D01*
X1113601Y1114780D01*
X1113182Y1114609D01*
X1112839Y1114399D01*
X1112572Y1114152D01*
X1112382Y1113866D01*
X1112268Y1113542D01*
X1112230Y1113180D01*
Y1120800D01*
X1112268Y1120438D01*
D02*
G37*
G36*
X1111208Y1112982D02*
X1110884Y1112868D01*
X1110598Y1112678D01*
X1110351Y1112411D01*
X1110141Y1112068D01*
X1109970Y1111649D01*
X1109836Y1111154D01*
X1109741Y1110582D01*
X1109684Y1109934D01*
X1109665Y1109211D01*
X1105855D01*
X1105836Y1109934D01*
X1105779Y1110582D01*
X1105684Y1111154D01*
X1105550Y1111649D01*
X1105379Y1112068D01*
X1105169Y1112411D01*
X1104921Y1112678D01*
X1104636Y1112868D01*
X1104312Y1112982D01*
X1103950Y1113020D01*
X1111570D01*
X1111208Y1112982D01*
D02*
G37*
G36*
X1123290Y1103680D02*
X1123252Y1104042D01*
X1123138Y1104366D01*
X1122948Y1104652D01*
X1122681Y1104899D01*
X1122338Y1105109D01*
X1121919Y1105280D01*
X1121424Y1105414D01*
X1120852Y1105509D01*
X1120204Y1105566D01*
X1119481Y1105585D01*
Y1109395D01*
X1120204Y1109414D01*
X1120852Y1109471D01*
X1121424Y1109566D01*
X1121919Y1109700D01*
X1122338Y1109871D01*
X1122681Y1110081D01*
X1122948Y1110329D01*
X1123138Y1110614D01*
X1123252Y1110938D01*
X1123290Y1111300D01*
Y1103680D01*
D02*
G37*
G36*
X1130318Y1103482D02*
X1129994Y1103368D01*
X1129708Y1103178D01*
X1129461Y1102911D01*
X1129251Y1102568D01*
X1129080Y1102149D01*
X1128947Y1101654D01*
X1128851Y1101082D01*
X1128794Y1100434D01*
X1128775Y1099710D01*
X1124965D01*
X1124948Y1100434D01*
X1124898Y1101082D01*
X1124814Y1101654D01*
X1124697Y1102149D01*
X1124546Y1102568D01*
X1124362Y1102911D01*
X1124145Y1103178D01*
X1123893Y1103368D01*
X1123609Y1103482D01*
X1123290Y1103521D01*
X1130680D01*
X1130318Y1103482D01*
D02*
G37*
G36*
X1128794Y1095176D02*
X1128851Y1094528D01*
X1128947Y1093956D01*
X1129080Y1093461D01*
X1129251Y1093042D01*
X1129461Y1092699D01*
X1129708Y1092432D01*
X1129994Y1092242D01*
X1130318Y1092128D01*
X1130680Y1092089D01*
X1123060D01*
X1123422Y1092128D01*
X1123746Y1092242D01*
X1124032Y1092432D01*
X1124279Y1092699D01*
X1124489Y1093042D01*
X1124660Y1093461D01*
X1124794Y1093956D01*
X1124889Y1094528D01*
X1124946Y1095176D01*
X1124965Y1095900D01*
X1128775D01*
X1128794Y1095176D01*
D02*
G37*
G36*
X1109684D02*
X1109741Y1094528D01*
X1109836Y1093956D01*
X1109970Y1093461D01*
X1110141Y1093042D01*
X1110351Y1092699D01*
X1110598Y1092432D01*
X1110884Y1092242D01*
X1111208Y1092128D01*
X1111570Y1092089D01*
X1105650D01*
X1105689Y1092128D01*
X1105724Y1092242D01*
X1105755Y1092432D01*
X1105781Y1092699D01*
X1105837Y1093956D01*
X1105855Y1095900D01*
X1109665D01*
X1109684Y1095176D01*
D02*
G37*
G36*
X1109682Y1090340D02*
X1109750Y1090222D01*
X1109859Y1090070D01*
X1110009Y1089882D01*
X1110704Y1089108D01*
X1111768Y1088018D01*
X1109972Y1086222D01*
X1109574Y1086618D01*
X1107650Y1088308D01*
X1107568Y1088335D01*
X1109655Y1090422D01*
X1109682Y1090340D01*
D02*
G37*
G36*
X1240730Y1129197D02*
X1240883Y1128766D01*
X1241137Y1128385D01*
X1241492Y1128054D01*
X1241949Y1127775D01*
X1242508Y1127546D01*
X1243169Y1127369D01*
X1243931Y1127242D01*
X1244794Y1127165D01*
X1245760Y1127140D01*
Y1122060D01*
X1244794Y1122036D01*
X1243931Y1121962D01*
X1243169Y1121841D01*
X1242508Y1121670D01*
X1241949Y1121450D01*
X1241492Y1121182D01*
X1241137Y1120865D01*
X1240883Y1120499D01*
X1240730Y1120084D01*
X1240679Y1119621D01*
Y1129680D01*
X1240730Y1129197D01*
D02*
G37*
G36*
X1252678Y1118825D02*
X1252038Y1119440D01*
X1251387Y1119990D01*
X1250725Y1120475D01*
X1250051Y1120895D01*
X1249366Y1121251D01*
X1248670Y1121542D01*
X1247962Y1121769D01*
X1247243Y1121931D01*
X1246512Y1122028D01*
X1245771Y1122060D01*
Y1127140D01*
X1246512Y1127172D01*
X1247243Y1127269D01*
X1247962Y1127431D01*
X1248670Y1127658D01*
X1249366Y1127949D01*
X1250051Y1128305D01*
X1250725Y1128725D01*
X1251387Y1129210D01*
X1252038Y1129760D01*
X1252678Y1130375D01*
Y1118825D01*
D02*
G37*
G36*
X1255719Y1167161D02*
X1255182Y1167136D01*
X1254649Y1167061D01*
X1254121Y1166937D01*
X1253596Y1166762D01*
X1253076Y1166538D01*
X1252560Y1166264D01*
X1252047Y1165941D01*
X1251539Y1165567D01*
X1251035Y1165144D01*
X1250535Y1164671D01*
X1247841Y1167365D01*
X1248314Y1167865D01*
X1248737Y1168369D01*
X1249111Y1168877D01*
X1249434Y1169389D01*
X1249708Y1169906D01*
X1249932Y1170426D01*
X1250107Y1170951D01*
X1250231Y1171479D01*
X1250306Y1172012D01*
X1250331Y1172549D01*
X1255719Y1167161D01*
D02*
G37*
G36*
X1188099Y1137568D02*
X1188212Y1136356D01*
X1188311Y1135799D01*
X1188438Y1135275D01*
X1188593Y1134784D01*
X1188777Y1134325D01*
X1188988Y1133899D01*
X1189228Y1133506D01*
X1189497Y1133146D01*
X1182863D01*
X1183132Y1133506D01*
X1183372Y1133899D01*
X1183583Y1134325D01*
X1183767Y1134784D01*
X1183922Y1135275D01*
X1184049Y1135799D01*
X1184148Y1136356D01*
X1184219Y1136945D01*
X1184275Y1138223D01*
X1188085D01*
X1188099Y1137568D01*
D02*
G37*
G36*
X1176528Y1121354D02*
X1176288Y1120961D01*
X1176077Y1120535D01*
X1175893Y1120076D01*
X1175738Y1119585D01*
X1175611Y1119061D01*
X1175512Y1118504D01*
X1175442Y1117915D01*
X1175385Y1116637D01*
X1171575D01*
X1171561Y1117292D01*
X1171448Y1118504D01*
X1171349Y1119061D01*
X1171222Y1119585D01*
X1171067Y1120076D01*
X1170883Y1120535D01*
X1170672Y1120961D01*
X1170432Y1121354D01*
X1170163Y1121714D01*
X1176796D01*
X1176528Y1121354D01*
D02*
G37*
D13*
X1160780Y1123930D02*
Y1127430D01*
X1107760Y1090230D02*
X1110870Y1087120D01*
D14*
X1235710Y1140840D02*
D03*
Y1124840D02*
D03*
X1127120Y1162940D02*
D03*
Y1178940D02*
D03*
X1108710D02*
D03*
Y1162940D02*
D03*
D15*
X1198880Y1181430D02*
D03*
X1186180D02*
D03*
X1173480D02*
D03*
X1160780D02*
D03*
X1198880Y1127430D02*
D03*
X1186180D02*
D03*
X1173480D02*
D03*
X1160780D02*
D03*
D16*
X1127760Y1107490D02*
D03*
Y1126490D02*
D03*
X1107760Y1116990D02*
D03*
D17*
X1126870Y1087120D02*
D03*
X1110870D02*
D03*
D18*
X1075660Y1132500D02*
D03*
Y1137500D02*
D03*
Y1142500D02*
D03*
Y1147500D02*
D03*
Y1152500D02*
D03*
Y1157500D02*
D03*
Y1162500D02*
D03*
Y1167500D02*
D03*
D19*
Y1126000D02*
D03*
Y1174000D02*
D03*
Y1118000D02*
D03*
Y1182000D02*
D03*
D20*
X1069910Y1098900D02*
D03*
Y1201100D02*
D03*
X1030610Y1098900D02*
D03*
Y1201100D02*
D03*
D21*
X1135380Y1256980D02*
D03*
Y1236980D02*
D03*
X1193800Y1256980D02*
D03*
Y1236980D02*
D03*
D22*
X1168390Y1247140D02*
D03*
X1226810D02*
D03*
D29*
X1064910Y1121100D02*
D03*
Y1178900D02*
D03*
D31*
X1226810Y1225540D02*
Y1247140D01*
X1198880Y1197610D02*
X1226810Y1225540D01*
X1198880Y1181430D02*
Y1197610D01*
X1173480Y1181430D02*
Y1242050D01*
X1107760Y1088584D02*
Y1116990D01*
Y1126170D01*
X1088730Y1132500D02*
X1101430D01*
X1107760Y1126170D01*
Y1116990D02*
X1153840D01*
X1088390Y1162500D02*
X1108270D01*
X1108710Y1162940D01*
X1135380Y1236980D02*
X1146810D01*
X1193800D02*
X1205230D01*
X1108710Y1178940D02*
X1127120D01*
X1126870Y1090930D02*
Y1107440D01*
X1118920Y1107490D02*
X1127760D01*
X1153840Y1116990D02*
X1160780Y1123930D01*
X1197610Y1160780D02*
X1243950D01*
X1186180Y1149350D02*
X1197610Y1160780D01*
X1243950D02*
X1258570Y1175400D01*
X1186180Y1127430D02*
Y1149350D01*
X1173480Y1102360D02*
Y1127430D01*
X1168390Y1247140D02*
X1173480Y1242050D01*
D32*
X1075660Y1132500D02*
X1088730D01*
D33*
X1186180Y1169670D02*
Y1181430D01*
X1235710Y1140840D02*
X1249410D01*
X1258570Y1150000D01*
X1233132Y1124600D02*
X1258570D01*
X1127500Y1178560D02*
X1136650D01*
D34*
X1127120Y1178940D02*
X1127500Y1178560D01*
X1105650Y1182000D02*
X1108710Y1178940D01*
X1126870Y1107440D02*
X1126870Y1107440D01*
X1118870Y1107440D02*
X1118920Y1107490D01*
X1075660Y1162500D02*
X1088390D01*
D35*
X1258570Y1175400D02*
D03*
D36*
Y1150000D02*
D03*
Y1124600D02*
D03*
D37*
X1010990Y1206500D02*
D03*
Y1198880D02*
D03*
Y1191260D02*
D03*
Y1108740D02*
D03*
Y1101120D02*
D03*
Y1093500D02*
D03*
X1050290D02*
D03*
Y1101120D02*
D03*
Y1108740D02*
D03*
Y1191260D02*
D03*
Y1198880D02*
D03*
Y1206500D02*
D03*
X1146810Y1236980D02*
D03*
X1205230D02*
D03*
X1186180Y1169670D02*
D03*
X1136650Y1178560D02*
D03*
X1118870Y1107440D02*
D03*
X1173480Y1102360D02*
D03*
M02*
