G04*
G04 #@! TF.GenerationSoftware,Altium Limited,Altium Designer,26.1.1 (7)*
G04*
G04 Layer_Physical_Order=2*
G04 Layer_Color=16711680*
%FSLAX44Y44*%
%MOMM*%
G71*
G04*
G04 #@! TF.SameCoordinates,36130511-03F3-4BEF-8F91-A88FF725B84A*
G04*
G04*
G04 #@! TF.FilePolarity,Positive*
G04*
G01*
G75*
%ADD17R,1.0500X1.0000*%
%ADD29C,0.6500*%
%ADD31C,0.3810*%
G04:AMPARAMS|DCode=35|XSize=1.65mm|YSize=1.65mm|CornerRadius=0.4125mm|HoleSize=0mm|Usage=FLASHONLY|Rotation=90.000|XOffset=0mm|YOffset=0mm|HoleType=Round|Shape=RoundedRectangle|*
%AMROUNDEDRECTD35*
21,1,1.6500,0.8250,0,0,90.0*
21,1,0.8250,1.6500,0,0,90.0*
1,1,0.8250,0.4125,0.4125*
1,1,0.8250,0.4125,-0.4125*
1,1,0.8250,-0.4125,-0.4125*
1,1,0.8250,-0.4125,0.4125*
%
%ADD35ROUNDEDRECTD35*%
%ADD36C,1.6500*%
%ADD37C,0.5000*%
%ADD38R,1.0000X1.0000*%
G36*
X1256842Y1299210D02*
X1253228Y1297369D01*
X1249153Y1294408D01*
X1245592Y1290847D01*
X1242631Y1286772D01*
X1240344Y1282284D01*
X1238788Y1277493D01*
X1238000Y1272518D01*
Y1267482D01*
X1238788Y1262507D01*
X1240344Y1257716D01*
X1242631Y1253228D01*
X1245592Y1249153D01*
X1249153Y1245592D01*
X1253228Y1242631D01*
X1257716Y1240344D01*
X1262507Y1238788D01*
X1267482Y1238000D01*
X1272518D01*
X1277493Y1238788D01*
X1282284Y1240344D01*
X1286772Y1242631D01*
X1290847Y1245592D01*
X1294408Y1249153D01*
X1297369Y1253228D01*
X1299210Y1256842D01*
X1300480Y1256537D01*
Y1043463D01*
X1299210Y1043158D01*
X1297369Y1046772D01*
X1294408Y1050847D01*
X1290847Y1054408D01*
X1286772Y1057369D01*
X1282284Y1059656D01*
X1277493Y1061212D01*
X1272518Y1062000D01*
X1267482D01*
X1262507Y1061212D01*
X1257716Y1059656D01*
X1253228Y1057369D01*
X1249153Y1054408D01*
X1245592Y1050847D01*
X1242631Y1046772D01*
X1240344Y1042284D01*
X1238788Y1037493D01*
X1238000Y1032518D01*
Y1027482D01*
X1238788Y1022507D01*
X1240344Y1017716D01*
X1242631Y1013228D01*
X1245592Y1009153D01*
X1249153Y1005592D01*
X1253228Y1002631D01*
X1256901Y1000760D01*
X1256596Y999490D01*
X1043404D01*
X1043099Y1000760D01*
X1046772Y1002631D01*
X1050847Y1005592D01*
X1054408Y1009153D01*
X1057369Y1013228D01*
X1059656Y1017716D01*
X1061212Y1022507D01*
X1062000Y1027482D01*
Y1032518D01*
X1061212Y1037493D01*
X1059656Y1042284D01*
X1057369Y1046772D01*
X1054408Y1050847D01*
X1050847Y1054408D01*
X1046772Y1057369D01*
X1042284Y1059656D01*
X1037493Y1061212D01*
X1032518Y1062000D01*
X1027482D01*
X1022507Y1061212D01*
X1017716Y1059656D01*
X1013228Y1057369D01*
X1009153Y1054408D01*
X1005592Y1050847D01*
X1002631Y1046772D01*
X1000760Y1043099D01*
X999490Y1043404D01*
Y1256596D01*
X1000760Y1256901D01*
X1002631Y1253228D01*
X1005592Y1249153D01*
X1009153Y1245592D01*
X1013228Y1242631D01*
X1017716Y1240344D01*
X1022507Y1238788D01*
X1027482Y1238000D01*
X1032518D01*
X1037493Y1238788D01*
X1042284Y1240344D01*
X1046772Y1242631D01*
X1050847Y1245592D01*
X1054408Y1249153D01*
X1057369Y1253228D01*
X1059656Y1257716D01*
X1061212Y1262507D01*
X1062000Y1267482D01*
Y1272518D01*
X1061212Y1277493D01*
X1059656Y1282284D01*
X1057369Y1286772D01*
X1054408Y1290847D01*
X1050847Y1294408D01*
X1046772Y1297369D01*
X1043158Y1299210D01*
X1043463Y1300480D01*
X1256537D01*
X1256842Y1299210D01*
D02*
G37*
%LPC*%
G36*
X1065809Y1183420D02*
X1064011D01*
X1062350Y1182732D01*
X1061078Y1181460D01*
X1060390Y1179799D01*
Y1178001D01*
X1061078Y1176340D01*
X1062350Y1175068D01*
X1064011Y1174380D01*
X1065809D01*
X1067470Y1175068D01*
X1068742Y1176340D01*
X1069430Y1178001D01*
Y1179799D01*
X1068742Y1181460D01*
X1067470Y1182732D01*
X1065809Y1183420D01*
D02*
G37*
G36*
X1262695Y1185026D02*
X1254445D01*
X1252340Y1184607D01*
X1250555Y1183415D01*
X1249363Y1181630D01*
X1248944Y1179525D01*
Y1171275D01*
X1249363Y1169170D01*
X1250555Y1167385D01*
X1252340Y1166193D01*
X1254445Y1165774D01*
X1262695D01*
X1264800Y1166193D01*
X1266585Y1167385D01*
X1267777Y1169170D01*
X1268196Y1171275D01*
Y1179525D01*
X1267777Y1181630D01*
X1266585Y1183415D01*
X1264800Y1184607D01*
X1262695Y1185026D01*
D02*
G37*
G36*
X1259823Y1159520D02*
X1257317D01*
X1254895Y1158871D01*
X1252725Y1157618D01*
X1250952Y1155845D01*
X1249699Y1153675D01*
X1249050Y1151253D01*
Y1148747D01*
X1249699Y1146325D01*
X1250952Y1144155D01*
X1252725Y1142382D01*
X1254895Y1141129D01*
X1257317Y1140480D01*
X1259823D01*
X1262245Y1141129D01*
X1264415Y1142382D01*
X1266188Y1144155D01*
X1267441Y1146325D01*
X1268090Y1148747D01*
Y1151253D01*
X1267441Y1153675D01*
X1266188Y1155845D01*
X1264415Y1157618D01*
X1262245Y1158871D01*
X1259823Y1159520D01*
D02*
G37*
G36*
X1065809Y1125620D02*
X1064011D01*
X1062350Y1124932D01*
X1061078Y1123660D01*
X1060390Y1121999D01*
Y1120201D01*
X1061078Y1118540D01*
X1062350Y1117268D01*
X1064011Y1116580D01*
X1065809D01*
X1067470Y1117268D01*
X1068742Y1118540D01*
X1069430Y1120201D01*
Y1121999D01*
X1068742Y1123660D01*
X1067470Y1124932D01*
X1065809Y1125620D01*
D02*
G37*
G36*
X1164520Y1108770D02*
X1151480D01*
Y1096230D01*
X1164520D01*
Y1098353D01*
X1164587Y1098476D01*
X1164608Y1098677D01*
X1164611Y1098686D01*
X1164616Y1098694D01*
X1164664Y1098738D01*
X1164795Y1098818D01*
X1165032Y1098915D01*
X1165379Y1099009D01*
X1165832Y1099084D01*
X1166385Y1099133D01*
X1167066Y1099151D01*
X1167160Y1099193D01*
X1171316D01*
X1171345Y1099164D01*
X1172730Y1098590D01*
X1174230D01*
X1175615Y1099164D01*
X1176676Y1100225D01*
X1177250Y1101610D01*
Y1103110D01*
X1176676Y1104495D01*
X1175615Y1105556D01*
X1174230Y1106130D01*
X1172730D01*
X1171613Y1105667D01*
X1167160D01*
X1167066Y1105709D01*
X1166385Y1105727D01*
X1165832Y1105776D01*
X1165379Y1105851D01*
X1165032Y1105945D01*
X1164795Y1106042D01*
X1164663Y1106122D01*
X1164616Y1106166D01*
X1164611Y1106174D01*
X1164608Y1106183D01*
X1164587Y1106384D01*
X1164520Y1106507D01*
Y1108770D01*
D02*
G37*
G36*
X1166040Y1092540D02*
X1160405D01*
Y1086905D01*
X1166040D01*
Y1092540D01*
D02*
G37*
G36*
X1156595D02*
X1150960D01*
Y1086905D01*
X1156595D01*
Y1092540D01*
D02*
G37*
G36*
X1148520Y1108770D02*
X1135480D01*
Y1096230D01*
X1137673D01*
X1137796Y1096163D01*
X1137997Y1096142D01*
X1138006Y1096139D01*
X1138014Y1096134D01*
X1138058Y1096087D01*
X1138138Y1095955D01*
X1138235Y1095718D01*
X1138329Y1095371D01*
X1138404Y1094919D01*
X1138453Y1094365D01*
X1138469Y1093750D01*
X1138453Y1093135D01*
X1138404Y1092581D01*
X1138329Y1092129D01*
X1138235Y1091782D01*
X1138138Y1091545D01*
X1138058Y1091413D01*
X1138014Y1091366D01*
X1138006Y1091361D01*
X1137997Y1091358D01*
X1137796Y1091337D01*
X1137673Y1091270D01*
X1135230D01*
Y1078730D01*
X1147770D01*
Y1091270D01*
X1145827D01*
X1145704Y1091337D01*
X1145503Y1091358D01*
X1145494Y1091361D01*
X1145486Y1091366D01*
X1145442Y1091413D01*
X1145362Y1091545D01*
X1145265Y1091782D01*
X1145171Y1092129D01*
X1145096Y1092581D01*
X1145047Y1093135D01*
X1145031Y1093750D01*
X1145047Y1094365D01*
X1145096Y1094919D01*
X1145171Y1095371D01*
X1145265Y1095718D01*
X1145362Y1095955D01*
X1145442Y1096087D01*
X1145486Y1096134D01*
X1145494Y1096139D01*
X1145503Y1096142D01*
X1145704Y1096163D01*
X1145827Y1096230D01*
X1148520D01*
Y1108770D01*
D02*
G37*
G36*
X1166040Y1083095D02*
X1160405D01*
Y1077460D01*
X1166040D01*
Y1083095D01*
D02*
G37*
G36*
X1156595D02*
X1150960D01*
Y1077460D01*
X1156595D01*
Y1083095D01*
D02*
G37*
%LPD*%
G36*
X1163258Y1105878D02*
X1163372Y1105554D01*
X1163562Y1105268D01*
X1163829Y1105021D01*
X1164172Y1104811D01*
X1164591Y1104640D01*
X1165086Y1104507D01*
X1165658Y1104411D01*
X1166306Y1104354D01*
X1167029Y1104335D01*
Y1100525D01*
X1166306Y1100506D01*
X1165658Y1100449D01*
X1165086Y1100354D01*
X1164591Y1100220D01*
X1164172Y1100049D01*
X1163829Y1099839D01*
X1163562Y1099592D01*
X1163372Y1099306D01*
X1163258Y1098982D01*
X1163220Y1098620D01*
Y1106240D01*
X1163258Y1105878D01*
D02*
G37*
G36*
X1145198Y1097492D02*
X1144874Y1097378D01*
X1144588Y1097188D01*
X1144341Y1096921D01*
X1144131Y1096578D01*
X1143960Y1096159D01*
X1143827Y1095664D01*
X1143731Y1095092D01*
X1143674Y1094444D01*
X1143656Y1093750D01*
X1143674Y1093056D01*
X1143731Y1092408D01*
X1143827Y1091836D01*
X1143960Y1091341D01*
X1144131Y1090922D01*
X1144341Y1090579D01*
X1144588Y1090312D01*
X1144874Y1090122D01*
X1145198Y1090008D01*
X1145560Y1089969D01*
X1137940D01*
X1138302Y1090008D01*
X1138626Y1090122D01*
X1138912Y1090312D01*
X1139159Y1090579D01*
X1139369Y1090922D01*
X1139540Y1091341D01*
X1139674Y1091836D01*
X1139769Y1092408D01*
X1139826Y1093056D01*
X1139844Y1093750D01*
X1139826Y1094444D01*
X1139769Y1095092D01*
X1139674Y1095664D01*
X1139540Y1096159D01*
X1139369Y1096578D01*
X1139159Y1096921D01*
X1138912Y1097188D01*
X1138626Y1097378D01*
X1138302Y1097492D01*
X1137940Y1097531D01*
X1145560D01*
X1145198Y1097492D01*
D02*
G37*
D17*
X1142000Y1102500D02*
D03*
X1158000D02*
D03*
D29*
X1064910Y1121100D02*
D03*
Y1178900D02*
D03*
D31*
X1141750Y1085250D02*
Y1102250D01*
X1141500Y1085000D02*
X1141750Y1085250D01*
Y1102250D02*
X1142000Y1102500D01*
X1158000D02*
X1158070Y1102430D01*
X1173410D01*
X1173480Y1102360D01*
D35*
X1258570Y1175400D02*
D03*
D36*
Y1150000D02*
D03*
Y1124600D02*
D03*
D37*
X1010990Y1206500D02*
D03*
Y1198880D02*
D03*
Y1191260D02*
D03*
Y1108740D02*
D03*
Y1101120D02*
D03*
Y1093500D02*
D03*
X1050290D02*
D03*
Y1101120D02*
D03*
Y1108740D02*
D03*
Y1191260D02*
D03*
Y1198880D02*
D03*
Y1206500D02*
D03*
X1146810Y1236980D02*
D03*
X1205230D02*
D03*
X1186180Y1169670D02*
D03*
X1136650Y1178560D02*
D03*
X1118870Y1107440D02*
D03*
X1173480Y1102360D02*
D03*
D38*
X1158500Y1085000D02*
D03*
X1141500D02*
D03*
M02*
