G04*
G04 #@! TF.GenerationSoftware,Altium Limited,Altium Designer,26.1.1 (7)*
G04*
G04 Layer_Color=65535*
%FSLAX44Y44*%
%MOMM*%
G71*
G04*
G04 #@! TF.SameCoordinates,36130511-03F3-4BEF-8F91-A88FF725B84A*
G04*
G04*
G04 #@! TF.FilePolarity,Positive*
G04*
G01*
G75*
%ADD10C,0.2500*%
%ADD11C,0.6000*%
%ADD12C,0.2000*%
%ADD13C,0.2540*%
G36*
X1232514Y1269729D02*
X1122680D01*
Y1295671D01*
X1232514D01*
Y1269729D01*
D02*
G37*
G36*
X1223589Y1028146D02*
Y1006555D01*
X1077651D01*
Y1028146D01*
Y1054654D01*
X1223589D01*
Y1028146D01*
D02*
G37*
%LPC*%
G36*
X1211775Y1286269D02*
X1211572D01*
X1211166Y1286254D01*
X1210791Y1286223D01*
X1210432Y1286176D01*
X1210104Y1286129D01*
X1209807Y1286051D01*
X1209541Y1285973D01*
X1209292Y1285894D01*
X1209073Y1285801D01*
X1208885Y1285707D01*
X1208714Y1285629D01*
X1208573Y1285551D01*
X1208464Y1285473D01*
X1208370Y1285426D01*
X1208307Y1285379D01*
X1208276Y1285348D01*
X1208260Y1285332D01*
X1208073Y1285160D01*
X1207917Y1284973D01*
X1207776Y1284785D01*
X1207651Y1284582D01*
X1207542Y1284395D01*
X1207464Y1284207D01*
X1207339Y1283848D01*
X1207292Y1283676D01*
X1207261Y1283536D01*
X1207230Y1283395D01*
X1207214Y1283286D01*
X1207198Y1283177D01*
Y1283114D01*
Y1283067D01*
Y1283051D01*
X1207214Y1282786D01*
X1207245Y1282520D01*
X1207308Y1282286D01*
X1207386Y1282052D01*
X1207479Y1281849D01*
X1207589Y1281646D01*
X1207698Y1281474D01*
X1207823Y1281318D01*
X1207933Y1281177D01*
X1208042Y1281052D01*
X1208151Y1280943D01*
X1208245Y1280865D01*
X1208323Y1280802D01*
X1208385Y1280755D01*
X1208417Y1280724D01*
X1208432Y1280708D01*
X1208620Y1280599D01*
X1208870Y1280474D01*
X1209151Y1280365D01*
X1209463Y1280240D01*
X1209807Y1280130D01*
X1210166Y1280021D01*
X1210869Y1279802D01*
X1211228Y1279709D01*
X1211556Y1279631D01*
X1211853Y1279552D01*
X1212119Y1279490D01*
X1212338Y1279443D01*
X1212509Y1279396D01*
X1212572Y1279381D01*
X1212619D01*
X1212634Y1279365D01*
X1212650D01*
X1212900Y1279302D01*
X1213103Y1279240D01*
X1213259Y1279177D01*
X1213384Y1279115D01*
X1213462Y1279068D01*
X1213525Y1279021D01*
X1213556Y1279006D01*
X1213572Y1278990D01*
X1213634Y1278912D01*
X1213697Y1278818D01*
X1213744Y1278662D01*
X1213759Y1278584D01*
X1213775Y1278521D01*
Y1278490D01*
Y1278475D01*
X1213759Y1278303D01*
X1213712Y1278162D01*
X1213650Y1278037D01*
X1213587Y1277928D01*
X1213525Y1277850D01*
X1213462Y1277787D01*
X1213415Y1277756D01*
X1213400Y1277740D01*
X1213181Y1277615D01*
X1212931Y1277522D01*
X1212666Y1277443D01*
X1212400Y1277397D01*
X1212166Y1277365D01*
X1212056D01*
X1211963Y1277350D01*
X1211791D01*
X1211447Y1277365D01*
X1211150Y1277412D01*
X1210885Y1277475D01*
X1210666Y1277553D01*
X1210494Y1277631D01*
X1210369Y1277693D01*
X1210307Y1277740D01*
X1210276Y1277756D01*
X1210088Y1277928D01*
X1209948Y1278115D01*
X1209823Y1278318D01*
X1209729Y1278521D01*
X1209651Y1278693D01*
X1209604Y1278849D01*
X1209588Y1278943D01*
X1209573Y1278959D01*
Y1278974D01*
X1206808Y1278553D01*
X1206886Y1278287D01*
X1206980Y1278021D01*
X1207089Y1277787D01*
X1207214Y1277569D01*
X1207355Y1277350D01*
X1207479Y1277162D01*
X1207620Y1276991D01*
X1207761Y1276819D01*
X1207886Y1276678D01*
X1208011Y1276553D01*
X1208120Y1276459D01*
X1208214Y1276366D01*
X1208307Y1276303D01*
X1208370Y1276256D01*
X1208401Y1276225D01*
X1208417Y1276209D01*
X1208667Y1276053D01*
X1208917Y1275928D01*
X1209198Y1275819D01*
X1209479Y1275710D01*
X1210041Y1275553D01*
X1210588Y1275460D01*
X1210838Y1275428D01*
X1211057Y1275397D01*
X1211275Y1275382D01*
X1211447Y1275366D01*
X1211603Y1275350D01*
X1211806D01*
X1212228Y1275366D01*
X1212634Y1275397D01*
X1213009Y1275444D01*
X1213353Y1275507D01*
X1213665Y1275585D01*
X1213962Y1275678D01*
X1214228Y1275772D01*
X1214462Y1275866D01*
X1214665Y1275960D01*
X1214853Y1276053D01*
X1215009Y1276147D01*
X1215134Y1276225D01*
X1215228Y1276288D01*
X1215290Y1276335D01*
X1215337Y1276366D01*
X1215352Y1276381D01*
X1215571Y1276584D01*
X1215743Y1276787D01*
X1215915Y1276991D01*
X1216055Y1277209D01*
X1216165Y1277412D01*
X1216258Y1277615D01*
X1216337Y1277819D01*
X1216399Y1278006D01*
X1216461Y1278178D01*
X1216493Y1278334D01*
X1216524Y1278490D01*
X1216540Y1278615D01*
X1216555Y1278709D01*
Y1278849D01*
X1216540Y1279084D01*
X1216524Y1279318D01*
X1216415Y1279724D01*
X1216274Y1280068D01*
X1216118Y1280365D01*
X1216040Y1280490D01*
X1215962Y1280599D01*
X1215883Y1280693D01*
X1215821Y1280755D01*
X1215759Y1280818D01*
X1215712Y1280865D01*
X1215696Y1280880D01*
X1215680Y1280896D01*
X1215509Y1281036D01*
X1215290Y1281161D01*
X1215071Y1281286D01*
X1214837Y1281396D01*
X1214321Y1281614D01*
X1213822Y1281786D01*
X1213572Y1281864D01*
X1213353Y1281927D01*
X1213134Y1281989D01*
X1212962Y1282036D01*
X1212806Y1282083D01*
X1212697Y1282114D01*
X1212634Y1282130D01*
X1212603D01*
X1212213Y1282224D01*
X1211853Y1282302D01*
X1211541Y1282395D01*
X1211275Y1282458D01*
X1211025Y1282536D01*
X1210822Y1282599D01*
X1210635Y1282661D01*
X1210494Y1282708D01*
X1210369Y1282755D01*
X1210260Y1282802D01*
X1210182Y1282833D01*
X1210119Y1282864D01*
X1210072Y1282880D01*
X1210041Y1282895D01*
X1210026Y1282911D01*
X1209932Y1282989D01*
X1209870Y1283083D01*
X1209823Y1283161D01*
X1209791Y1283239D01*
X1209776Y1283301D01*
X1209760Y1283364D01*
Y1283395D01*
Y1283411D01*
X1209776Y1283536D01*
X1209807Y1283645D01*
X1209854Y1283739D01*
X1209916Y1283817D01*
X1209979Y1283879D01*
X1210026Y1283942D01*
X1210057Y1283958D01*
X1210072Y1283973D01*
X1210276Y1284082D01*
X1210510Y1284161D01*
X1210776Y1284207D01*
X1211025Y1284254D01*
X1211260Y1284270D01*
X1211447Y1284285D01*
X1211619D01*
X1211916Y1284270D01*
X1212197Y1284239D01*
X1212416Y1284176D01*
X1212603Y1284129D01*
X1212759Y1284067D01*
X1212853Y1284004D01*
X1212931Y1283973D01*
X1212947Y1283958D01*
X1213103Y1283817D01*
X1213244Y1283676D01*
X1213353Y1283520D01*
X1213447Y1283364D01*
X1213509Y1283223D01*
X1213556Y1283114D01*
X1213587Y1283051D01*
Y1283020D01*
X1216196Y1283504D01*
X1216024Y1283989D01*
X1215915Y1284207D01*
X1215805Y1284395D01*
X1215680Y1284582D01*
X1215555Y1284754D01*
X1215431Y1284910D01*
X1215321Y1285051D01*
X1215196Y1285160D01*
X1215102Y1285270D01*
X1214993Y1285363D01*
X1214915Y1285441D01*
X1214837Y1285488D01*
X1214790Y1285535D01*
X1214759Y1285567D01*
X1214743D01*
X1214540Y1285691D01*
X1214306Y1285801D01*
X1214072Y1285894D01*
X1213806Y1285973D01*
X1213290Y1286098D01*
X1212775Y1286176D01*
X1212525Y1286207D01*
X1212306Y1286238D01*
X1212103Y1286254D01*
X1211916D01*
X1211775Y1286269D01*
D02*
G37*
G36*
X1158298D02*
X1158095D01*
X1157689Y1286254D01*
X1157314Y1286223D01*
X1156954Y1286176D01*
X1156626Y1286129D01*
X1156329Y1286051D01*
X1156064Y1285973D01*
X1155814Y1285894D01*
X1155595Y1285801D01*
X1155408Y1285707D01*
X1155236Y1285629D01*
X1155096Y1285551D01*
X1154986Y1285473D01*
X1154892Y1285426D01*
X1154830Y1285379D01*
X1154799Y1285348D01*
X1154783Y1285332D01*
X1154596Y1285160D01*
X1154439Y1284973D01*
X1154299Y1284785D01*
X1154174Y1284582D01*
X1154064Y1284395D01*
X1153986Y1284207D01*
X1153861Y1283848D01*
X1153814Y1283676D01*
X1153783Y1283536D01*
X1153752Y1283395D01*
X1153736Y1283286D01*
X1153721Y1283177D01*
Y1283114D01*
Y1283067D01*
Y1283051D01*
X1153736Y1282786D01*
X1153768Y1282520D01*
X1153830Y1282286D01*
X1153908Y1282052D01*
X1154002Y1281849D01*
X1154111Y1281646D01*
X1154221Y1281474D01*
X1154346Y1281318D01*
X1154455Y1281177D01*
X1154564Y1281052D01*
X1154674Y1280943D01*
X1154767Y1280865D01*
X1154846Y1280802D01*
X1154908Y1280755D01*
X1154939Y1280724D01*
X1154955Y1280708D01*
X1155142Y1280599D01*
X1155392Y1280474D01*
X1155673Y1280365D01*
X1155986Y1280240D01*
X1156329Y1280130D01*
X1156689Y1280021D01*
X1157392Y1279802D01*
X1157751Y1279709D01*
X1158079Y1279631D01*
X1158376Y1279552D01*
X1158641Y1279490D01*
X1158860Y1279443D01*
X1159032Y1279396D01*
X1159094Y1279381D01*
X1159141D01*
X1159157Y1279365D01*
X1159173D01*
X1159423Y1279302D01*
X1159625Y1279240D01*
X1159782Y1279177D01*
X1159907Y1279115D01*
X1159985Y1279068D01*
X1160047Y1279021D01*
X1160079Y1279006D01*
X1160094Y1278990D01*
X1160157Y1278912D01*
X1160219Y1278818D01*
X1160266Y1278662D01*
X1160282Y1278584D01*
X1160297Y1278521D01*
Y1278490D01*
Y1278475D01*
X1160282Y1278303D01*
X1160235Y1278162D01*
X1160172Y1278037D01*
X1160110Y1277928D01*
X1160047Y1277850D01*
X1159985Y1277787D01*
X1159938Y1277756D01*
X1159922Y1277740D01*
X1159704Y1277615D01*
X1159454Y1277522D01*
X1159188Y1277443D01*
X1158923Y1277397D01*
X1158688Y1277365D01*
X1158579D01*
X1158485Y1277350D01*
X1158313D01*
X1157970Y1277365D01*
X1157673Y1277412D01*
X1157407Y1277475D01*
X1157189Y1277553D01*
X1157017Y1277631D01*
X1156892Y1277693D01*
X1156829Y1277740D01*
X1156798Y1277756D01*
X1156611Y1277928D01*
X1156470Y1278115D01*
X1156345Y1278318D01*
X1156251Y1278521D01*
X1156173Y1278693D01*
X1156126Y1278849D01*
X1156111Y1278943D01*
X1156095Y1278959D01*
Y1278974D01*
X1153330Y1278553D01*
X1153408Y1278287D01*
X1153502Y1278021D01*
X1153612Y1277787D01*
X1153736Y1277569D01*
X1153877Y1277350D01*
X1154002Y1277162D01*
X1154143Y1276991D01*
X1154283Y1276819D01*
X1154408Y1276678D01*
X1154533Y1276553D01*
X1154642Y1276459D01*
X1154736Y1276366D01*
X1154830Y1276303D01*
X1154892Y1276256D01*
X1154924Y1276225D01*
X1154939Y1276209D01*
X1155189Y1276053D01*
X1155439Y1275928D01*
X1155720Y1275819D01*
X1156002Y1275710D01*
X1156564Y1275553D01*
X1157111Y1275460D01*
X1157361Y1275428D01*
X1157579Y1275397D01*
X1157798Y1275382D01*
X1157970Y1275366D01*
X1158126Y1275350D01*
X1158329D01*
X1158751Y1275366D01*
X1159157Y1275397D01*
X1159532Y1275444D01*
X1159875Y1275507D01*
X1160188Y1275585D01*
X1160485Y1275678D01*
X1160750Y1275772D01*
X1160985Y1275866D01*
X1161188Y1275960D01*
X1161375Y1276053D01*
X1161531Y1276147D01*
X1161656Y1276225D01*
X1161750Y1276288D01*
X1161813Y1276335D01*
X1161859Y1276366D01*
X1161875Y1276381D01*
X1162094Y1276584D01*
X1162265Y1276787D01*
X1162437Y1276991D01*
X1162578Y1277209D01*
X1162687Y1277412D01*
X1162781Y1277615D01*
X1162859Y1277819D01*
X1162922Y1278006D01*
X1162984Y1278178D01*
X1163015Y1278334D01*
X1163046Y1278490D01*
X1163062Y1278615D01*
X1163078Y1278709D01*
Y1278849D01*
X1163062Y1279084D01*
X1163046Y1279318D01*
X1162937Y1279724D01*
X1162797Y1280068D01*
X1162640Y1280365D01*
X1162562Y1280490D01*
X1162484Y1280599D01*
X1162406Y1280693D01*
X1162344Y1280755D01*
X1162281Y1280818D01*
X1162234Y1280865D01*
X1162219Y1280880D01*
X1162203Y1280896D01*
X1162031Y1281036D01*
X1161813Y1281161D01*
X1161594Y1281286D01*
X1161359Y1281396D01*
X1160844Y1281614D01*
X1160344Y1281786D01*
X1160094Y1281864D01*
X1159875Y1281927D01*
X1159657Y1281989D01*
X1159485Y1282036D01*
X1159329Y1282083D01*
X1159219Y1282114D01*
X1159157Y1282130D01*
X1159126D01*
X1158735Y1282224D01*
X1158376Y1282302D01*
X1158063Y1282395D01*
X1157798Y1282458D01*
X1157548Y1282536D01*
X1157345Y1282599D01*
X1157157Y1282661D01*
X1157017Y1282708D01*
X1156892Y1282755D01*
X1156783Y1282802D01*
X1156704Y1282833D01*
X1156642Y1282864D01*
X1156595Y1282880D01*
X1156564Y1282895D01*
X1156548Y1282911D01*
X1156454Y1282989D01*
X1156392Y1283083D01*
X1156345Y1283161D01*
X1156314Y1283239D01*
X1156298Y1283301D01*
X1156283Y1283364D01*
Y1283395D01*
Y1283411D01*
X1156298Y1283536D01*
X1156329Y1283645D01*
X1156376Y1283739D01*
X1156439Y1283817D01*
X1156501Y1283879D01*
X1156548Y1283942D01*
X1156579Y1283958D01*
X1156595Y1283973D01*
X1156798Y1284082D01*
X1157032Y1284161D01*
X1157298Y1284207D01*
X1157548Y1284254D01*
X1157782Y1284270D01*
X1157970Y1284285D01*
X1158141D01*
X1158438Y1284270D01*
X1158719Y1284239D01*
X1158938Y1284176D01*
X1159126Y1284129D01*
X1159282Y1284067D01*
X1159376Y1284004D01*
X1159454Y1283973D01*
X1159469Y1283958D01*
X1159625Y1283817D01*
X1159766Y1283676D01*
X1159875Y1283520D01*
X1159969Y1283364D01*
X1160032Y1283223D01*
X1160079Y1283114D01*
X1160110Y1283051D01*
Y1283020D01*
X1162719Y1283504D01*
X1162547Y1283989D01*
X1162437Y1284207D01*
X1162328Y1284395D01*
X1162203Y1284582D01*
X1162078Y1284754D01*
X1161953Y1284910D01*
X1161844Y1285051D01*
X1161719Y1285160D01*
X1161625Y1285270D01*
X1161516Y1285363D01*
X1161438Y1285441D01*
X1161359Y1285488D01*
X1161313Y1285535D01*
X1161281Y1285567D01*
X1161266D01*
X1161063Y1285691D01*
X1160828Y1285801D01*
X1160594Y1285894D01*
X1160329Y1285973D01*
X1159813Y1286098D01*
X1159297Y1286176D01*
X1159048Y1286207D01*
X1158829Y1286238D01*
X1158626Y1286254D01*
X1158438D01*
X1158298Y1286269D01*
D02*
G37*
G36*
X1223350Y1290050D02*
X1223147D01*
X1222788Y1290034D01*
X1222444Y1290003D01*
X1222116Y1289956D01*
X1221820Y1289893D01*
X1221523Y1289815D01*
X1221257Y1289737D01*
X1221023Y1289644D01*
X1220788Y1289550D01*
X1220585Y1289456D01*
X1220414Y1289362D01*
X1220257Y1289284D01*
X1220133Y1289206D01*
X1220039Y1289144D01*
X1219961Y1289097D01*
X1219914Y1289066D01*
X1219898Y1289050D01*
X1219664Y1288847D01*
X1219461Y1288628D01*
X1219273Y1288378D01*
X1219117Y1288113D01*
X1218977Y1287847D01*
X1218851Y1287566D01*
X1218742Y1287300D01*
X1218649Y1287035D01*
X1218570Y1286785D01*
X1218508Y1286551D01*
X1218461Y1286332D01*
X1218430Y1286144D01*
X1218399Y1285988D01*
X1218383Y1285863D01*
X1218367Y1285801D01*
Y1285770D01*
X1221117Y1285504D01*
X1221132Y1285723D01*
X1221163Y1285926D01*
X1221242Y1286285D01*
X1221335Y1286582D01*
X1221429Y1286816D01*
X1221538Y1287004D01*
X1221617Y1287129D01*
X1221679Y1287191D01*
X1221695Y1287222D01*
X1221898Y1287394D01*
X1222132Y1287535D01*
X1222366Y1287628D01*
X1222585Y1287691D01*
X1222788Y1287722D01*
X1222944Y1287753D01*
X1223085D01*
X1223397Y1287738D01*
X1223663Y1287675D01*
X1223897Y1287597D01*
X1224100Y1287504D01*
X1224256Y1287410D01*
X1224366Y1287332D01*
X1224444Y1287269D01*
X1224460Y1287254D01*
X1224631Y1287050D01*
X1224756Y1286816D01*
X1224834Y1286582D01*
X1224897Y1286363D01*
X1224928Y1286144D01*
X1224959Y1285988D01*
Y1285926D01*
Y1285879D01*
Y1285848D01*
Y1285832D01*
X1224928Y1285520D01*
X1224866Y1285207D01*
X1224772Y1284926D01*
X1224678Y1284676D01*
X1224569Y1284457D01*
X1224475Y1284285D01*
X1224428Y1284223D01*
X1224413Y1284176D01*
X1224381Y1284161D01*
Y1284145D01*
X1224288Y1284020D01*
X1224163Y1283864D01*
X1224007Y1283692D01*
X1223850Y1283520D01*
X1223475Y1283130D01*
X1223069Y1282739D01*
X1222882Y1282552D01*
X1222694Y1282364D01*
X1222538Y1282208D01*
X1222382Y1282067D01*
X1222257Y1281958D01*
X1222163Y1281864D01*
X1222101Y1281802D01*
X1222085Y1281786D01*
X1221663Y1281396D01*
X1221288Y1281021D01*
X1220929Y1280661D01*
X1220617Y1280333D01*
X1220335Y1280037D01*
X1220086Y1279740D01*
X1219851Y1279490D01*
X1219664Y1279256D01*
X1219492Y1279037D01*
X1219351Y1278865D01*
X1219226Y1278693D01*
X1219133Y1278568D01*
X1219070Y1278475D01*
X1219008Y1278396D01*
X1218992Y1278350D01*
X1218977Y1278334D01*
X1218711Y1277850D01*
X1218508Y1277365D01*
X1218336Y1276897D01*
X1218211Y1276475D01*
X1218164Y1276288D01*
X1218133Y1276116D01*
X1218102Y1275960D01*
X1218071Y1275835D01*
X1218055Y1275725D01*
Y1275647D01*
X1218039Y1275600D01*
Y1275585D01*
X1227724D01*
Y1278147D01*
X1222226D01*
X1222413Y1278412D01*
X1222507Y1278537D01*
X1222585Y1278662D01*
X1222663Y1278756D01*
X1222726Y1278834D01*
X1222772Y1278881D01*
X1222788Y1278896D01*
X1222866Y1278974D01*
X1222960Y1279084D01*
X1223069Y1279193D01*
X1223194Y1279318D01*
X1223460Y1279584D01*
X1223741Y1279849D01*
X1224007Y1280099D01*
X1224131Y1280208D01*
X1224241Y1280302D01*
X1224319Y1280380D01*
X1224381Y1280443D01*
X1224428Y1280474D01*
X1224444Y1280490D01*
X1224678Y1280708D01*
X1224897Y1280911D01*
X1225100Y1281115D01*
X1225287Y1281286D01*
X1225444Y1281458D01*
X1225600Y1281599D01*
X1225725Y1281739D01*
X1225850Y1281864D01*
X1226022Y1282067D01*
X1226162Y1282208D01*
X1226225Y1282302D01*
X1226256Y1282333D01*
X1226521Y1282692D01*
X1226756Y1283036D01*
X1226943Y1283348D01*
X1227099Y1283614D01*
X1227209Y1283848D01*
X1227256Y1283942D01*
X1227302Y1284020D01*
X1227334Y1284082D01*
X1227349Y1284145D01*
X1227365Y1284161D01*
Y1284176D01*
X1227490Y1284504D01*
X1227568Y1284832D01*
X1227630Y1285145D01*
X1227677Y1285441D01*
X1227709Y1285676D01*
Y1285785D01*
X1227724Y1285863D01*
Y1286035D01*
X1227709Y1286348D01*
X1227677Y1286644D01*
X1227615Y1286926D01*
X1227537Y1287207D01*
X1227443Y1287457D01*
X1227334Y1287691D01*
X1227224Y1287910D01*
X1227115Y1288097D01*
X1226990Y1288284D01*
X1226881Y1288441D01*
X1226771Y1288581D01*
X1226678Y1288691D01*
X1226600Y1288769D01*
X1226537Y1288847D01*
X1226506Y1288878D01*
X1226490Y1288894D01*
X1226256Y1289097D01*
X1225990Y1289269D01*
X1225725Y1289425D01*
X1225459Y1289565D01*
X1225178Y1289675D01*
X1224897Y1289769D01*
X1224631Y1289847D01*
X1224366Y1289909D01*
X1224116Y1289956D01*
X1223882Y1289987D01*
X1223678Y1290018D01*
X1223507Y1290034D01*
X1223350Y1290050D01*
D02*
G37*
G36*
X1187391Y1290003D02*
X1182080D01*
Y1275585D01*
X1184985D01*
Y1281021D01*
X1187235D01*
X1187578Y1281036D01*
X1187891D01*
X1188187Y1281052D01*
X1188453Y1281068D01*
X1188703Y1281083D01*
X1188937Y1281099D01*
X1189140Y1281130D01*
X1189312Y1281146D01*
X1189468Y1281161D01*
X1189609Y1281177D01*
X1189718Y1281193D01*
X1189797Y1281208D01*
X1189859D01*
X1189890Y1281224D01*
X1189906D01*
X1190187Y1281302D01*
X1190468Y1281396D01*
X1190718Y1281505D01*
X1190937Y1281614D01*
X1191140Y1281724D01*
X1191281Y1281817D01*
X1191374Y1281880D01*
X1191390Y1281895D01*
X1191405D01*
X1191671Y1282114D01*
X1191921Y1282348D01*
X1192124Y1282583D01*
X1192311Y1282802D01*
X1192452Y1283005D01*
X1192546Y1283177D01*
X1192593Y1283239D01*
X1192624Y1283286D01*
X1192639Y1283301D01*
Y1283317D01*
X1192796Y1283676D01*
X1192921Y1284051D01*
X1192999Y1284426D01*
X1193061Y1284770D01*
X1193077Y1284942D01*
X1193092Y1285082D01*
X1193108Y1285223D01*
X1193124Y1285332D01*
Y1285551D01*
X1193108Y1285863D01*
X1193092Y1286176D01*
X1193046Y1286457D01*
X1192999Y1286722D01*
X1192936Y1286972D01*
X1192858Y1287207D01*
X1192780Y1287410D01*
X1192702Y1287613D01*
X1192624Y1287785D01*
X1192546Y1287925D01*
X1192483Y1288066D01*
X1192405Y1288175D01*
X1192358Y1288253D01*
X1192311Y1288316D01*
X1192296Y1288347D01*
X1192280Y1288363D01*
X1192124Y1288566D01*
X1191952Y1288737D01*
X1191780Y1288894D01*
X1191593Y1289050D01*
X1191249Y1289300D01*
X1190921Y1289487D01*
X1190640Y1289628D01*
X1190515Y1289675D01*
X1190406Y1289722D01*
X1190328Y1289753D01*
X1190265Y1289769D01*
X1190218Y1289784D01*
X1190203D01*
X1190031Y1289815D01*
X1189828Y1289862D01*
X1189593Y1289893D01*
X1189328Y1289909D01*
X1189047Y1289925D01*
X1188765Y1289956D01*
X1188172Y1289972D01*
X1187891Y1289987D01*
X1187641D01*
X1187391Y1290003D01*
D02*
G37*
G36*
X1171982Y1290050D02*
X1169732D01*
X1169639Y1289800D01*
X1169529Y1289565D01*
X1169264Y1289128D01*
X1168982Y1288737D01*
X1168686Y1288394D01*
X1168545Y1288238D01*
X1168420Y1288113D01*
X1168311Y1287988D01*
X1168202Y1287894D01*
X1168123Y1287816D01*
X1168061Y1287769D01*
X1168014Y1287738D01*
X1167998Y1287722D01*
X1167530Y1287379D01*
X1167092Y1287097D01*
X1166702Y1286863D01*
X1166358Y1286691D01*
X1166202Y1286613D01*
X1166061Y1286551D01*
X1165952Y1286504D01*
X1165843Y1286457D01*
X1165765Y1286426D01*
X1165702Y1286410D01*
X1165671Y1286394D01*
X1165655D01*
Y1283879D01*
X1166030Y1284020D01*
X1166389Y1284161D01*
X1166749Y1284317D01*
X1167077Y1284489D01*
X1167389Y1284660D01*
X1167686Y1284832D01*
X1167952Y1285004D01*
X1168202Y1285176D01*
X1168436Y1285332D01*
X1168623Y1285488D01*
X1168811Y1285629D01*
X1168951Y1285738D01*
X1169061Y1285832D01*
X1169154Y1285910D01*
X1169201Y1285957D01*
X1169217Y1285973D01*
Y1275585D01*
X1171982D01*
Y1290050D01*
D02*
G37*
G36*
X1133913Y1290003D02*
X1128602D01*
Y1275585D01*
X1131508D01*
Y1281021D01*
X1133757D01*
X1134101Y1281036D01*
X1134413D01*
X1134710Y1281052D01*
X1134976Y1281068D01*
X1135226Y1281083D01*
X1135460Y1281099D01*
X1135663Y1281130D01*
X1135835Y1281146D01*
X1135991Y1281161D01*
X1136132Y1281177D01*
X1136241Y1281193D01*
X1136319Y1281208D01*
X1136382D01*
X1136413Y1281224D01*
X1136428D01*
X1136710Y1281302D01*
X1136991Y1281396D01*
X1137241Y1281505D01*
X1137459Y1281614D01*
X1137662Y1281724D01*
X1137803Y1281817D01*
X1137897Y1281880D01*
X1137912Y1281895D01*
X1137928D01*
X1138194Y1282114D01*
X1138444Y1282348D01*
X1138646Y1282583D01*
X1138834Y1282802D01*
X1138975Y1283005D01*
X1139068Y1283177D01*
X1139115Y1283239D01*
X1139146Y1283286D01*
X1139162Y1283301D01*
Y1283317D01*
X1139318Y1283676D01*
X1139443Y1284051D01*
X1139521Y1284426D01*
X1139584Y1284770D01*
X1139599Y1284942D01*
X1139615Y1285082D01*
X1139631Y1285223D01*
X1139646Y1285332D01*
Y1285551D01*
X1139631Y1285863D01*
X1139615Y1286176D01*
X1139568Y1286457D01*
X1139521Y1286722D01*
X1139459Y1286972D01*
X1139381Y1287207D01*
X1139303Y1287410D01*
X1139224Y1287613D01*
X1139146Y1287785D01*
X1139068Y1287925D01*
X1139006Y1288066D01*
X1138928Y1288175D01*
X1138881Y1288253D01*
X1138834Y1288316D01*
X1138818Y1288347D01*
X1138803Y1288363D01*
X1138646Y1288566D01*
X1138475Y1288737D01*
X1138303Y1288894D01*
X1138115Y1289050D01*
X1137772Y1289300D01*
X1137444Y1289487D01*
X1137162Y1289628D01*
X1137038Y1289675D01*
X1136928Y1289722D01*
X1136850Y1289753D01*
X1136788Y1289769D01*
X1136741Y1289784D01*
X1136725D01*
X1136553Y1289815D01*
X1136350Y1289862D01*
X1136116Y1289893D01*
X1135850Y1289909D01*
X1135569Y1289925D01*
X1135288Y1289956D01*
X1134694Y1289972D01*
X1134413Y1289987D01*
X1134163D01*
X1133913Y1290003D01*
D02*
G37*
G36*
X1200325Y1286269D02*
X1199934D01*
X1199653Y1286238D01*
X1199138Y1286160D01*
X1198669Y1286051D01*
X1198450Y1285988D01*
X1198247Y1285926D01*
X1198076Y1285863D01*
X1197919Y1285801D01*
X1197779Y1285738D01*
X1197654Y1285691D01*
X1197560Y1285645D01*
X1197498Y1285613D01*
X1197451Y1285598D01*
X1197435Y1285582D01*
X1196998Y1285301D01*
X1196623Y1284989D01*
X1196295Y1284660D01*
X1196014Y1284348D01*
X1195811Y1284067D01*
X1195717Y1283942D01*
X1195654Y1283833D01*
X1195608Y1283739D01*
X1195561Y1283676D01*
X1195545Y1283629D01*
X1195529Y1283614D01*
X1195404Y1283380D01*
X1195311Y1283130D01*
X1195139Y1282661D01*
X1195030Y1282208D01*
X1194936Y1281802D01*
X1194920Y1281614D01*
X1194889Y1281458D01*
X1194873Y1281302D01*
Y1281177D01*
X1194858Y1281083D01*
Y1280943D01*
X1194873Y1280615D01*
X1194889Y1280302D01*
X1194920Y1279990D01*
X1194967Y1279709D01*
X1195014Y1279443D01*
X1195076Y1279193D01*
X1195139Y1278959D01*
X1195201Y1278740D01*
X1195264Y1278553D01*
X1195311Y1278381D01*
X1195373Y1278240D01*
X1195420Y1278115D01*
X1195467Y1278021D01*
X1195498Y1277959D01*
X1195529Y1277912D01*
Y1277897D01*
X1195811Y1277459D01*
X1196123Y1277069D01*
X1196451Y1276741D01*
X1196763Y1276475D01*
X1197060Y1276272D01*
X1197170Y1276178D01*
X1197279Y1276116D01*
X1197373Y1276053D01*
X1197435Y1276022D01*
X1197482Y1276006D01*
X1197498Y1275991D01*
X1197982Y1275772D01*
X1198466Y1275616D01*
X1198935Y1275507D01*
X1199357Y1275428D01*
X1199544Y1275397D01*
X1199716Y1275382D01*
X1199856Y1275366D01*
X1199981D01*
X1200091Y1275350D01*
X1200231D01*
X1200653Y1275366D01*
X1201059Y1275413D01*
X1201450Y1275491D01*
X1201809Y1275600D01*
X1202153Y1275710D01*
X1202465Y1275835D01*
X1202762Y1275975D01*
X1203027Y1276131D01*
X1203262Y1276272D01*
X1203465Y1276413D01*
X1203652Y1276537D01*
X1203793Y1276663D01*
X1203918Y1276756D01*
X1204012Y1276834D01*
X1204059Y1276881D01*
X1204074Y1276897D01*
X1204340Y1277194D01*
X1204574Y1277522D01*
X1204777Y1277834D01*
X1204965Y1278178D01*
X1205105Y1278506D01*
X1205230Y1278834D01*
X1205339Y1279146D01*
X1205417Y1279459D01*
X1205480Y1279740D01*
X1205527Y1280005D01*
X1205558Y1280240D01*
X1205589Y1280443D01*
Y1280599D01*
X1205605Y1280724D01*
Y1280833D01*
X1205589Y1281271D01*
X1205542Y1281677D01*
X1205464Y1282067D01*
X1205371Y1282427D01*
X1205261Y1282770D01*
X1205121Y1283098D01*
X1204996Y1283395D01*
X1204855Y1283661D01*
X1204699Y1283895D01*
X1204574Y1284114D01*
X1204449Y1284285D01*
X1204324Y1284442D01*
X1204230Y1284567D01*
X1204152Y1284645D01*
X1204105Y1284707D01*
X1204090Y1284723D01*
X1203793Y1284989D01*
X1203496Y1285238D01*
X1203168Y1285441D01*
X1202840Y1285613D01*
X1202528Y1285770D01*
X1202200Y1285894D01*
X1201887Y1285988D01*
X1201590Y1286082D01*
X1201309Y1286144D01*
X1201044Y1286191D01*
X1200809Y1286223D01*
X1200606Y1286238D01*
X1200450Y1286254D01*
X1200325Y1286269D01*
D02*
G37*
G36*
X1146848D02*
X1146457D01*
X1146176Y1286238D01*
X1145660Y1286160D01*
X1145192Y1286051D01*
X1144973Y1285988D01*
X1144770Y1285926D01*
X1144598Y1285863D01*
X1144442Y1285801D01*
X1144301Y1285738D01*
X1144176Y1285691D01*
X1144083Y1285645D01*
X1144020Y1285613D01*
X1143973Y1285598D01*
X1143958Y1285582D01*
X1143520Y1285301D01*
X1143145Y1284989D01*
X1142817Y1284660D01*
X1142536Y1284348D01*
X1142333Y1284067D01*
X1142239Y1283942D01*
X1142177Y1283833D01*
X1142130Y1283739D01*
X1142083Y1283676D01*
X1142067Y1283629D01*
X1142052Y1283614D01*
X1141927Y1283380D01*
X1141833Y1283130D01*
X1141661Y1282661D01*
X1141552Y1282208D01*
X1141458Y1281802D01*
X1141443Y1281614D01*
X1141412Y1281458D01*
X1141396Y1281302D01*
Y1281177D01*
X1141380Y1281083D01*
Y1280943D01*
X1141396Y1280615D01*
X1141412Y1280302D01*
X1141443Y1279990D01*
X1141490Y1279709D01*
X1141536Y1279443D01*
X1141599Y1279193D01*
X1141661Y1278959D01*
X1141724Y1278740D01*
X1141786Y1278553D01*
X1141833Y1278381D01*
X1141896Y1278240D01*
X1141943Y1278115D01*
X1141989Y1278021D01*
X1142021Y1277959D01*
X1142052Y1277912D01*
Y1277897D01*
X1142333Y1277459D01*
X1142645Y1277069D01*
X1142974Y1276741D01*
X1143286Y1276475D01*
X1143583Y1276272D01*
X1143692Y1276178D01*
X1143801Y1276116D01*
X1143895Y1276053D01*
X1143958Y1276022D01*
X1144005Y1276006D01*
X1144020Y1275991D01*
X1144504Y1275772D01*
X1144989Y1275616D01*
X1145457Y1275507D01*
X1145879Y1275428D01*
X1146067Y1275397D01*
X1146238Y1275382D01*
X1146379Y1275366D01*
X1146504D01*
X1146613Y1275350D01*
X1146754D01*
X1147176Y1275366D01*
X1147582Y1275413D01*
X1147972Y1275491D01*
X1148332Y1275600D01*
X1148675Y1275710D01*
X1148988Y1275835D01*
X1149284Y1275975D01*
X1149550Y1276131D01*
X1149784Y1276272D01*
X1149987Y1276413D01*
X1150175Y1276537D01*
X1150315Y1276663D01*
X1150440Y1276756D01*
X1150534Y1276834D01*
X1150581Y1276881D01*
X1150597Y1276897D01*
X1150862Y1277194D01*
X1151096Y1277522D01*
X1151300Y1277834D01*
X1151487Y1278178D01*
X1151628Y1278506D01*
X1151753Y1278834D01*
X1151862Y1279146D01*
X1151940Y1279459D01*
X1152002Y1279740D01*
X1152049Y1280005D01*
X1152081Y1280240D01*
X1152112Y1280443D01*
Y1280599D01*
X1152128Y1280724D01*
Y1280833D01*
X1152112Y1281271D01*
X1152065Y1281677D01*
X1151987Y1282067D01*
X1151893Y1282427D01*
X1151784Y1282770D01*
X1151643Y1283098D01*
X1151518Y1283395D01*
X1151378Y1283661D01*
X1151221Y1283895D01*
X1151096Y1284114D01*
X1150972Y1284285D01*
X1150846Y1284442D01*
X1150753Y1284567D01*
X1150675Y1284645D01*
X1150628Y1284707D01*
X1150612Y1284723D01*
X1150315Y1284989D01*
X1150019Y1285238D01*
X1149691Y1285441D01*
X1149362Y1285613D01*
X1149050Y1285770D01*
X1148722Y1285894D01*
X1148410Y1285988D01*
X1148113Y1286082D01*
X1147832Y1286144D01*
X1147566Y1286191D01*
X1147332Y1286223D01*
X1147129Y1286238D01*
X1146973Y1286254D01*
X1146848Y1286269D01*
D02*
G37*
%LPD*%
G36*
X1187172Y1287550D02*
X1187375D01*
X1187563Y1287535D01*
X1187735D01*
X1187891Y1287519D01*
X1188031D01*
X1188141Y1287504D01*
X1188234Y1287488D01*
X1188313D01*
X1188375Y1287472D01*
X1188453Y1287457D01*
X1188484D01*
X1188734Y1287394D01*
X1188969Y1287300D01*
X1189172Y1287207D01*
X1189328Y1287097D01*
X1189468Y1286988D01*
X1189578Y1286894D01*
X1189640Y1286832D01*
X1189656Y1286816D01*
X1189812Y1286613D01*
X1189921Y1286394D01*
X1190015Y1286176D01*
X1190062Y1285973D01*
X1190093Y1285801D01*
X1190125Y1285645D01*
Y1285551D01*
Y1285535D01*
Y1285520D01*
X1190109Y1285285D01*
X1190078Y1285067D01*
X1190015Y1284879D01*
X1189953Y1284723D01*
X1189890Y1284582D01*
X1189828Y1284489D01*
X1189797Y1284411D01*
X1189781Y1284395D01*
X1189656Y1284223D01*
X1189500Y1284082D01*
X1189343Y1283958D01*
X1189203Y1283848D01*
X1189078Y1283770D01*
X1188969Y1283723D01*
X1188906Y1283692D01*
X1188875Y1283676D01*
X1188750Y1283645D01*
X1188609Y1283598D01*
X1188453Y1283583D01*
X1188266Y1283551D01*
X1187891Y1283504D01*
X1187516Y1283489D01*
X1187157Y1283473D01*
X1187000Y1283458D01*
X1184985D01*
Y1287566D01*
X1186938D01*
X1187172Y1287550D01*
D02*
G37*
G36*
X1133695D02*
X1133898D01*
X1134085Y1287535D01*
X1134257D01*
X1134413Y1287519D01*
X1134554D01*
X1134663Y1287504D01*
X1134757Y1287488D01*
X1134835D01*
X1134898Y1287472D01*
X1134976Y1287457D01*
X1135007D01*
X1135257Y1287394D01*
X1135491Y1287300D01*
X1135694Y1287207D01*
X1135850Y1287097D01*
X1135991Y1286988D01*
X1136100Y1286894D01*
X1136163Y1286832D01*
X1136178Y1286816D01*
X1136335Y1286613D01*
X1136444Y1286394D01*
X1136538Y1286176D01*
X1136585Y1285973D01*
X1136616Y1285801D01*
X1136647Y1285645D01*
Y1285551D01*
Y1285535D01*
Y1285520D01*
X1136631Y1285285D01*
X1136600Y1285067D01*
X1136538Y1284879D01*
X1136475Y1284723D01*
X1136413Y1284582D01*
X1136350Y1284489D01*
X1136319Y1284411D01*
X1136303Y1284395D01*
X1136178Y1284223D01*
X1136022Y1284082D01*
X1135866Y1283958D01*
X1135725Y1283848D01*
X1135600Y1283770D01*
X1135491Y1283723D01*
X1135429Y1283692D01*
X1135397Y1283676D01*
X1135272Y1283645D01*
X1135132Y1283598D01*
X1134976Y1283583D01*
X1134788Y1283551D01*
X1134413Y1283504D01*
X1134038Y1283489D01*
X1133679Y1283473D01*
X1133523Y1283458D01*
X1131508D01*
Y1287566D01*
X1133460D01*
X1133695Y1287550D01*
D02*
G37*
G36*
X1200419Y1284004D02*
X1200606Y1283989D01*
X1200950Y1283895D01*
X1201262Y1283754D01*
X1201528Y1283614D01*
X1201747Y1283458D01*
X1201903Y1283317D01*
X1201950Y1283270D01*
X1201997Y1283223D01*
X1202012Y1283208D01*
X1202028Y1283192D01*
X1202153Y1283036D01*
X1202278Y1282848D01*
X1202449Y1282473D01*
X1202590Y1282083D01*
X1202668Y1281693D01*
X1202699Y1281521D01*
X1202731Y1281349D01*
X1202746Y1281208D01*
Y1281068D01*
X1202762Y1280974D01*
Y1280880D01*
Y1280833D01*
Y1280818D01*
Y1280536D01*
X1202731Y1280255D01*
X1202699Y1280005D01*
X1202653Y1279771D01*
X1202590Y1279568D01*
X1202528Y1279365D01*
X1202465Y1279177D01*
X1202403Y1279021D01*
X1202325Y1278881D01*
X1202262Y1278756D01*
X1202200Y1278646D01*
X1202137Y1278568D01*
X1202090Y1278506D01*
X1202059Y1278459D01*
X1202043Y1278428D01*
X1202028Y1278412D01*
X1201887Y1278271D01*
X1201747Y1278147D01*
X1201590Y1278037D01*
X1201434Y1277943D01*
X1201137Y1277803D01*
X1200841Y1277709D01*
X1200591Y1277647D01*
X1200481Y1277631D01*
X1200403Y1277615D01*
X1200325Y1277600D01*
X1200216D01*
X1200013Y1277615D01*
X1199825Y1277631D01*
X1199482Y1277725D01*
X1199169Y1277850D01*
X1198904Y1278006D01*
X1198700Y1278162D01*
X1198529Y1278287D01*
X1198482Y1278334D01*
X1198435Y1278381D01*
X1198419Y1278396D01*
X1198404Y1278412D01*
X1198279Y1278568D01*
X1198169Y1278756D01*
X1197982Y1279131D01*
X1197857Y1279537D01*
X1197779Y1279912D01*
X1197748Y1280099D01*
X1197716Y1280271D01*
X1197701Y1280412D01*
Y1280552D01*
X1197685Y1280646D01*
Y1280740D01*
Y1280786D01*
Y1280802D01*
X1197701Y1281083D01*
X1197716Y1281349D01*
X1197748Y1281599D01*
X1197794Y1281833D01*
X1197857Y1282052D01*
X1197919Y1282239D01*
X1197982Y1282427D01*
X1198044Y1282583D01*
X1198107Y1282723D01*
X1198169Y1282848D01*
X1198232Y1282958D01*
X1198294Y1283036D01*
X1198341Y1283098D01*
X1198372Y1283161D01*
X1198404Y1283177D01*
Y1283192D01*
X1198544Y1283333D01*
X1198700Y1283473D01*
X1198841Y1283583D01*
X1198997Y1283676D01*
X1199294Y1283817D01*
X1199591Y1283911D01*
X1199841Y1283973D01*
X1199950Y1283989D01*
X1200044Y1284004D01*
X1200106Y1284020D01*
X1200216D01*
X1200419Y1284004D01*
D02*
G37*
G36*
X1146941D02*
X1147129Y1283989D01*
X1147472Y1283895D01*
X1147785Y1283754D01*
X1148050Y1283614D01*
X1148269Y1283458D01*
X1148425Y1283317D01*
X1148472Y1283270D01*
X1148519Y1283223D01*
X1148535Y1283208D01*
X1148550Y1283192D01*
X1148675Y1283036D01*
X1148800Y1282848D01*
X1148972Y1282473D01*
X1149113Y1282083D01*
X1149191Y1281693D01*
X1149222Y1281521D01*
X1149253Y1281349D01*
X1149269Y1281208D01*
Y1281068D01*
X1149284Y1280974D01*
Y1280880D01*
Y1280833D01*
Y1280818D01*
Y1280536D01*
X1149253Y1280255D01*
X1149222Y1280005D01*
X1149175Y1279771D01*
X1149113Y1279568D01*
X1149050Y1279365D01*
X1148988Y1279177D01*
X1148925Y1279021D01*
X1148847Y1278881D01*
X1148785Y1278756D01*
X1148722Y1278646D01*
X1148660Y1278568D01*
X1148613Y1278506D01*
X1148581Y1278459D01*
X1148566Y1278428D01*
X1148550Y1278412D01*
X1148410Y1278271D01*
X1148269Y1278147D01*
X1148113Y1278037D01*
X1147957Y1277943D01*
X1147660Y1277803D01*
X1147363Y1277709D01*
X1147113Y1277647D01*
X1147004Y1277631D01*
X1146926Y1277615D01*
X1146848Y1277600D01*
X1146738D01*
X1146535Y1277615D01*
X1146348Y1277631D01*
X1146004Y1277725D01*
X1145692Y1277850D01*
X1145426Y1278006D01*
X1145223Y1278162D01*
X1145051Y1278287D01*
X1145004Y1278334D01*
X1144957Y1278381D01*
X1144942Y1278396D01*
X1144926Y1278412D01*
X1144801Y1278568D01*
X1144692Y1278756D01*
X1144504Y1279131D01*
X1144379Y1279537D01*
X1144301Y1279912D01*
X1144270Y1280099D01*
X1144239Y1280271D01*
X1144223Y1280412D01*
Y1280552D01*
X1144208Y1280646D01*
Y1280740D01*
Y1280786D01*
Y1280802D01*
X1144223Y1281083D01*
X1144239Y1281349D01*
X1144270Y1281599D01*
X1144317Y1281833D01*
X1144379Y1282052D01*
X1144442Y1282239D01*
X1144504Y1282427D01*
X1144567Y1282583D01*
X1144629Y1282723D01*
X1144692Y1282848D01*
X1144754Y1282958D01*
X1144817Y1283036D01*
X1144864Y1283098D01*
X1144895Y1283161D01*
X1144926Y1283177D01*
Y1283192D01*
X1145067Y1283333D01*
X1145223Y1283473D01*
X1145364Y1283583D01*
X1145520Y1283676D01*
X1145817Y1283817D01*
X1146113Y1283911D01*
X1146363Y1283973D01*
X1146473Y1283989D01*
X1146566Y1284004D01*
X1146629Y1284020D01*
X1146738D01*
X1146941Y1284004D01*
D02*
G37*
%LPC*%
G36*
X1185666Y1048625D02*
X1182901D01*
Y1046063D01*
X1185666D01*
Y1048625D01*
D02*
G37*
G36*
X1089784Y1048859D02*
X1089519D01*
X1088909Y1048843D01*
X1088644Y1048812D01*
X1088363Y1048781D01*
X1088113Y1048734D01*
X1087878Y1048703D01*
X1087675Y1048656D01*
X1087472Y1048609D01*
X1087285Y1048547D01*
X1087129Y1048500D01*
X1087003Y1048468D01*
X1086879Y1048422D01*
X1086800Y1048390D01*
X1086722Y1048359D01*
X1086691Y1048344D01*
X1086675D01*
X1086269Y1048140D01*
X1085894Y1047906D01*
X1085598Y1047672D01*
X1085332Y1047438D01*
X1085145Y1047219D01*
X1084988Y1047047D01*
X1084941Y1046984D01*
X1084910Y1046938D01*
X1084879Y1046906D01*
Y1046891D01*
X1084676Y1046532D01*
X1084520Y1046172D01*
X1084410Y1045813D01*
X1084332Y1045500D01*
X1084285Y1045235D01*
X1084270Y1045110D01*
Y1045016D01*
X1084254Y1044938D01*
Y1044876D01*
Y1044844D01*
Y1044829D01*
X1084270Y1044516D01*
X1084317Y1044220D01*
X1084379Y1043923D01*
X1084457Y1043657D01*
X1084567Y1043407D01*
X1084676Y1043157D01*
X1084801Y1042939D01*
X1084926Y1042736D01*
X1085035Y1042548D01*
X1085160Y1042392D01*
X1085270Y1042251D01*
X1085379Y1042142D01*
X1085457Y1042048D01*
X1085519Y1041986D01*
X1085566Y1041939D01*
X1085582Y1041923D01*
X1085769Y1041767D01*
X1085988Y1041627D01*
X1086238Y1041486D01*
X1086488Y1041345D01*
X1087035Y1041111D01*
X1087581Y1040892D01*
X1087831Y1040814D01*
X1088066Y1040736D01*
X1088284Y1040658D01*
X1088487Y1040611D01*
X1088644Y1040564D01*
X1088753Y1040533D01*
X1088831Y1040502D01*
X1088862D01*
X1089190Y1040424D01*
X1089487Y1040346D01*
X1089753Y1040283D01*
X1089987Y1040221D01*
X1090206Y1040158D01*
X1090393Y1040111D01*
X1090565Y1040064D01*
X1090706Y1040018D01*
X1090831Y1039986D01*
X1090924Y1039955D01*
X1091018Y1039924D01*
X1091081Y1039908D01*
X1091127Y1039893D01*
X1091159D01*
X1091190Y1039877D01*
X1091456Y1039768D01*
X1091674Y1039674D01*
X1091846Y1039565D01*
X1092002Y1039471D01*
X1092096Y1039377D01*
X1092174Y1039315D01*
X1092221Y1039268D01*
X1092236Y1039252D01*
X1092346Y1039111D01*
X1092424Y1038971D01*
X1092471Y1038815D01*
X1092518Y1038674D01*
X1092533Y1038565D01*
X1092549Y1038471D01*
Y1038393D01*
Y1038377D01*
Y1038237D01*
X1092518Y1038096D01*
X1092440Y1037831D01*
X1092315Y1037581D01*
X1092190Y1037378D01*
X1092065Y1037221D01*
X1091940Y1037096D01*
X1091862Y1037018D01*
X1091846Y1036987D01*
X1091830D01*
X1091690Y1036878D01*
X1091534Y1036784D01*
X1091190Y1036643D01*
X1090831Y1036534D01*
X1090487Y1036472D01*
X1090175Y1036425D01*
X1090050Y1036409D01*
X1089925D01*
X1089831Y1036394D01*
X1089690D01*
X1089222Y1036425D01*
X1088800Y1036503D01*
X1088441Y1036597D01*
X1088128Y1036721D01*
X1088003Y1036784D01*
X1087894Y1036846D01*
X1087785Y1036893D01*
X1087706Y1036940D01*
X1087644Y1036987D01*
X1087597Y1037018D01*
X1087581Y1037050D01*
X1087566D01*
X1087425Y1037190D01*
X1087300Y1037331D01*
X1087082Y1037659D01*
X1086894Y1038018D01*
X1086754Y1038362D01*
X1086660Y1038674D01*
X1086613Y1038799D01*
X1086582Y1038924D01*
X1086566Y1039018D01*
X1086551Y1039096D01*
X1086535Y1039143D01*
Y1039158D01*
X1083708Y1038877D01*
X1083770Y1038440D01*
X1083864Y1038018D01*
X1083973Y1037643D01*
X1084098Y1037284D01*
X1084239Y1036956D01*
X1084379Y1036643D01*
X1084535Y1036378D01*
X1084692Y1036128D01*
X1084832Y1035909D01*
X1084973Y1035722D01*
X1085113Y1035566D01*
X1085223Y1035425D01*
X1085316Y1035331D01*
X1085395Y1035253D01*
X1085441Y1035206D01*
X1085457Y1035191D01*
X1085754Y1034972D01*
X1086066Y1034784D01*
X1086394Y1034613D01*
X1086738Y1034472D01*
X1087082Y1034347D01*
X1087425Y1034253D01*
X1087769Y1034160D01*
X1088113Y1034097D01*
X1088425Y1034050D01*
X1088722Y1034004D01*
X1088987Y1033972D01*
X1089206Y1033957D01*
X1089393D01*
X1089534Y1033941D01*
X1090003D01*
X1090331Y1033957D01*
X1090659Y1033988D01*
X1090940Y1034019D01*
X1091221Y1034066D01*
X1091487Y1034097D01*
X1091721Y1034144D01*
X1091940Y1034206D01*
X1092127Y1034253D01*
X1092299Y1034300D01*
X1092455Y1034332D01*
X1092580Y1034378D01*
X1092674Y1034410D01*
X1092736Y1034441D01*
X1092783Y1034456D01*
X1092799D01*
X1093252Y1034675D01*
X1093642Y1034925D01*
X1093970Y1035206D01*
X1094252Y1035456D01*
X1094470Y1035691D01*
X1094548Y1035800D01*
X1094626Y1035894D01*
X1094673Y1035956D01*
X1094720Y1036019D01*
X1094752Y1036050D01*
Y1036065D01*
X1094876Y1036268D01*
X1094986Y1036487D01*
X1095158Y1036893D01*
X1095283Y1037284D01*
X1095361Y1037643D01*
X1095392Y1037799D01*
X1095423Y1037940D01*
X1095439Y1038081D01*
Y1038190D01*
X1095454Y1038268D01*
Y1038393D01*
X1095423Y1038877D01*
X1095361Y1039330D01*
X1095267Y1039721D01*
X1095220Y1039893D01*
X1095173Y1040049D01*
X1095111Y1040189D01*
X1095064Y1040314D01*
X1095017Y1040424D01*
X1094970Y1040517D01*
X1094923Y1040595D01*
X1094908Y1040642D01*
X1094876Y1040674D01*
Y1040689D01*
X1094642Y1041017D01*
X1094377Y1041314D01*
X1094111Y1041564D01*
X1093861Y1041783D01*
X1093627Y1041939D01*
X1093439Y1042064D01*
X1093361Y1042095D01*
X1093314Y1042126D01*
X1093283Y1042158D01*
X1093268D01*
X1093064Y1042251D01*
X1092846Y1042361D01*
X1092596Y1042454D01*
X1092346Y1042548D01*
X1091830Y1042720D01*
X1091315Y1042876D01*
X1091081Y1042939D01*
X1090846Y1043001D01*
X1090659Y1043064D01*
X1090471Y1043111D01*
X1090331Y1043142D01*
X1090221Y1043173D01*
X1090159Y1043189D01*
X1090128D01*
X1089753Y1043282D01*
X1089409Y1043376D01*
X1089097Y1043470D01*
X1088816Y1043564D01*
X1088566Y1043642D01*
X1088347Y1043720D01*
X1088159Y1043798D01*
X1088003Y1043860D01*
X1087863Y1043923D01*
X1087738Y1043985D01*
X1087644Y1044032D01*
X1087581Y1044079D01*
X1087519Y1044110D01*
X1087488Y1044141D01*
X1087457Y1044157D01*
X1087316Y1044298D01*
X1087207Y1044438D01*
X1087144Y1044594D01*
X1087082Y1044735D01*
X1087050Y1044844D01*
X1087035Y1044954D01*
Y1045016D01*
Y1045032D01*
X1087050Y1045235D01*
X1087113Y1045407D01*
X1087175Y1045563D01*
X1087269Y1045688D01*
X1087347Y1045782D01*
X1087425Y1045860D01*
X1087472Y1045907D01*
X1087488Y1045922D01*
X1087785Y1046094D01*
X1088097Y1046235D01*
X1088441Y1046328D01*
X1088753Y1046391D01*
X1089050Y1046422D01*
X1089175Y1046438D01*
X1089284Y1046453D01*
X1089487D01*
X1089925Y1046438D01*
X1090300Y1046375D01*
X1090612Y1046297D01*
X1090878Y1046204D01*
X1091081Y1046110D01*
X1091221Y1046032D01*
X1091299Y1045969D01*
X1091330Y1045954D01*
X1091549Y1045751D01*
X1091721Y1045500D01*
X1091862Y1045235D01*
X1091971Y1044985D01*
X1092049Y1044751D01*
X1092080Y1044641D01*
X1092112Y1044548D01*
X1092127Y1044485D01*
Y1044423D01*
X1092143Y1044391D01*
Y1044376D01*
X1095048Y1044485D01*
X1095017Y1044844D01*
X1094970Y1045188D01*
X1094892Y1045516D01*
X1094783Y1045813D01*
X1094673Y1046094D01*
X1094548Y1046360D01*
X1094424Y1046594D01*
X1094298Y1046813D01*
X1094158Y1047000D01*
X1094033Y1047172D01*
X1093924Y1047328D01*
X1093814Y1047438D01*
X1093720Y1047531D01*
X1093658Y1047609D01*
X1093611Y1047641D01*
X1093596Y1047656D01*
X1093330Y1047875D01*
X1093033Y1048047D01*
X1092705Y1048219D01*
X1092377Y1048359D01*
X1092049Y1048468D01*
X1091705Y1048562D01*
X1091362Y1048640D01*
X1091049Y1048703D01*
X1090737Y1048765D01*
X1090440Y1048797D01*
X1090190Y1048828D01*
X1089956Y1048843D01*
X1089784Y1048859D01*
D02*
G37*
G36*
X1215861Y1044891D02*
X1215705D01*
X1215455Y1044876D01*
X1215236Y1044844D01*
X1215033Y1044782D01*
X1214846Y1044719D01*
X1214705Y1044657D01*
X1214596Y1044594D01*
X1214533Y1044563D01*
X1214502Y1044548D01*
X1214408Y1044485D01*
X1214299Y1044391D01*
X1214096Y1044188D01*
X1213908Y1043970D01*
X1213721Y1043735D01*
X1213565Y1043517D01*
X1213440Y1043329D01*
X1213393Y1043251D01*
X1213362Y1043204D01*
X1213346Y1043173D01*
X1213331Y1043157D01*
Y1044657D01*
X1210769D01*
Y1034206D01*
X1213534D01*
Y1037424D01*
Y1037909D01*
X1213549Y1038346D01*
Y1038737D01*
X1213565Y1039096D01*
X1213580Y1039424D01*
X1213596Y1039705D01*
X1213627Y1039955D01*
X1213643Y1040174D01*
X1213659Y1040361D01*
X1213690Y1040517D01*
X1213705Y1040658D01*
X1213721Y1040752D01*
X1213737Y1040830D01*
Y1040877D01*
X1213752Y1040908D01*
Y1040924D01*
X1213846Y1041220D01*
X1213955Y1041455D01*
X1214065Y1041658D01*
X1214158Y1041814D01*
X1214252Y1041939D01*
X1214330Y1042017D01*
X1214377Y1042064D01*
X1214393Y1042079D01*
X1214549Y1042189D01*
X1214721Y1042267D01*
X1214877Y1042329D01*
X1215033Y1042361D01*
X1215174Y1042392D01*
X1215283Y1042408D01*
X1215377D01*
X1215611Y1042392D01*
X1215830Y1042345D01*
X1216049Y1042267D01*
X1216252Y1042189D01*
X1216423Y1042095D01*
X1216548Y1042033D01*
X1216642Y1041970D01*
X1216673Y1041955D01*
X1217533Y1044360D01*
X1217205Y1044532D01*
X1216877Y1044673D01*
X1216564Y1044766D01*
X1216283Y1044829D01*
X1216049Y1044860D01*
X1215955Y1044876D01*
X1215861Y1044891D01*
D02*
G37*
G36*
X1180026D02*
X1179870D01*
X1179620Y1044876D01*
X1179402Y1044844D01*
X1179199Y1044782D01*
X1179011Y1044719D01*
X1178871Y1044657D01*
X1178761Y1044594D01*
X1178699Y1044563D01*
X1178668Y1044548D01*
X1178574Y1044485D01*
X1178464Y1044391D01*
X1178261Y1044188D01*
X1178074Y1043970D01*
X1177887Y1043735D01*
X1177730Y1043517D01*
X1177605Y1043329D01*
X1177558Y1043251D01*
X1177527Y1043204D01*
X1177512Y1043173D01*
X1177496Y1043157D01*
Y1044657D01*
X1174934D01*
Y1034206D01*
X1177699D01*
Y1037424D01*
Y1037909D01*
X1177715Y1038346D01*
Y1038737D01*
X1177730Y1039096D01*
X1177746Y1039424D01*
X1177762Y1039705D01*
X1177793Y1039955D01*
X1177808Y1040174D01*
X1177824Y1040361D01*
X1177855Y1040517D01*
X1177871Y1040658D01*
X1177887Y1040752D01*
X1177902Y1040830D01*
Y1040877D01*
X1177918Y1040908D01*
Y1040924D01*
X1178011Y1041220D01*
X1178121Y1041455D01*
X1178230Y1041658D01*
X1178324Y1041814D01*
X1178418Y1041939D01*
X1178496Y1042017D01*
X1178543Y1042064D01*
X1178558Y1042079D01*
X1178714Y1042189D01*
X1178886Y1042267D01*
X1179042Y1042329D01*
X1179199Y1042361D01*
X1179339Y1042392D01*
X1179449Y1042408D01*
X1179542D01*
X1179777Y1042392D01*
X1179995Y1042345D01*
X1180214Y1042267D01*
X1180417Y1042189D01*
X1180589Y1042095D01*
X1180714Y1042033D01*
X1180808Y1041970D01*
X1180839Y1041955D01*
X1181698Y1044360D01*
X1181370Y1044532D01*
X1181042Y1044673D01*
X1180730Y1044766D01*
X1180448Y1044829D01*
X1180214Y1044860D01*
X1180120Y1044876D01*
X1180026Y1044891D01*
D02*
G37*
G36*
X1152049D02*
X1151893D01*
X1151643Y1044876D01*
X1151424Y1044844D01*
X1151221Y1044782D01*
X1151034Y1044719D01*
X1150893Y1044657D01*
X1150784Y1044594D01*
X1150722Y1044563D01*
X1150690Y1044548D01*
X1150597Y1044485D01*
X1150487Y1044391D01*
X1150284Y1044188D01*
X1150097Y1043970D01*
X1149909Y1043735D01*
X1149753Y1043517D01*
X1149628Y1043329D01*
X1149581Y1043251D01*
X1149550Y1043204D01*
X1149534Y1043173D01*
X1149519Y1043157D01*
Y1044657D01*
X1146957D01*
Y1034206D01*
X1149722D01*
Y1037424D01*
Y1037909D01*
X1149737Y1038346D01*
Y1038737D01*
X1149753Y1039096D01*
X1149769Y1039424D01*
X1149784Y1039705D01*
X1149816Y1039955D01*
X1149831Y1040174D01*
X1149847Y1040361D01*
X1149878Y1040517D01*
X1149894Y1040658D01*
X1149909Y1040752D01*
X1149925Y1040830D01*
Y1040877D01*
X1149940Y1040908D01*
Y1040924D01*
X1150034Y1041220D01*
X1150144Y1041455D01*
X1150253Y1041658D01*
X1150347Y1041814D01*
X1150440Y1041939D01*
X1150518Y1042017D01*
X1150565Y1042064D01*
X1150581Y1042079D01*
X1150737Y1042189D01*
X1150909Y1042267D01*
X1151065Y1042329D01*
X1151221Y1042361D01*
X1151362Y1042392D01*
X1151471Y1042408D01*
X1151565D01*
X1151799Y1042392D01*
X1152018Y1042345D01*
X1152237Y1042267D01*
X1152440Y1042189D01*
X1152612Y1042095D01*
X1152737Y1042033D01*
X1152830Y1041970D01*
X1152862Y1041955D01*
X1153721Y1044360D01*
X1153393Y1044532D01*
X1153065Y1044673D01*
X1152752Y1044766D01*
X1152471Y1044829D01*
X1152237Y1044860D01*
X1152143Y1044876D01*
X1152049Y1044891D01*
D02*
G37*
G36*
X1197975Y1044657D02*
X1195132D01*
X1193148Y1039315D01*
X1193039Y1038987D01*
X1192992Y1038846D01*
X1192945Y1038705D01*
X1192898Y1038596D01*
X1192883Y1038502D01*
X1192851Y1038440D01*
Y1038424D01*
X1192820Y1038331D01*
X1192789Y1038205D01*
X1192742Y1038049D01*
X1192695Y1037909D01*
X1192648Y1037768D01*
X1192601Y1037643D01*
X1192586Y1037565D01*
X1192570Y1037549D01*
Y1037534D01*
X1192008Y1039315D01*
X1190040Y1044657D01*
X1187134D01*
X1191336Y1034206D01*
X1193820D01*
X1197975Y1044657D01*
D02*
G37*
G36*
X1119604D02*
X1116840D01*
Y1040236D01*
Y1039830D01*
X1116824Y1039471D01*
Y1039143D01*
X1116808Y1038862D01*
X1116793Y1038596D01*
X1116777Y1038362D01*
X1116746Y1038159D01*
X1116730Y1037987D01*
X1116715Y1037846D01*
X1116683Y1037721D01*
X1116668Y1037627D01*
X1116652Y1037549D01*
X1116637Y1037487D01*
Y1037456D01*
X1116621Y1037424D01*
X1116527Y1037221D01*
X1116418Y1037034D01*
X1116293Y1036862D01*
X1116168Y1036721D01*
X1116043Y1036612D01*
X1115949Y1036534D01*
X1115887Y1036472D01*
X1115855Y1036456D01*
X1115652Y1036331D01*
X1115434Y1036237D01*
X1115215Y1036175D01*
X1115028Y1036128D01*
X1114856Y1036097D01*
X1114731Y1036081D01*
X1114606D01*
X1114387Y1036097D01*
X1114184Y1036128D01*
X1114012Y1036175D01*
X1113856Y1036222D01*
X1113731Y1036268D01*
X1113653Y1036315D01*
X1113590Y1036347D01*
X1113575Y1036362D01*
X1113434Y1036487D01*
X1113325Y1036612D01*
X1113231Y1036737D01*
X1113153Y1036862D01*
X1113106Y1036972D01*
X1113059Y1037065D01*
X1113044Y1037128D01*
X1113028Y1037143D01*
X1112997Y1037253D01*
X1112981Y1037409D01*
X1112966Y1037581D01*
X1112950Y1037784D01*
X1112934Y1037987D01*
X1112919Y1038221D01*
X1112903Y1038690D01*
Y1038908D01*
Y1039127D01*
X1112887Y1039315D01*
Y1039502D01*
Y1039643D01*
Y1039752D01*
Y1039815D01*
Y1039846D01*
Y1044657D01*
X1110123D01*
Y1038034D01*
X1110138Y1037518D01*
X1110154Y1037268D01*
X1110185Y1037050D01*
X1110201Y1036846D01*
X1110232Y1036659D01*
X1110263Y1036487D01*
X1110310Y1036331D01*
X1110341Y1036190D01*
X1110372Y1036065D01*
X1110404Y1035956D01*
X1110419Y1035878D01*
X1110451Y1035816D01*
X1110466Y1035769D01*
X1110482Y1035737D01*
Y1035722D01*
X1110638Y1035425D01*
X1110826Y1035175D01*
X1111029Y1034941D01*
X1111232Y1034769D01*
X1111404Y1034613D01*
X1111544Y1034519D01*
X1111607Y1034472D01*
X1111653Y1034441D01*
X1111669Y1034425D01*
X1111685D01*
X1112013Y1034269D01*
X1112341Y1034160D01*
X1112653Y1034082D01*
X1112950Y1034035D01*
X1113200Y1034004D01*
X1113309Y1033988D01*
X1113403Y1033972D01*
X1113575D01*
X1113950Y1033988D01*
X1114309Y1034050D01*
X1114653Y1034128D01*
X1114934Y1034206D01*
X1115184Y1034300D01*
X1115277Y1034332D01*
X1115371Y1034363D01*
X1115434Y1034394D01*
X1115481Y1034425D01*
X1115512Y1034441D01*
X1115527D01*
X1115855Y1034644D01*
X1116168Y1034847D01*
X1116418Y1035081D01*
X1116637Y1035284D01*
X1116808Y1035472D01*
X1116933Y1035628D01*
X1116980Y1035691D01*
X1117011Y1035737D01*
X1117043Y1035753D01*
Y1034206D01*
X1119604D01*
Y1044657D01*
D02*
G37*
G36*
X1185666D02*
X1182901D01*
Y1034206D01*
X1185666D01*
Y1044657D01*
D02*
G37*
G36*
X1166140Y1048625D02*
X1160531D01*
Y1034206D01*
X1166296D01*
X1166577Y1034222D01*
X1166842Y1034238D01*
X1167077Y1034253D01*
X1167311Y1034269D01*
X1167530Y1034300D01*
X1167717Y1034332D01*
X1167889Y1034363D01*
X1168045Y1034378D01*
X1168186Y1034410D01*
X1168311Y1034441D01*
X1168404Y1034456D01*
X1168483Y1034472D01*
X1168530Y1034488D01*
X1168561Y1034503D01*
X1168576D01*
X1169029Y1034675D01*
X1169436Y1034863D01*
X1169779Y1035050D01*
X1170076Y1035238D01*
X1170201Y1035316D01*
X1170310Y1035394D01*
X1170388Y1035472D01*
X1170467Y1035534D01*
X1170529Y1035581D01*
X1170576Y1035628D01*
X1170592Y1035644D01*
X1170607Y1035659D01*
X1170966Y1036050D01*
X1171279Y1036472D01*
X1171544Y1036893D01*
X1171763Y1037299D01*
X1171857Y1037487D01*
X1171935Y1037659D01*
X1171997Y1037815D01*
X1172060Y1037940D01*
X1172091Y1038049D01*
X1172122Y1038143D01*
X1172154Y1038190D01*
Y1038205D01*
X1172310Y1038705D01*
X1172419Y1039221D01*
X1172497Y1039736D01*
X1172544Y1040221D01*
X1172575Y1040439D01*
X1172591Y1040642D01*
Y1040814D01*
X1172607Y1040970D01*
Y1041642D01*
X1172591Y1042001D01*
X1172560Y1042329D01*
X1172529Y1042657D01*
X1172497Y1042954D01*
X1172450Y1043235D01*
X1172403Y1043501D01*
X1172372Y1043735D01*
X1172325Y1043938D01*
X1172279Y1044126D01*
X1172232Y1044298D01*
X1172200Y1044423D01*
X1172169Y1044532D01*
X1172138Y1044610D01*
X1172122Y1044657D01*
Y1044673D01*
X1171935Y1045173D01*
X1171716Y1045626D01*
X1171482Y1046032D01*
X1171373Y1046204D01*
X1171263Y1046360D01*
X1171154Y1046516D01*
X1171060Y1046641D01*
X1170966Y1046750D01*
X1170904Y1046844D01*
X1170841Y1046922D01*
X1170795Y1046969D01*
X1170763Y1047000D01*
X1170748Y1047016D01*
X1170388Y1047344D01*
X1170029Y1047625D01*
X1169670Y1047859D01*
X1169326Y1048031D01*
X1169029Y1048172D01*
X1168904Y1048234D01*
X1168795Y1048265D01*
X1168701Y1048297D01*
X1168639Y1048328D01*
X1168592Y1048344D01*
X1168576D01*
X1168389Y1048390D01*
X1168186Y1048437D01*
X1167748Y1048500D01*
X1167295Y1048562D01*
X1166858Y1048594D01*
X1166655Y1048609D01*
X1166296D01*
X1166140Y1048625D01*
D02*
G37*
G36*
X1100625D02*
X1097860D01*
Y1034206D01*
X1100625D01*
Y1039440D01*
X1100641Y1039908D01*
X1100656Y1040299D01*
X1100703Y1040642D01*
X1100750Y1040924D01*
X1100781Y1041142D01*
X1100828Y1041299D01*
X1100844Y1041361D01*
Y1041392D01*
X1100859Y1041423D01*
X1100969Y1041658D01*
X1101094Y1041877D01*
X1101219Y1042048D01*
X1101344Y1042189D01*
X1101453Y1042298D01*
X1101547Y1042376D01*
X1101625Y1042423D01*
X1101640Y1042439D01*
X1101843Y1042548D01*
X1102062Y1042642D01*
X1102265Y1042704D01*
X1102468Y1042736D01*
X1102625Y1042767D01*
X1102765Y1042783D01*
X1102874D01*
X1103093Y1042767D01*
X1103281Y1042736D01*
X1103452Y1042704D01*
X1103609Y1042657D01*
X1103718Y1042595D01*
X1103812Y1042564D01*
X1103858Y1042533D01*
X1103874Y1042517D01*
X1104015Y1042408D01*
X1104124Y1042298D01*
X1104218Y1042173D01*
X1104296Y1042064D01*
X1104358Y1041955D01*
X1104390Y1041877D01*
X1104421Y1041814D01*
Y1041798D01*
X1104452Y1041705D01*
X1104483Y1041580D01*
X1104499Y1041439D01*
X1104515Y1041283D01*
X1104546Y1040955D01*
X1104577Y1040595D01*
Y1040267D01*
X1104593Y1040111D01*
Y1039986D01*
Y1039877D01*
Y1039799D01*
Y1039736D01*
Y1039721D01*
Y1034206D01*
X1107358D01*
Y1040830D01*
X1107342Y1041049D01*
X1107326Y1041252D01*
Y1041439D01*
X1107311Y1041611D01*
X1107295Y1041767D01*
X1107280Y1041892D01*
X1107264Y1042017D01*
X1107248Y1042126D01*
X1107233Y1042205D01*
Y1042283D01*
X1107217Y1042329D01*
X1107201Y1042376D01*
Y1042408D01*
X1107139Y1042657D01*
X1107061Y1042876D01*
X1106967Y1043095D01*
X1106889Y1043267D01*
X1106795Y1043423D01*
X1106733Y1043532D01*
X1106686Y1043595D01*
X1106670Y1043626D01*
X1106514Y1043829D01*
X1106342Y1044001D01*
X1106139Y1044157D01*
X1105967Y1044282D01*
X1105796Y1044391D01*
X1105655Y1044470D01*
X1105561Y1044516D01*
X1105546Y1044532D01*
X1105530D01*
X1105233Y1044657D01*
X1104936Y1044735D01*
X1104655Y1044798D01*
X1104390Y1044844D01*
X1104155Y1044876D01*
X1104062D01*
X1103968Y1044891D01*
X1103812D01*
X1103468Y1044876D01*
X1103140Y1044829D01*
X1102828Y1044751D01*
X1102531Y1044641D01*
X1102250Y1044532D01*
X1101984Y1044391D01*
X1101750Y1044251D01*
X1101515Y1044110D01*
X1101328Y1043954D01*
X1101141Y1043813D01*
X1100984Y1043673D01*
X1100859Y1043564D01*
X1100766Y1043454D01*
X1100687Y1043376D01*
X1100641Y1043329D01*
X1100625Y1043314D01*
Y1048625D01*
D02*
G37*
G36*
X1203771Y1044891D02*
X1203661D01*
X1203286Y1044876D01*
X1202911Y1044829D01*
X1202568Y1044751D01*
X1202255Y1044657D01*
X1201943Y1044548D01*
X1201662Y1044423D01*
X1201396Y1044282D01*
X1201162Y1044157D01*
X1200959Y1044016D01*
X1200771Y1043876D01*
X1200599Y1043751D01*
X1200474Y1043642D01*
X1200365Y1043548D01*
X1200287Y1043470D01*
X1200240Y1043423D01*
X1200225Y1043407D01*
X1199990Y1043126D01*
X1199787Y1042814D01*
X1199600Y1042486D01*
X1199443Y1042158D01*
X1199318Y1041814D01*
X1199209Y1041470D01*
X1199115Y1041142D01*
X1199053Y1040830D01*
X1198990Y1040517D01*
X1198959Y1040252D01*
X1198928Y1039986D01*
X1198897Y1039768D01*
Y1039596D01*
X1198881Y1039455D01*
Y1039346D01*
X1198897Y1038955D01*
X1198928Y1038565D01*
X1198975Y1038205D01*
X1199037Y1037862D01*
X1199115Y1037549D01*
X1199209Y1037253D01*
X1199303Y1036972D01*
X1199397Y1036721D01*
X1199490Y1036503D01*
X1199584Y1036300D01*
X1199678Y1036143D01*
X1199756Y1036003D01*
X1199818Y1035878D01*
X1199865Y1035800D01*
X1199896Y1035753D01*
X1199912Y1035737D01*
X1200178Y1035425D01*
X1200459Y1035159D01*
X1200771Y1034925D01*
X1201084Y1034722D01*
X1201427Y1034550D01*
X1201755Y1034410D01*
X1202083Y1034285D01*
X1202411Y1034191D01*
X1202724Y1034113D01*
X1203005Y1034066D01*
X1203271Y1034019D01*
X1203489Y1034004D01*
X1203677Y1033988D01*
X1203817Y1033972D01*
X1203942D01*
X1204255Y1033988D01*
X1204551Y1034004D01*
X1204848Y1034050D01*
X1205114Y1034097D01*
X1205364Y1034160D01*
X1205598Y1034222D01*
X1205817Y1034285D01*
X1206020Y1034363D01*
X1206192Y1034441D01*
X1206348Y1034503D01*
X1206488Y1034566D01*
X1206598Y1034628D01*
X1206692Y1034675D01*
X1206754Y1034722D01*
X1206785Y1034738D01*
X1206801Y1034753D01*
X1207004Y1034910D01*
X1207207Y1035081D01*
X1207551Y1035456D01*
X1207848Y1035831D01*
X1208082Y1036206D01*
X1208176Y1036378D01*
X1208254Y1036550D01*
X1208332Y1036690D01*
X1208394Y1036815D01*
X1208426Y1036925D01*
X1208457Y1037003D01*
X1208488Y1037050D01*
Y1037065D01*
X1205739Y1037534D01*
X1205645Y1037253D01*
X1205536Y1037018D01*
X1205426Y1036815D01*
X1205301Y1036659D01*
X1205208Y1036534D01*
X1205129Y1036440D01*
X1205067Y1036394D01*
X1205051Y1036378D01*
X1204880Y1036268D01*
X1204692Y1036175D01*
X1204520Y1036112D01*
X1204348Y1036081D01*
X1204192Y1036050D01*
X1204083Y1036034D01*
X1203973D01*
X1203802Y1036050D01*
X1203630Y1036065D01*
X1203317Y1036143D01*
X1203036Y1036253D01*
X1202802Y1036378D01*
X1202615Y1036487D01*
X1202474Y1036597D01*
X1202396Y1036675D01*
X1202380Y1036706D01*
X1202365D01*
X1202146Y1036987D01*
X1201990Y1037299D01*
X1201880Y1037627D01*
X1201802Y1037940D01*
X1201755Y1038205D01*
X1201740Y1038331D01*
X1201724Y1038440D01*
X1201709Y1038518D01*
Y1038596D01*
Y1038627D01*
Y1038643D01*
X1208629D01*
Y1039221D01*
X1208582Y1039752D01*
X1208519Y1040252D01*
X1208441Y1040721D01*
X1208347Y1041142D01*
X1208238Y1041517D01*
X1208129Y1041877D01*
X1208004Y1042189D01*
X1207879Y1042454D01*
X1207754Y1042689D01*
X1207645Y1042892D01*
X1207535Y1043064D01*
X1207457Y1043189D01*
X1207394Y1043267D01*
X1207348Y1043329D01*
X1207332Y1043345D01*
X1207066Y1043610D01*
X1206785Y1043860D01*
X1206488Y1044063D01*
X1206192Y1044235D01*
X1205879Y1044391D01*
X1205583Y1044516D01*
X1205286Y1044610D01*
X1204989Y1044704D01*
X1204723Y1044766D01*
X1204473Y1044813D01*
X1204239Y1044844D01*
X1204052Y1044860D01*
X1203880Y1044876D01*
X1203771Y1044891D01*
D02*
G37*
G36*
X1139959D02*
X1139849D01*
X1139474Y1044876D01*
X1139100Y1044829D01*
X1138756Y1044751D01*
X1138443Y1044657D01*
X1138131Y1044548D01*
X1137850Y1044423D01*
X1137584Y1044282D01*
X1137350Y1044157D01*
X1137147Y1044016D01*
X1136959Y1043876D01*
X1136788Y1043751D01*
X1136663Y1043642D01*
X1136553Y1043548D01*
X1136475Y1043470D01*
X1136428Y1043423D01*
X1136413Y1043407D01*
X1136178Y1043126D01*
X1135975Y1042814D01*
X1135788Y1042486D01*
X1135632Y1042158D01*
X1135507Y1041814D01*
X1135397Y1041470D01*
X1135304Y1041142D01*
X1135241Y1040830D01*
X1135179Y1040517D01*
X1135147Y1040252D01*
X1135116Y1039986D01*
X1135085Y1039768D01*
Y1039596D01*
X1135069Y1039455D01*
Y1039346D01*
X1135085Y1038955D01*
X1135116Y1038565D01*
X1135163Y1038205D01*
X1135226Y1037862D01*
X1135304Y1037549D01*
X1135397Y1037253D01*
X1135491Y1036972D01*
X1135585Y1036721D01*
X1135678Y1036503D01*
X1135772Y1036300D01*
X1135866Y1036143D01*
X1135944Y1036003D01*
X1136007Y1035878D01*
X1136053Y1035800D01*
X1136085Y1035753D01*
X1136100Y1035737D01*
X1136366Y1035425D01*
X1136647Y1035159D01*
X1136959Y1034925D01*
X1137272Y1034722D01*
X1137616Y1034550D01*
X1137944Y1034410D01*
X1138272Y1034285D01*
X1138600Y1034191D01*
X1138912Y1034113D01*
X1139193Y1034066D01*
X1139459Y1034019D01*
X1139678Y1034004D01*
X1139865Y1033988D01*
X1140005Y1033972D01*
X1140130D01*
X1140443Y1033988D01*
X1140740Y1034004D01*
X1141037Y1034050D01*
X1141302Y1034097D01*
X1141552Y1034160D01*
X1141786Y1034222D01*
X1142005Y1034285D01*
X1142208Y1034363D01*
X1142380Y1034441D01*
X1142536Y1034503D01*
X1142677Y1034566D01*
X1142786Y1034628D01*
X1142880Y1034675D01*
X1142942Y1034722D01*
X1142973Y1034738D01*
X1142989Y1034753D01*
X1143192Y1034910D01*
X1143395Y1035081D01*
X1143739Y1035456D01*
X1144036Y1035831D01*
X1144270Y1036206D01*
X1144364Y1036378D01*
X1144442Y1036550D01*
X1144520Y1036690D01*
X1144583Y1036815D01*
X1144614Y1036925D01*
X1144645Y1037003D01*
X1144676Y1037050D01*
Y1037065D01*
X1141927Y1037534D01*
X1141833Y1037253D01*
X1141724Y1037018D01*
X1141615Y1036815D01*
X1141489Y1036659D01*
X1141396Y1036534D01*
X1141318Y1036440D01*
X1141255Y1036394D01*
X1141240Y1036378D01*
X1141068Y1036268D01*
X1140880Y1036175D01*
X1140708Y1036112D01*
X1140537Y1036081D01*
X1140380Y1036050D01*
X1140271Y1036034D01*
X1140162D01*
X1139990Y1036050D01*
X1139818Y1036065D01*
X1139506Y1036143D01*
X1139224Y1036253D01*
X1138990Y1036378D01*
X1138803Y1036487D01*
X1138662Y1036597D01*
X1138584Y1036675D01*
X1138568Y1036706D01*
X1138553D01*
X1138334Y1036987D01*
X1138178Y1037299D01*
X1138068Y1037627D01*
X1137990Y1037940D01*
X1137944Y1038205D01*
X1137928Y1038331D01*
X1137912Y1038440D01*
X1137897Y1038518D01*
Y1038596D01*
Y1038627D01*
Y1038643D01*
X1144817D01*
Y1039221D01*
X1144770Y1039752D01*
X1144707Y1040252D01*
X1144629Y1040721D01*
X1144536Y1041142D01*
X1144426Y1041517D01*
X1144317Y1041877D01*
X1144192Y1042189D01*
X1144067Y1042454D01*
X1143942Y1042689D01*
X1143833Y1042892D01*
X1143723Y1043064D01*
X1143645Y1043189D01*
X1143583Y1043267D01*
X1143536Y1043329D01*
X1143520Y1043345D01*
X1143255Y1043610D01*
X1142973Y1043860D01*
X1142677Y1044063D01*
X1142380Y1044235D01*
X1142067Y1044391D01*
X1141771Y1044516D01*
X1141474Y1044610D01*
X1141177Y1044704D01*
X1140912Y1044766D01*
X1140662Y1044813D01*
X1140427Y1044844D01*
X1140240Y1044860D01*
X1140068Y1044876D01*
X1139959Y1044891D01*
D02*
G37*
G36*
X1132070Y1048359D02*
X1129305Y1046735D01*
Y1044657D01*
X1128040D01*
Y1042454D01*
X1129305D01*
Y1037893D01*
Y1037627D01*
Y1037393D01*
Y1037175D01*
X1129321Y1036972D01*
Y1036784D01*
X1129336Y1036628D01*
Y1036487D01*
X1129352Y1036362D01*
Y1036268D01*
Y1036175D01*
X1129368Y1036097D01*
Y1036034D01*
X1129383Y1035972D01*
Y1035940D01*
X1129430Y1035706D01*
X1129493Y1035488D01*
X1129555Y1035300D01*
X1129618Y1035144D01*
X1129680Y1035034D01*
X1129727Y1034941D01*
X1129758Y1034878D01*
X1129774Y1034863D01*
X1129899Y1034722D01*
X1130024Y1034597D01*
X1130180Y1034488D01*
X1130321Y1034394D01*
X1130445Y1034316D01*
X1130555Y1034269D01*
X1130617Y1034238D01*
X1130649Y1034222D01*
X1130883Y1034144D01*
X1131117Y1034082D01*
X1131336Y1034035D01*
X1131539Y1034004D01*
X1131726Y1033988D01*
X1131867Y1033972D01*
X1131992D01*
X1132429Y1033988D01*
X1132851Y1034035D01*
X1133226Y1034097D01*
X1133538Y1034175D01*
X1133679Y1034206D01*
X1133804Y1034253D01*
X1133913Y1034285D01*
X1134007Y1034316D01*
X1134085Y1034347D01*
X1134132Y1034363D01*
X1134163Y1034378D01*
X1134179D01*
X1133929Y1036518D01*
X1133679Y1036440D01*
X1133460Y1036378D01*
X1133257Y1036331D01*
X1133101Y1036300D01*
X1132976Y1036284D01*
X1132898Y1036268D01*
X1132820D01*
X1132632Y1036284D01*
X1132492Y1036331D01*
X1132429Y1036362D01*
X1132383Y1036378D01*
X1132367Y1036394D01*
X1132351D01*
X1132242Y1036503D01*
X1132164Y1036612D01*
X1132133Y1036706D01*
X1132117Y1036721D01*
Y1036737D01*
Y1036784D01*
X1132101Y1036862D01*
Y1036956D01*
X1132086Y1037065D01*
Y1037315D01*
X1132070Y1037565D01*
Y1037815D01*
Y1037940D01*
Y1038034D01*
Y1038112D01*
Y1038174D01*
Y1038221D01*
Y1038237D01*
Y1042454D01*
X1133960D01*
Y1044657D01*
X1132070D01*
Y1048359D01*
D02*
G37*
G36*
X1125369D02*
X1122604Y1046735D01*
Y1044657D01*
X1121338D01*
Y1042454D01*
X1122604D01*
Y1037893D01*
Y1037627D01*
Y1037393D01*
Y1037175D01*
X1122619Y1036972D01*
Y1036784D01*
X1122635Y1036628D01*
Y1036487D01*
X1122651Y1036362D01*
Y1036268D01*
Y1036175D01*
X1122666Y1036097D01*
Y1036034D01*
X1122682Y1035972D01*
Y1035940D01*
X1122729Y1035706D01*
X1122791Y1035488D01*
X1122854Y1035300D01*
X1122916Y1035144D01*
X1122979Y1035034D01*
X1123026Y1034941D01*
X1123057Y1034878D01*
X1123072Y1034863D01*
X1123197Y1034722D01*
X1123322Y1034597D01*
X1123478Y1034488D01*
X1123619Y1034394D01*
X1123744Y1034316D01*
X1123853Y1034269D01*
X1123916Y1034238D01*
X1123947Y1034222D01*
X1124182Y1034144D01*
X1124416Y1034082D01*
X1124634Y1034035D01*
X1124838Y1034004D01*
X1125025Y1033988D01*
X1125166Y1033972D01*
X1125291D01*
X1125728Y1033988D01*
X1126150Y1034035D01*
X1126525Y1034097D01*
X1126837Y1034175D01*
X1126978Y1034206D01*
X1127103Y1034253D01*
X1127212Y1034285D01*
X1127306Y1034316D01*
X1127384Y1034347D01*
X1127431Y1034363D01*
X1127462Y1034378D01*
X1127477D01*
X1127228Y1036518D01*
X1126978Y1036440D01*
X1126759Y1036378D01*
X1126556Y1036331D01*
X1126400Y1036300D01*
X1126275Y1036284D01*
X1126197Y1036268D01*
X1126118D01*
X1125931Y1036284D01*
X1125790Y1036331D01*
X1125728Y1036362D01*
X1125681Y1036378D01*
X1125666Y1036394D01*
X1125650D01*
X1125540Y1036503D01*
X1125462Y1036612D01*
X1125431Y1036706D01*
X1125415Y1036721D01*
Y1036737D01*
Y1036784D01*
X1125400Y1036862D01*
Y1036956D01*
X1125384Y1037065D01*
Y1037315D01*
X1125369Y1037565D01*
Y1037815D01*
Y1037940D01*
Y1038034D01*
Y1038112D01*
Y1038174D01*
Y1038221D01*
Y1038237D01*
Y1042454D01*
X1127259D01*
Y1044657D01*
X1125369D01*
Y1048359D01*
D02*
G37*
G36*
X1183346Y1027082D02*
X1183190D01*
X1182768Y1027066D01*
X1182346Y1027003D01*
X1181971Y1026925D01*
X1181612Y1026800D01*
X1181268Y1026675D01*
X1180956Y1026519D01*
X1180659Y1026363D01*
X1180409Y1026207D01*
X1180175Y1026035D01*
X1179972Y1025879D01*
X1179784Y1025723D01*
X1179644Y1025598D01*
X1179535Y1025473D01*
X1179441Y1025395D01*
X1179394Y1025332D01*
X1179378Y1025316D01*
X1179128Y1024957D01*
X1178894Y1024567D01*
X1178707Y1024145D01*
X1178535Y1023692D01*
X1178394Y1023223D01*
X1178285Y1022739D01*
X1178191Y1022270D01*
X1178113Y1021802D01*
X1178051Y1021364D01*
X1178004Y1020943D01*
X1177972Y1020568D01*
X1177941Y1020240D01*
Y1020099D01*
Y1019974D01*
X1177925Y1019865D01*
Y1019599D01*
X1177941Y1018896D01*
X1177988Y1018256D01*
X1178051Y1017646D01*
X1178144Y1017100D01*
X1178253Y1016600D01*
X1178363Y1016147D01*
X1178488Y1015741D01*
X1178628Y1015366D01*
X1178753Y1015053D01*
X1178878Y1014788D01*
X1178988Y1014554D01*
X1179097Y1014366D01*
X1179191Y1014225D01*
X1179253Y1014116D01*
X1179300Y1014054D01*
X1179316Y1014038D01*
X1179581Y1013741D01*
X1179878Y1013476D01*
X1180175Y1013257D01*
X1180472Y1013070D01*
X1180769Y1012898D01*
X1181065Y1012757D01*
X1181362Y1012648D01*
X1181643Y1012570D01*
X1181909Y1012492D01*
X1182143Y1012445D01*
X1182362Y1012398D01*
X1182549Y1012382D01*
X1182706Y1012367D01*
X1182815Y1012351D01*
X1182909D01*
X1183283Y1012367D01*
X1183643Y1012413D01*
X1183971Y1012476D01*
X1184283Y1012554D01*
X1184580Y1012663D01*
X1184861Y1012773D01*
X1185111Y1012898D01*
X1185330Y1013023D01*
X1185533Y1013132D01*
X1185720Y1013257D01*
X1185877Y1013366D01*
X1186002Y1013476D01*
X1186111Y1013554D01*
X1186173Y1013616D01*
X1186220Y1013663D01*
X1186236Y1013679D01*
X1186470Y1013944D01*
X1186673Y1014210D01*
X1186845Y1014507D01*
X1187001Y1014788D01*
X1187126Y1015085D01*
X1187236Y1015381D01*
X1187314Y1015678D01*
X1187392Y1015944D01*
X1187439Y1016209D01*
X1187486Y1016459D01*
X1187501Y1016678D01*
X1187532Y1016865D01*
Y1017006D01*
X1187548Y1017131D01*
Y1017225D01*
X1187532Y1017600D01*
X1187501Y1017974D01*
X1187439Y1018303D01*
X1187361Y1018631D01*
X1187267Y1018927D01*
X1187158Y1019209D01*
X1187048Y1019474D01*
X1186939Y1019693D01*
X1186814Y1019911D01*
X1186704Y1020083D01*
X1186595Y1020240D01*
X1186501Y1020380D01*
X1186423Y1020474D01*
X1186361Y1020552D01*
X1186330Y1020599D01*
X1186314Y1020614D01*
X1186080Y1020849D01*
X1185830Y1021052D01*
X1185580Y1021224D01*
X1185330Y1021380D01*
X1185080Y1021505D01*
X1184830Y1021614D01*
X1184596Y1021708D01*
X1184361Y1021770D01*
X1184158Y1021833D01*
X1183955Y1021880D01*
X1183783Y1021895D01*
X1183643Y1021927D01*
X1183518D01*
X1183424Y1021942D01*
X1183346D01*
X1183065Y1021927D01*
X1182799Y1021895D01*
X1182534Y1021833D01*
X1182299Y1021755D01*
X1182065Y1021661D01*
X1181862Y1021552D01*
X1181659Y1021442D01*
X1181487Y1021333D01*
X1181315Y1021208D01*
X1181175Y1021099D01*
X1181065Y1020989D01*
X1180956Y1020896D01*
X1180878Y1020818D01*
X1180815Y1020755D01*
X1180784Y1020724D01*
X1180769Y1020708D01*
X1180800Y1021161D01*
X1180847Y1021567D01*
X1180909Y1021942D01*
X1180956Y1022270D01*
X1181019Y1022583D01*
X1181081Y1022848D01*
X1181159Y1023083D01*
X1181221Y1023286D01*
X1181284Y1023457D01*
X1181331Y1023614D01*
X1181393Y1023739D01*
X1181440Y1023832D01*
X1181471Y1023895D01*
X1181503Y1023957D01*
X1181534Y1023973D01*
Y1023989D01*
X1181659Y1024129D01*
X1181768Y1024254D01*
X1181893Y1024363D01*
X1182018Y1024457D01*
X1182268Y1024598D01*
X1182503Y1024692D01*
X1182706Y1024738D01*
X1182877Y1024770D01*
X1182940Y1024785D01*
X1183018D01*
X1183252Y1024770D01*
X1183455Y1024723D01*
X1183643Y1024660D01*
X1183799Y1024582D01*
X1183924Y1024504D01*
X1184002Y1024442D01*
X1184065Y1024395D01*
X1184080Y1024379D01*
X1184221Y1024223D01*
X1184346Y1024020D01*
X1184439Y1023832D01*
X1184502Y1023629D01*
X1184549Y1023457D01*
X1184596Y1023317D01*
X1184611Y1023208D01*
Y1023192D01*
Y1023176D01*
X1187282Y1023457D01*
X1187220Y1023786D01*
X1187142Y1024082D01*
X1187048Y1024363D01*
X1186939Y1024629D01*
X1186830Y1024863D01*
X1186720Y1025082D01*
X1186595Y1025285D01*
X1186486Y1025457D01*
X1186376Y1025629D01*
X1186267Y1025754D01*
X1186173Y1025879D01*
X1186080Y1025973D01*
X1186017Y1026051D01*
X1185955Y1026097D01*
X1185923Y1026129D01*
X1185908Y1026144D01*
X1185705Y1026316D01*
X1185486Y1026457D01*
X1185252Y1026582D01*
X1185033Y1026691D01*
X1184799Y1026785D01*
X1184580Y1026847D01*
X1184143Y1026972D01*
X1183955Y1027003D01*
X1183768Y1027035D01*
X1183596Y1027050D01*
X1183471Y1027066D01*
X1183346Y1027082D01*
D02*
G37*
G36*
X1131219Y1027269D02*
X1130953D01*
X1130344Y1027253D01*
X1130078Y1027222D01*
X1129797Y1027191D01*
X1129547Y1027144D01*
X1129313Y1027113D01*
X1129110Y1027066D01*
X1128907Y1027019D01*
X1128719Y1026957D01*
X1128563Y1026910D01*
X1128438Y1026879D01*
X1128313Y1026832D01*
X1128235Y1026800D01*
X1128157Y1026769D01*
X1128126Y1026753D01*
X1128110D01*
X1127704Y1026551D01*
X1127329Y1026316D01*
X1127032Y1026082D01*
X1126767Y1025847D01*
X1126579Y1025629D01*
X1126423Y1025457D01*
X1126376Y1025395D01*
X1126345Y1025348D01*
X1126314Y1025316D01*
Y1025301D01*
X1126111Y1024941D01*
X1125954Y1024582D01*
X1125845Y1024223D01*
X1125767Y1023911D01*
X1125720Y1023645D01*
X1125704Y1023520D01*
Y1023426D01*
X1125689Y1023348D01*
Y1023286D01*
Y1023254D01*
Y1023239D01*
X1125704Y1022926D01*
X1125751Y1022630D01*
X1125814Y1022333D01*
X1125892Y1022067D01*
X1126001Y1021817D01*
X1126111Y1021567D01*
X1126236Y1021349D01*
X1126361Y1021146D01*
X1126470Y1020958D01*
X1126595Y1020802D01*
X1126704Y1020661D01*
X1126814Y1020552D01*
X1126892Y1020458D01*
X1126954Y1020396D01*
X1127001Y1020349D01*
X1127017Y1020333D01*
X1127204Y1020177D01*
X1127423Y1020036D01*
X1127673Y1019896D01*
X1127923Y1019755D01*
X1128469Y1019521D01*
X1129016Y1019302D01*
X1129266Y1019224D01*
X1129500Y1019146D01*
X1129719Y1019068D01*
X1129922Y1019021D01*
X1130078Y1018974D01*
X1130188Y1018943D01*
X1130266Y1018912D01*
X1130297D01*
X1130625Y1018834D01*
X1130922Y1018756D01*
X1131188Y1018693D01*
X1131422Y1018631D01*
X1131640Y1018568D01*
X1131828Y1018521D01*
X1132000Y1018474D01*
X1132140Y1018428D01*
X1132265Y1018396D01*
X1132359Y1018365D01*
X1132453Y1018334D01*
X1132515Y1018318D01*
X1132562Y1018303D01*
X1132593D01*
X1132625Y1018287D01*
X1132890Y1018178D01*
X1133109Y1018084D01*
X1133281Y1017974D01*
X1133437Y1017881D01*
X1133531Y1017787D01*
X1133609Y1017725D01*
X1133656Y1017678D01*
X1133671Y1017662D01*
X1133781Y1017522D01*
X1133859Y1017381D01*
X1133905Y1017225D01*
X1133952Y1017084D01*
X1133968Y1016975D01*
X1133984Y1016881D01*
Y1016803D01*
Y1016787D01*
Y1016647D01*
X1133952Y1016506D01*
X1133874Y1016241D01*
X1133749Y1015991D01*
X1133624Y1015788D01*
X1133499Y1015631D01*
X1133374Y1015506D01*
X1133296Y1015428D01*
X1133281Y1015397D01*
X1133265D01*
X1133124Y1015288D01*
X1132968Y1015194D01*
X1132625Y1015053D01*
X1132265Y1014944D01*
X1131922Y1014882D01*
X1131609Y1014835D01*
X1131484Y1014819D01*
X1131359D01*
X1131266Y1014803D01*
X1131125D01*
X1130656Y1014835D01*
X1130235Y1014913D01*
X1129875Y1015007D01*
X1129563Y1015132D01*
X1129438Y1015194D01*
X1129329Y1015257D01*
X1129219Y1015303D01*
X1129141Y1015350D01*
X1129079Y1015397D01*
X1129032Y1015428D01*
X1129016Y1015460D01*
X1129000D01*
X1128860Y1015600D01*
X1128735Y1015741D01*
X1128516Y1016069D01*
X1128329Y1016428D01*
X1128188Y1016772D01*
X1128094Y1017084D01*
X1128048Y1017209D01*
X1128016Y1017334D01*
X1128001Y1017428D01*
X1127985Y1017506D01*
X1127970Y1017553D01*
Y1017568D01*
X1125142Y1017287D01*
X1125205Y1016850D01*
X1125298Y1016428D01*
X1125408Y1016053D01*
X1125533Y1015694D01*
X1125673Y1015366D01*
X1125814Y1015053D01*
X1125970Y1014788D01*
X1126126Y1014538D01*
X1126267Y1014319D01*
X1126407Y1014132D01*
X1126548Y1013976D01*
X1126657Y1013835D01*
X1126751Y1013741D01*
X1126829Y1013663D01*
X1126876Y1013616D01*
X1126892Y1013601D01*
X1127188Y1013382D01*
X1127501Y1013195D01*
X1127829Y1013023D01*
X1128173Y1012882D01*
X1128516Y1012757D01*
X1128860Y1012663D01*
X1129204Y1012570D01*
X1129547Y1012507D01*
X1129860Y1012460D01*
X1130156Y1012413D01*
X1130422Y1012382D01*
X1130641Y1012367D01*
X1130828D01*
X1130969Y1012351D01*
X1131437D01*
X1131766Y1012367D01*
X1132094Y1012398D01*
X1132375Y1012429D01*
X1132656Y1012476D01*
X1132921Y1012507D01*
X1133156Y1012554D01*
X1133374Y1012617D01*
X1133562Y1012663D01*
X1133734Y1012710D01*
X1133890Y1012741D01*
X1134015Y1012788D01*
X1134109Y1012820D01*
X1134171Y1012851D01*
X1134218Y1012867D01*
X1134234D01*
X1134687Y1013085D01*
X1135077Y1013335D01*
X1135405Y1013616D01*
X1135686Y1013866D01*
X1135905Y1014100D01*
X1135983Y1014210D01*
X1136061Y1014304D01*
X1136108Y1014366D01*
X1136155Y1014429D01*
X1136186Y1014460D01*
Y1014475D01*
X1136311Y1014678D01*
X1136421Y1014897D01*
X1136592Y1015303D01*
X1136717Y1015694D01*
X1136795Y1016053D01*
X1136827Y1016209D01*
X1136858Y1016350D01*
X1136873Y1016491D01*
Y1016600D01*
X1136889Y1016678D01*
Y1016803D01*
X1136858Y1017287D01*
X1136795Y1017740D01*
X1136702Y1018131D01*
X1136655Y1018303D01*
X1136608Y1018459D01*
X1136545Y1018599D01*
X1136499Y1018724D01*
X1136452Y1018834D01*
X1136405Y1018927D01*
X1136358Y1019006D01*
X1136342Y1019052D01*
X1136311Y1019084D01*
Y1019099D01*
X1136077Y1019427D01*
X1135811Y1019724D01*
X1135546Y1019974D01*
X1135296Y1020193D01*
X1135061Y1020349D01*
X1134874Y1020474D01*
X1134796Y1020505D01*
X1134749Y1020536D01*
X1134718Y1020568D01*
X1134702D01*
X1134499Y1020661D01*
X1134280Y1020771D01*
X1134031Y1020864D01*
X1133781Y1020958D01*
X1133265Y1021130D01*
X1132750Y1021286D01*
X1132515Y1021349D01*
X1132281Y1021411D01*
X1132094Y1021474D01*
X1131906Y1021520D01*
X1131766Y1021552D01*
X1131656Y1021583D01*
X1131594Y1021599D01*
X1131562D01*
X1131188Y1021692D01*
X1130844Y1021786D01*
X1130531Y1021880D01*
X1130250Y1021973D01*
X1130000Y1022052D01*
X1129782Y1022130D01*
X1129594Y1022208D01*
X1129438Y1022270D01*
X1129297Y1022333D01*
X1129172Y1022395D01*
X1129079Y1022442D01*
X1129016Y1022489D01*
X1128954Y1022520D01*
X1128922Y1022551D01*
X1128891Y1022567D01*
X1128751Y1022708D01*
X1128641Y1022848D01*
X1128579Y1023005D01*
X1128516Y1023145D01*
X1128485Y1023254D01*
X1128469Y1023364D01*
Y1023426D01*
Y1023442D01*
X1128485Y1023645D01*
X1128548Y1023817D01*
X1128610Y1023973D01*
X1128704Y1024098D01*
X1128782Y1024192D01*
X1128860Y1024270D01*
X1128907Y1024317D01*
X1128922Y1024332D01*
X1129219Y1024504D01*
X1129532Y1024645D01*
X1129875Y1024738D01*
X1130188Y1024801D01*
X1130484Y1024832D01*
X1130610Y1024848D01*
X1130719Y1024863D01*
X1130922D01*
X1131359Y1024848D01*
X1131734Y1024785D01*
X1132047Y1024707D01*
X1132312Y1024613D01*
X1132515Y1024520D01*
X1132656Y1024442D01*
X1132734Y1024379D01*
X1132765Y1024363D01*
X1132984Y1024161D01*
X1133156Y1023911D01*
X1133296Y1023645D01*
X1133406Y1023395D01*
X1133484Y1023161D01*
X1133515Y1023051D01*
X1133546Y1022958D01*
X1133562Y1022895D01*
Y1022833D01*
X1133577Y1022801D01*
Y1022786D01*
X1136483Y1022895D01*
X1136452Y1023254D01*
X1136405Y1023598D01*
X1136327Y1023926D01*
X1136217Y1024223D01*
X1136108Y1024504D01*
X1135983Y1024770D01*
X1135858Y1025004D01*
X1135733Y1025223D01*
X1135593Y1025410D01*
X1135468Y1025582D01*
X1135358Y1025738D01*
X1135249Y1025847D01*
X1135155Y1025941D01*
X1135093Y1026019D01*
X1135046Y1026051D01*
X1135030Y1026066D01*
X1134765Y1026285D01*
X1134468Y1026457D01*
X1134140Y1026629D01*
X1133812Y1026769D01*
X1133484Y1026879D01*
X1133140Y1026972D01*
X1132796Y1027050D01*
X1132484Y1027113D01*
X1132172Y1027175D01*
X1131875Y1027207D01*
X1131625Y1027238D01*
X1131391Y1027253D01*
X1131219Y1027269D01*
D02*
G37*
G36*
X1171677Y1027082D02*
X1171474D01*
X1171115Y1027066D01*
X1170771Y1027035D01*
X1170443Y1026988D01*
X1170146Y1026925D01*
X1169849Y1026847D01*
X1169584Y1026769D01*
X1169350Y1026675D01*
X1169115Y1026582D01*
X1168912Y1026488D01*
X1168740Y1026394D01*
X1168584Y1026316D01*
X1168459Y1026238D01*
X1168365Y1026176D01*
X1168287Y1026129D01*
X1168241Y1026097D01*
X1168225Y1026082D01*
X1167991Y1025879D01*
X1167787Y1025660D01*
X1167600Y1025410D01*
X1167444Y1025145D01*
X1167303Y1024879D01*
X1167178Y1024598D01*
X1167069Y1024332D01*
X1166975Y1024067D01*
X1166897Y1023817D01*
X1166835Y1023583D01*
X1166788Y1023364D01*
X1166757Y1023176D01*
X1166725Y1023020D01*
X1166710Y1022895D01*
X1166694Y1022833D01*
Y1022801D01*
X1169443Y1022536D01*
X1169459Y1022755D01*
X1169490Y1022958D01*
X1169568Y1023317D01*
X1169662Y1023614D01*
X1169756Y1023848D01*
X1169865Y1024035D01*
X1169943Y1024161D01*
X1170006Y1024223D01*
X1170021Y1024254D01*
X1170224Y1024426D01*
X1170459Y1024567D01*
X1170693Y1024660D01*
X1170912Y1024723D01*
X1171115Y1024754D01*
X1171271Y1024785D01*
X1171412D01*
X1171724Y1024770D01*
X1171990Y1024707D01*
X1172224Y1024629D01*
X1172427Y1024535D01*
X1172583Y1024442D01*
X1172692Y1024363D01*
X1172771Y1024301D01*
X1172786Y1024285D01*
X1172958Y1024082D01*
X1173083Y1023848D01*
X1173161Y1023614D01*
X1173224Y1023395D01*
X1173255Y1023176D01*
X1173286Y1023020D01*
Y1022958D01*
Y1022911D01*
Y1022879D01*
Y1022864D01*
X1173255Y1022551D01*
X1173192Y1022239D01*
X1173099Y1021958D01*
X1173005Y1021708D01*
X1172896Y1021489D01*
X1172802Y1021317D01*
X1172755Y1021255D01*
X1172739Y1021208D01*
X1172708Y1021192D01*
Y1021177D01*
X1172614Y1021052D01*
X1172489Y1020896D01*
X1172333Y1020724D01*
X1172177Y1020552D01*
X1171802Y1020162D01*
X1171396Y1019771D01*
X1171208Y1019584D01*
X1171021Y1019396D01*
X1170865Y1019240D01*
X1170709Y1019099D01*
X1170584Y1018990D01*
X1170490Y1018896D01*
X1170427Y1018834D01*
X1170412Y1018818D01*
X1169990Y1018428D01*
X1169615Y1018053D01*
X1169256Y1017693D01*
X1168943Y1017365D01*
X1168662Y1017068D01*
X1168412Y1016772D01*
X1168178Y1016522D01*
X1167991Y1016288D01*
X1167819Y1016069D01*
X1167678Y1015897D01*
X1167553Y1015725D01*
X1167459Y1015600D01*
X1167397Y1015506D01*
X1167335Y1015428D01*
X1167319Y1015381D01*
X1167303Y1015366D01*
X1167038Y1014882D01*
X1166835Y1014397D01*
X1166663Y1013929D01*
X1166538Y1013507D01*
X1166491Y1013319D01*
X1166460Y1013148D01*
X1166429Y1012991D01*
X1166397Y1012867D01*
X1166382Y1012757D01*
Y1012679D01*
X1166366Y1012632D01*
Y1012617D01*
X1176051D01*
Y1015178D01*
X1170552D01*
X1170740Y1015444D01*
X1170834Y1015569D01*
X1170912Y1015694D01*
X1170990Y1015788D01*
X1171052Y1015866D01*
X1171099Y1015913D01*
X1171115Y1015928D01*
X1171193Y1016006D01*
X1171287Y1016116D01*
X1171396Y1016225D01*
X1171521Y1016350D01*
X1171786Y1016616D01*
X1172068Y1016881D01*
X1172333Y1017131D01*
X1172458Y1017240D01*
X1172568Y1017334D01*
X1172646Y1017412D01*
X1172708Y1017475D01*
X1172755Y1017506D01*
X1172771Y1017522D01*
X1173005Y1017740D01*
X1173224Y1017943D01*
X1173427Y1018146D01*
X1173614Y1018318D01*
X1173770Y1018490D01*
X1173926Y1018631D01*
X1174052Y1018771D01*
X1174176Y1018896D01*
X1174348Y1019099D01*
X1174489Y1019240D01*
X1174551Y1019334D01*
X1174583Y1019365D01*
X1174848Y1019724D01*
X1175082Y1020068D01*
X1175270Y1020380D01*
X1175426Y1020646D01*
X1175536Y1020880D01*
X1175582Y1020974D01*
X1175629Y1021052D01*
X1175660Y1021114D01*
X1175676Y1021177D01*
X1175692Y1021192D01*
Y1021208D01*
X1175817Y1021536D01*
X1175895Y1021864D01*
X1175957Y1022177D01*
X1176004Y1022473D01*
X1176035Y1022708D01*
Y1022817D01*
X1176051Y1022895D01*
Y1023067D01*
X1176035Y1023379D01*
X1176004Y1023676D01*
X1175942Y1023957D01*
X1175863Y1024239D01*
X1175770Y1024489D01*
X1175660Y1024723D01*
X1175551Y1024941D01*
X1175442Y1025129D01*
X1175317Y1025316D01*
X1175208Y1025473D01*
X1175098Y1025613D01*
X1175004Y1025723D01*
X1174926Y1025801D01*
X1174864Y1025879D01*
X1174833Y1025910D01*
X1174817Y1025926D01*
X1174583Y1026129D01*
X1174317Y1026301D01*
X1174052Y1026457D01*
X1173786Y1026597D01*
X1173505Y1026707D01*
X1173224Y1026800D01*
X1172958Y1026879D01*
X1172692Y1026941D01*
X1172442Y1026988D01*
X1172208Y1027019D01*
X1172005Y1027050D01*
X1171833Y1027066D01*
X1171677Y1027082D01*
D02*
G37*
G36*
X1149277D02*
X1149073D01*
X1148714Y1027066D01*
X1148371Y1027035D01*
X1148043Y1026988D01*
X1147746Y1026925D01*
X1147449Y1026847D01*
X1147183Y1026769D01*
X1146949Y1026675D01*
X1146715Y1026582D01*
X1146512Y1026488D01*
X1146340Y1026394D01*
X1146184Y1026316D01*
X1146059Y1026238D01*
X1145965Y1026176D01*
X1145887Y1026129D01*
X1145840Y1026097D01*
X1145824Y1026082D01*
X1145590Y1025879D01*
X1145387Y1025660D01*
X1145200Y1025410D01*
X1145043Y1025145D01*
X1144903Y1024879D01*
X1144778Y1024598D01*
X1144668Y1024332D01*
X1144575Y1024067D01*
X1144497Y1023817D01*
X1144434Y1023583D01*
X1144387Y1023364D01*
X1144356Y1023176D01*
X1144325Y1023020D01*
X1144309Y1022895D01*
X1144294Y1022833D01*
Y1022801D01*
X1147043Y1022536D01*
X1147058Y1022755D01*
X1147090Y1022958D01*
X1147168Y1023317D01*
X1147262Y1023614D01*
X1147355Y1023848D01*
X1147465Y1024035D01*
X1147543Y1024161D01*
X1147605Y1024223D01*
X1147621Y1024254D01*
X1147824Y1024426D01*
X1148058Y1024567D01*
X1148292Y1024660D01*
X1148511Y1024723D01*
X1148714Y1024754D01*
X1148870Y1024785D01*
X1149011D01*
X1149324Y1024770D01*
X1149589Y1024707D01*
X1149823Y1024629D01*
X1150026Y1024535D01*
X1150183Y1024442D01*
X1150292Y1024363D01*
X1150370Y1024301D01*
X1150386Y1024285D01*
X1150557Y1024082D01*
X1150683Y1023848D01*
X1150761Y1023614D01*
X1150823Y1023395D01*
X1150854Y1023176D01*
X1150886Y1023020D01*
Y1022958D01*
Y1022911D01*
Y1022879D01*
Y1022864D01*
X1150854Y1022551D01*
X1150792Y1022239D01*
X1150698Y1021958D01*
X1150604Y1021708D01*
X1150495Y1021489D01*
X1150401Y1021317D01*
X1150354Y1021255D01*
X1150339Y1021208D01*
X1150308Y1021192D01*
Y1021177D01*
X1150214Y1021052D01*
X1150089Y1020896D01*
X1149933Y1020724D01*
X1149777Y1020552D01*
X1149402Y1020162D01*
X1148995Y1019771D01*
X1148808Y1019584D01*
X1148621Y1019396D01*
X1148464Y1019240D01*
X1148308Y1019099D01*
X1148183Y1018990D01*
X1148089Y1018896D01*
X1148027Y1018834D01*
X1148011Y1018818D01*
X1147589Y1018428D01*
X1147215Y1018053D01*
X1146855Y1017693D01*
X1146543Y1017365D01*
X1146262Y1017068D01*
X1146012Y1016772D01*
X1145778Y1016522D01*
X1145590Y1016288D01*
X1145418Y1016069D01*
X1145278Y1015897D01*
X1145153Y1015725D01*
X1145059Y1015600D01*
X1144996Y1015506D01*
X1144934Y1015428D01*
X1144918Y1015381D01*
X1144903Y1015366D01*
X1144637Y1014882D01*
X1144434Y1014397D01*
X1144262Y1013929D01*
X1144137Y1013507D01*
X1144090Y1013319D01*
X1144059Y1013148D01*
X1144028Y1012991D01*
X1143997Y1012867D01*
X1143981Y1012757D01*
Y1012679D01*
X1143966Y1012632D01*
Y1012617D01*
X1153651D01*
Y1015178D01*
X1148152D01*
X1148339Y1015444D01*
X1148433Y1015569D01*
X1148511Y1015694D01*
X1148589Y1015788D01*
X1148652Y1015866D01*
X1148699Y1015913D01*
X1148714Y1015928D01*
X1148792Y1016006D01*
X1148886Y1016116D01*
X1148995Y1016225D01*
X1149120Y1016350D01*
X1149386Y1016616D01*
X1149667Y1016881D01*
X1149933Y1017131D01*
X1150058Y1017240D01*
X1150167Y1017334D01*
X1150245Y1017412D01*
X1150308Y1017475D01*
X1150354Y1017506D01*
X1150370Y1017522D01*
X1150604Y1017740D01*
X1150823Y1017943D01*
X1151026Y1018146D01*
X1151214Y1018318D01*
X1151370Y1018490D01*
X1151526Y1018631D01*
X1151651Y1018771D01*
X1151776Y1018896D01*
X1151948Y1019099D01*
X1152088Y1019240D01*
X1152151Y1019334D01*
X1152182Y1019365D01*
X1152448Y1019724D01*
X1152682Y1020068D01*
X1152869Y1020380D01*
X1153026Y1020646D01*
X1153135Y1020880D01*
X1153182Y1020974D01*
X1153229Y1021052D01*
X1153260Y1021114D01*
X1153276Y1021177D01*
X1153291Y1021192D01*
Y1021208D01*
X1153416Y1021536D01*
X1153494Y1021864D01*
X1153557Y1022177D01*
X1153604Y1022473D01*
X1153635Y1022708D01*
Y1022817D01*
X1153651Y1022895D01*
Y1023067D01*
X1153635Y1023379D01*
X1153604Y1023676D01*
X1153541Y1023957D01*
X1153463Y1024239D01*
X1153369Y1024489D01*
X1153260Y1024723D01*
X1153151Y1024941D01*
X1153041Y1025129D01*
X1152916Y1025316D01*
X1152807Y1025473D01*
X1152698Y1025613D01*
X1152604Y1025723D01*
X1152526Y1025801D01*
X1152463Y1025879D01*
X1152432Y1025910D01*
X1152416Y1025926D01*
X1152182Y1026129D01*
X1151917Y1026301D01*
X1151651Y1026457D01*
X1151385Y1026597D01*
X1151104Y1026707D01*
X1150823Y1026800D01*
X1150557Y1026879D01*
X1150292Y1026941D01*
X1150042Y1026988D01*
X1149808Y1027019D01*
X1149605Y1027050D01*
X1149433Y1027066D01*
X1149277Y1027082D01*
D02*
G37*
G36*
X1116598Y1026910D02*
X1113692D01*
Y1012617D01*
X1123830D01*
Y1015053D01*
X1116598D01*
Y1026910D01*
D02*
G37*
G36*
X1160274Y1027082D02*
X1160180D01*
X1159805Y1027066D01*
X1159446Y1027019D01*
X1159102Y1026941D01*
X1158790Y1026847D01*
X1158493Y1026738D01*
X1158227Y1026613D01*
X1157978Y1026472D01*
X1157759Y1026347D01*
X1157571Y1026207D01*
X1157400Y1026066D01*
X1157259Y1025941D01*
X1157134Y1025832D01*
X1157040Y1025738D01*
X1156978Y1025660D01*
X1156931Y1025613D01*
X1156915Y1025598D01*
X1156665Y1025238D01*
X1156447Y1024832D01*
X1156259Y1024395D01*
X1156103Y1023926D01*
X1155962Y1023442D01*
X1155853Y1022958D01*
X1155759Y1022473D01*
X1155681Y1021989D01*
X1155634Y1021536D01*
X1155587Y1021114D01*
X1155556Y1020740D01*
X1155525Y1020396D01*
Y1020255D01*
Y1020130D01*
X1155509Y1020021D01*
Y1019740D01*
X1155525Y1018990D01*
X1155572Y1018303D01*
X1155634Y1017662D01*
X1155712Y1017084D01*
X1155806Y1016553D01*
X1155916Y1016084D01*
X1156025Y1015663D01*
X1156150Y1015288D01*
X1156275Y1014975D01*
X1156384Y1014694D01*
X1156494Y1014460D01*
X1156587Y1014272D01*
X1156665Y1014132D01*
X1156743Y1014038D01*
X1156775Y1013976D01*
X1156790Y1013960D01*
X1157040Y1013679D01*
X1157306Y1013429D01*
X1157587Y1013210D01*
X1157868Y1013023D01*
X1158149Y1012882D01*
X1158430Y1012741D01*
X1158696Y1012632D01*
X1158962Y1012554D01*
X1159212Y1012492D01*
X1159446Y1012429D01*
X1159649Y1012398D01*
X1159836Y1012382D01*
X1159977Y1012367D01*
X1160086Y1012351D01*
X1160180D01*
X1160555Y1012367D01*
X1160914Y1012413D01*
X1161258Y1012492D01*
X1161570Y1012585D01*
X1161867Y1012695D01*
X1162133Y1012820D01*
X1162383Y1012945D01*
X1162601Y1013085D01*
X1162789Y1013226D01*
X1162961Y1013351D01*
X1163117Y1013476D01*
X1163226Y1013585D01*
X1163320Y1013679D01*
X1163398Y1013757D01*
X1163429Y1013804D01*
X1163445Y1013819D01*
X1163695Y1014179D01*
X1163913Y1014585D01*
X1164101Y1015038D01*
X1164273Y1015491D01*
X1164398Y1015975D01*
X1164523Y1016475D01*
X1164616Y1016959D01*
X1164695Y1017443D01*
X1164741Y1017896D01*
X1164788Y1018318D01*
X1164819Y1018709D01*
X1164851Y1019037D01*
Y1019193D01*
Y1019318D01*
X1164866Y1019427D01*
Y1019708D01*
X1164851Y1020443D01*
X1164804Y1021130D01*
X1164741Y1021770D01*
X1164648Y1022348D01*
X1164538Y1022879D01*
X1164429Y1023364D01*
X1164288Y1023801D01*
X1164163Y1024176D01*
X1164038Y1024520D01*
X1163913Y1024801D01*
X1163789Y1025051D01*
X1163679Y1025238D01*
X1163585Y1025395D01*
X1163523Y1025504D01*
X1163476Y1025566D01*
X1163460Y1025582D01*
X1163226Y1025847D01*
X1162976Y1026082D01*
X1162711Y1026285D01*
X1162445Y1026457D01*
X1162179Y1026597D01*
X1161898Y1026722D01*
X1161633Y1026816D01*
X1161383Y1026894D01*
X1161133Y1026957D01*
X1160899Y1027003D01*
X1160695Y1027035D01*
X1160524Y1027066D01*
X1160383D01*
X1160274Y1027082D01*
D02*
G37*
%LPD*%
G36*
X1165608Y1046172D02*
X1165858D01*
X1166077Y1046157D01*
X1166280Y1046141D01*
X1166452Y1046125D01*
X1166592D01*
X1166733Y1046110D01*
X1166842Y1046094D01*
X1166936Y1046078D01*
X1166999Y1046063D01*
X1167061D01*
X1167092Y1046047D01*
X1167124D01*
X1167420Y1045969D01*
X1167686Y1045860D01*
X1167920Y1045751D01*
X1168108Y1045641D01*
X1168264Y1045532D01*
X1168389Y1045438D01*
X1168451Y1045376D01*
X1168483Y1045360D01*
X1168670Y1045157D01*
X1168842Y1044938D01*
X1168982Y1044704D01*
X1169092Y1044485D01*
X1169186Y1044282D01*
X1169264Y1044110D01*
X1169279Y1044063D01*
X1169295Y1044016D01*
X1169311Y1043985D01*
Y1043970D01*
X1169357Y1043798D01*
X1169404Y1043610D01*
X1169482Y1043189D01*
X1169529Y1042767D01*
X1169576Y1042361D01*
Y1042158D01*
X1169592Y1041986D01*
Y1041830D01*
X1169607Y1041689D01*
Y1041564D01*
Y1041486D01*
Y1041423D01*
Y1041408D01*
Y1041111D01*
X1169592Y1040814D01*
X1169576Y1040549D01*
X1169560Y1040283D01*
X1169545Y1040049D01*
X1169514Y1039846D01*
X1169482Y1039643D01*
X1169467Y1039455D01*
X1169436Y1039299D01*
X1169404Y1039158D01*
X1169373Y1039049D01*
X1169357Y1038940D01*
X1169342Y1038862D01*
X1169326Y1038815D01*
X1169311Y1038783D01*
Y1038768D01*
X1169186Y1038424D01*
X1169061Y1038143D01*
X1168936Y1037909D01*
X1168811Y1037706D01*
X1168717Y1037565D01*
X1168623Y1037456D01*
X1168561Y1037393D01*
X1168545Y1037378D01*
X1168358Y1037237D01*
X1168170Y1037112D01*
X1167967Y1037003D01*
X1167780Y1036909D01*
X1167624Y1036846D01*
X1167498Y1036800D01*
X1167405Y1036784D01*
X1167389Y1036768D01*
X1167374D01*
X1167264Y1036753D01*
X1167139Y1036721D01*
X1166874Y1036690D01*
X1166577Y1036675D01*
X1166280Y1036659D01*
X1166030Y1036643D01*
X1163437D01*
Y1046188D01*
X1165343D01*
X1165608Y1046172D01*
D02*
G37*
G36*
X1204114Y1042751D02*
X1204395Y1042689D01*
X1204645Y1042579D01*
X1204848Y1042470D01*
X1205020Y1042345D01*
X1205145Y1042236D01*
X1205223Y1042173D01*
X1205255Y1042142D01*
X1205458Y1041892D01*
X1205598Y1041595D01*
X1205707Y1041299D01*
X1205786Y1041002D01*
X1205832Y1040736D01*
X1205848Y1040627D01*
X1205864Y1040533D01*
X1205879Y1040439D01*
Y1040377D01*
Y1040346D01*
Y1040330D01*
X1201755D01*
X1201771Y1040736D01*
X1201833Y1041080D01*
X1201927Y1041392D01*
X1202037Y1041642D01*
X1202146Y1041845D01*
X1202240Y1041986D01*
X1202302Y1042079D01*
X1202333Y1042111D01*
X1202443Y1042236D01*
X1202568Y1042329D01*
X1202802Y1042501D01*
X1203052Y1042626D01*
X1203286Y1042704D01*
X1203505Y1042751D01*
X1203661Y1042767D01*
X1203724Y1042783D01*
X1203817D01*
X1204114Y1042751D01*
D02*
G37*
G36*
X1140302D02*
X1140583Y1042689D01*
X1140834Y1042579D01*
X1141037Y1042470D01*
X1141208Y1042345D01*
X1141333Y1042236D01*
X1141411Y1042173D01*
X1141443Y1042142D01*
X1141646Y1041892D01*
X1141786Y1041595D01*
X1141896Y1041299D01*
X1141974Y1041002D01*
X1142021Y1040736D01*
X1142036Y1040627D01*
X1142052Y1040533D01*
X1142067Y1040439D01*
Y1040377D01*
Y1040346D01*
Y1040330D01*
X1137944D01*
X1137959Y1040736D01*
X1138022Y1041080D01*
X1138115Y1041392D01*
X1138225Y1041642D01*
X1138334Y1041845D01*
X1138428Y1041986D01*
X1138490Y1042079D01*
X1138521Y1042111D01*
X1138631Y1042236D01*
X1138756Y1042329D01*
X1138990Y1042501D01*
X1139240Y1042626D01*
X1139474Y1042704D01*
X1139693Y1042751D01*
X1139849Y1042767D01*
X1139912Y1042783D01*
X1140005D01*
X1140302Y1042751D01*
D02*
G37*
G36*
X1183205Y1019880D02*
X1183471Y1019802D01*
X1183705Y1019708D01*
X1183908Y1019584D01*
X1184065Y1019458D01*
X1184190Y1019365D01*
X1184252Y1019287D01*
X1184283Y1019256D01*
X1184377Y1019130D01*
X1184471Y1018974D01*
X1184611Y1018662D01*
X1184705Y1018318D01*
X1184783Y1017974D01*
X1184814Y1017678D01*
X1184830Y1017537D01*
Y1017428D01*
X1184846Y1017334D01*
Y1017256D01*
Y1017209D01*
Y1017194D01*
Y1016944D01*
X1184830Y1016725D01*
X1184799Y1016506D01*
X1184768Y1016319D01*
X1184721Y1016131D01*
X1184689Y1015975D01*
X1184642Y1015835D01*
X1184596Y1015710D01*
X1184533Y1015600D01*
X1184486Y1015506D01*
X1184408Y1015350D01*
X1184346Y1015272D01*
X1184330Y1015241D01*
X1184127Y1015038D01*
X1183908Y1014897D01*
X1183705Y1014788D01*
X1183502Y1014725D01*
X1183315Y1014678D01*
X1183174Y1014663D01*
X1183080Y1014647D01*
X1183049D01*
X1182909Y1014663D01*
X1182752Y1014678D01*
X1182487Y1014757D01*
X1182253Y1014882D01*
X1182034Y1015007D01*
X1181862Y1015132D01*
X1181737Y1015257D01*
X1181659Y1015335D01*
X1181628Y1015366D01*
X1181425Y1015663D01*
X1181268Y1016006D01*
X1181175Y1016350D01*
X1181097Y1016678D01*
X1181050Y1016975D01*
X1181034Y1017115D01*
Y1017225D01*
X1181019Y1017318D01*
Y1017381D01*
Y1017428D01*
Y1017443D01*
X1181050Y1017865D01*
X1181112Y1018240D01*
X1181190Y1018568D01*
X1181300Y1018818D01*
X1181393Y1019021D01*
X1181487Y1019177D01*
X1181550Y1019256D01*
X1181565Y1019287D01*
X1181784Y1019490D01*
X1182003Y1019646D01*
X1182237Y1019755D01*
X1182440Y1019833D01*
X1182627Y1019880D01*
X1182784Y1019896D01*
X1182877Y1019911D01*
X1182909D01*
X1183205Y1019880D01*
D02*
G37*
G36*
X1160368Y1024770D02*
X1160524Y1024738D01*
X1160680Y1024676D01*
X1160820Y1024629D01*
X1160914Y1024567D01*
X1161008Y1024504D01*
X1161055Y1024473D01*
X1161070Y1024457D01*
X1161211Y1024317D01*
X1161336Y1024129D01*
X1161445Y1023926D01*
X1161539Y1023708D01*
X1161617Y1023504D01*
X1161664Y1023348D01*
X1161680Y1023286D01*
X1161695Y1023239D01*
X1161711Y1023208D01*
Y1023192D01*
X1161758Y1022989D01*
X1161805Y1022770D01*
X1161836Y1022520D01*
X1161867Y1022239D01*
X1161914Y1021677D01*
X1161945Y1021099D01*
X1161961Y1020818D01*
Y1020568D01*
X1161976Y1020318D01*
Y1020115D01*
Y1019943D01*
Y1019818D01*
Y1019740D01*
Y1019708D01*
Y1019256D01*
X1161961Y1018818D01*
X1161945Y1018428D01*
X1161930Y1018068D01*
X1161914Y1017740D01*
X1161883Y1017443D01*
X1161852Y1017178D01*
X1161836Y1016944D01*
X1161805Y1016740D01*
X1161773Y1016569D01*
X1161742Y1016428D01*
X1161727Y1016303D01*
X1161711Y1016209D01*
X1161695Y1016147D01*
X1161680Y1016116D01*
Y1016100D01*
X1161586Y1015819D01*
X1161492Y1015569D01*
X1161398Y1015381D01*
X1161289Y1015225D01*
X1161211Y1015100D01*
X1161133Y1015022D01*
X1161086Y1014975D01*
X1161070Y1014960D01*
X1160914Y1014850D01*
X1160774Y1014772D01*
X1160617Y1014725D01*
X1160477Y1014694D01*
X1160352Y1014663D01*
X1160258Y1014647D01*
X1160180D01*
X1159993Y1014663D01*
X1159836Y1014694D01*
X1159680Y1014741D01*
X1159555Y1014803D01*
X1159446Y1014866D01*
X1159352Y1014913D01*
X1159305Y1014944D01*
X1159290Y1014960D01*
X1159149Y1015100D01*
X1159024Y1015288D01*
X1158915Y1015491D01*
X1158821Y1015710D01*
X1158743Y1015897D01*
X1158696Y1016053D01*
X1158680Y1016116D01*
X1158665Y1016162D01*
X1158649Y1016194D01*
Y1016209D01*
X1158602Y1016412D01*
X1158571Y1016631D01*
X1158540Y1016881D01*
X1158509Y1017162D01*
X1158462Y1017740D01*
X1158430Y1018318D01*
X1158415Y1018599D01*
Y1018849D01*
Y1019084D01*
X1158399Y1019302D01*
Y1019474D01*
Y1019599D01*
Y1019677D01*
Y1019708D01*
Y1020162D01*
X1158415Y1020583D01*
X1158430Y1020989D01*
X1158446Y1021333D01*
X1158462Y1021661D01*
X1158493Y1021958D01*
X1158509Y1022224D01*
X1158540Y1022458D01*
X1158571Y1022661D01*
X1158587Y1022848D01*
X1158618Y1022989D01*
X1158634Y1023114D01*
X1158649Y1023208D01*
X1158665Y1023270D01*
X1158680Y1023301D01*
Y1023317D01*
X1158774Y1023598D01*
X1158868Y1023848D01*
X1158977Y1024035D01*
X1159071Y1024192D01*
X1159149Y1024317D01*
X1159227Y1024395D01*
X1159274Y1024442D01*
X1159290Y1024457D01*
X1159446Y1024567D01*
X1159586Y1024645D01*
X1159743Y1024707D01*
X1159883Y1024738D01*
X1160008Y1024770D01*
X1160102Y1024785D01*
X1160180D01*
X1160368Y1024770D01*
D02*
G37*
D10*
X1260020Y1190200D02*
G03*
X1260020Y1190200I-1250J0D01*
G01*
X1209630Y1181430D02*
G03*
X1209630Y1181430I-1250J0D01*
G01*
X1129010Y1097990D02*
G03*
X1129010Y1097990I-1250J0D01*
G01*
X1088760Y1182012D02*
G03*
X1088760Y1182012I-1250J0D01*
G01*
D11*
X1197830Y1159930D02*
G03*
X1197830Y1159930I-3000J0D01*
G01*
D12*
X1356970Y1153200D02*
X1358970Y1150000D01*
X1356970Y1146800D02*
X1358970Y1150000D01*
X1299720Y1153200D02*
X1356970D01*
X1299720Y1146800D02*
X1356970D01*
Y1178600D02*
X1358970Y1175400D01*
X1356970Y1172200D02*
X1358970Y1175400D01*
X1299720Y1178600D02*
X1356970D01*
X1299720Y1172200D02*
X1356970D01*
X1272820Y1110400D02*
Y1189600D01*
Y1110400D02*
X1299720D01*
Y1189600D01*
X1272820D02*
X1299720D01*
Y1121400D02*
X1356970D01*
X1299720Y1127800D02*
X1356970D01*
Y1121400D02*
X1358970Y1124600D01*
X1356970Y1127800D02*
X1358970Y1124600D01*
X1154830Y1169930D02*
X1204830D01*
X1154830Y1138930D02*
X1204830D01*
Y1169930D01*
X1154830Y1138930D02*
Y1169930D01*
X1111260Y1102390D02*
X1119410D01*
X1111260D02*
Y1108990D01*
Y1131590D02*
X1119410D01*
X1111260Y1124990D02*
Y1131590D01*
X1044360Y1195700D02*
X1056160D01*
X1000610D02*
X1016860D01*
X1000610Y1104300D02*
Y1195700D01*
X1044360Y1104300D02*
X1056160D01*
X1000610D02*
X1016860D01*
X1145640Y1262140D02*
X1170390D01*
Y1232140D02*
Y1235390D01*
Y1258890D02*
Y1262140D01*
X1145640Y1232140D02*
X1170390D01*
X1204060Y1262140D02*
X1228810D01*
Y1232140D02*
Y1235390D01*
Y1258890D02*
Y1262140D01*
X1204060Y1232140D02*
X1228810D01*
D13*
X1251319Y1197192D02*
Y1208188D01*
X1256817D01*
X1258650Y1206356D01*
Y1202690D01*
X1256817Y1200857D01*
X1251319D01*
X1262315Y1197192D02*
X1265981D01*
X1264148D01*
Y1208188D01*
X1262315Y1206356D01*
X1271479D02*
X1273312Y1208188D01*
X1276977D01*
X1278810Y1206356D01*
Y1199025D01*
X1276977Y1197192D01*
X1273312D01*
X1271479Y1199025D01*
Y1206356D01*
X1282476Y1197192D02*
X1286141D01*
X1284308D01*
Y1208188D01*
X1282476Y1206356D01*
X1215535Y1120927D02*
X1213702Y1119094D01*
Y1115429D01*
X1215535Y1113596D01*
X1222866D01*
X1224698Y1115429D01*
Y1119094D01*
X1222866Y1120927D01*
X1224698Y1124593D02*
Y1128258D01*
Y1126425D01*
X1213702D01*
X1215535Y1124593D01*
Y1133756D02*
X1213702Y1135589D01*
Y1139255D01*
X1215535Y1141087D01*
X1222866D01*
X1224698Y1139255D01*
Y1135589D01*
X1222866Y1133756D01*
X1215535D01*
X1224698Y1152084D02*
Y1144753D01*
X1217367Y1152084D01*
X1215535D01*
X1213702Y1150251D01*
Y1146586D01*
X1215535Y1144753D01*
X1154799Y1208188D02*
Y1199025D01*
X1156632Y1197192D01*
X1160297D01*
X1162130Y1199025D01*
Y1208188D01*
X1165795Y1197192D02*
X1169461D01*
X1167628D01*
Y1208188D01*
X1165795Y1206356D01*
X1174959D02*
X1176792Y1208188D01*
X1180457D01*
X1182290Y1206356D01*
Y1199025D01*
X1180457Y1197192D01*
X1176792D01*
X1174959Y1199025D01*
Y1206356D01*
X1185956Y1197192D02*
X1189621D01*
X1187788D01*
Y1208188D01*
X1185956Y1206356D01*
X1122824Y1196420D02*
X1120992Y1194587D01*
Y1190922D01*
X1122824Y1189089D01*
X1130155D01*
X1131988Y1190922D01*
Y1194587D01*
X1130155Y1196420D01*
X1131988Y1200085D02*
Y1203751D01*
Y1201918D01*
X1120992D01*
X1122824Y1200085D01*
Y1209249D02*
X1120992Y1211082D01*
Y1214747D01*
X1122824Y1216580D01*
X1130155D01*
X1131988Y1214747D01*
Y1211082D01*
X1130155Y1209249D01*
X1122824D01*
X1131988Y1220246D02*
Y1223911D01*
Y1222078D01*
X1120992D01*
X1122824Y1220246D01*
X1101459Y1148498D02*
Y1137502D01*
X1106957D01*
X1108790Y1139334D01*
Y1146665D01*
X1106957Y1148498D01*
X1101459D01*
X1112455Y1137502D02*
X1116121D01*
X1114288D01*
Y1148498D01*
X1112455Y1146665D01*
X1121619D02*
X1123452Y1148498D01*
X1127117D01*
X1128950Y1146665D01*
Y1139334D01*
X1127117Y1137502D01*
X1123452D01*
X1121619Y1139334D01*
Y1146665D01*
X1132616Y1137502D02*
X1136281D01*
X1134448D01*
Y1148498D01*
X1132616Y1146665D01*
X1100896Y1065112D02*
Y1076108D01*
X1106395D01*
X1108227Y1074276D01*
Y1070610D01*
X1106395Y1068777D01*
X1100896D01*
X1104562D02*
X1108227Y1065112D01*
X1111893D02*
X1115558D01*
X1113725D01*
Y1076108D01*
X1111893Y1074276D01*
X1121056D02*
X1122889Y1076108D01*
X1126555D01*
X1128387Y1074276D01*
Y1066945D01*
X1126555Y1065112D01*
X1122889D01*
X1121056Y1066945D01*
Y1074276D01*
X1137551Y1065112D02*
Y1076108D01*
X1132053Y1070610D01*
X1139384D01*
X1112938Y1188526D02*
X1101942D01*
Y1194025D01*
X1103774Y1195857D01*
X1107440D01*
X1109273Y1194025D01*
Y1188526D01*
Y1192192D02*
X1112938Y1195857D01*
Y1199523D02*
Y1203188D01*
Y1201355D01*
X1101942D01*
X1103774Y1199523D01*
Y1208686D02*
X1101942Y1210519D01*
Y1214185D01*
X1103774Y1216017D01*
X1111105D01*
X1112938Y1214185D01*
Y1210519D01*
X1111105Y1208686D01*
X1103774D01*
Y1219683D02*
X1101942Y1221516D01*
Y1225181D01*
X1103774Y1227014D01*
X1105607D01*
X1107440Y1225181D01*
Y1223348D01*
Y1225181D01*
X1109273Y1227014D01*
X1111105D01*
X1112938Y1225181D01*
Y1221516D01*
X1111105Y1219683D01*
X1011000Y1231048D02*
X1007334D01*
X1009167D01*
Y1221885D01*
X1007334Y1220052D01*
X1005502D01*
X1003669Y1221885D01*
X1014665Y1220052D02*
X1018331D01*
X1016498D01*
Y1231048D01*
X1014665Y1229215D01*
X1023829D02*
X1025662Y1231048D01*
X1029327D01*
X1031160Y1229215D01*
Y1221885D01*
X1029327Y1220052D01*
X1025662D01*
X1023829Y1221885D01*
Y1229215D01*
X1034826Y1220052D02*
X1038491D01*
X1036658D01*
Y1231048D01*
X1034826Y1229215D01*
M02*
