M48
;Layer_Color=9474304
;FILE_FORMAT=4:4
METRIC,LZ
;TYPE=PLATED
T01F00S00C0.3000
T02F00S00C1.1000
T03F00S00C3.2000
;TYPE=NON_PLATED
T04F00S00C0.6500
%
T01
X0101099Y010935
Y0110112
Y0110874
X0105029
Y0110112
Y010935
X0111887Y0110744
X0117348Y0110236
X0118618Y0116967
X0113665Y0117856
X0120523Y0123698
X0114681
X0105029Y012065
Y0119888
Y0119126
X0101099
Y0119888
Y012065
T02
X0125857Y011246
Y0115
Y011754
T03
X0103Y0103
X0127
Y0127
X0103
T04
X0106491Y011211
Y011789
M30
