G04*
G04 #@! TF.GenerationSoftware,Altium Limited,Altium Designer,26.1.1 (7)*
G04*
G04 Layer_Color=16711935*
%FSLAX44Y44*%
%MOMM*%
G71*
G04*
G04 #@! TF.SameCoordinates,36130511-03F3-4BEF-8F91-A88FF725B84A*
G04*
G04*
G04 #@! TF.FilePolarity,Positive*
G04*
G01*
G75*
%ADD39C,0.1000*%
D39*
X1142000Y1098000D02*
Y1107000D01*
X1158000Y1098000D02*
Y1107000D01*
X1142000Y1098000D02*
X1158000D01*
X1142000Y1107000D02*
X1158000D01*
X1240210Y1124840D02*
Y1140840D01*
X1231210Y1124840D02*
Y1140840D01*
X1240210D01*
X1231210Y1124840D02*
X1240210D01*
X1122620Y1162940D02*
Y1178940D01*
X1131620Y1162940D02*
Y1178940D01*
X1122620Y1162940D02*
X1131620D01*
X1122620Y1178940D02*
X1131620D01*
X1124260Y1102390D02*
Y1131590D01*
X1111260Y1102390D02*
Y1131590D01*
Y1102390D02*
X1124260D01*
X1111260Y1131590D02*
X1124260D01*
X1126870Y1082620D02*
Y1091620D01*
X1110870Y1082620D02*
Y1091620D01*
Y1082620D02*
X1126870D01*
X1110870Y1091620D02*
X1126870D01*
X1104210Y1178940D02*
X1113210D01*
X1104210Y1162940D02*
X1113210D01*
Y1178940D01*
X1104210Y1162940D02*
Y1178940D01*
M02*
