G04*
G04 #@! TF.GenerationSoftware,Altium Limited,Altium Designer,26.1.1 (7)*
G04*
G04 Layer_Color=2752767*
%FSLAX44Y44*%
%MOMM*%
G71*
G04*
G04 #@! TF.SameCoordinates,36130511-03F3-4BEF-8F91-A88FF725B84A*
G04*
G04*
G04 #@! TF.FilePolarity,Positive*
G04*
G01*
G75*
%ADD41C,0.1270*%
%ADD42C,0.1693*%
D41*
X1253490Y1170320D02*
Y1180480D01*
X1263650D01*
Y1170320D01*
X1253490D01*
Y1144920D02*
Y1155080D01*
X1263650D01*
Y1144920D01*
X1253490D01*
Y1119520D02*
Y1129680D01*
X1263650D01*
Y1119520D01*
X1253490D01*
X1064910Y1116020D02*
X1059830Y1126180D01*
X1069990D01*
X1064910Y1116020D01*
Y1173820D02*
X1059830Y1183980D01*
X1069990D01*
X1064910Y1173820D01*
X1010990Y1201420D02*
X1013530Y1203960D01*
X1016070D01*
X1013530Y1206500D01*
X1016070Y1209040D01*
X1013530D01*
X1010990Y1211580D01*
X1008450Y1209040D01*
X1005910D01*
X1008450Y1206500D01*
X1005910Y1203960D01*
X1008450D01*
X1010990Y1201420D01*
Y1193800D02*
X1013530Y1196340D01*
X1016070D01*
X1013530Y1198880D01*
X1016070Y1201420D01*
X1013530D01*
X1010990Y1203960D01*
X1008450Y1201420D01*
X1005910D01*
X1008450Y1198880D01*
X1005910Y1196340D01*
X1008450D01*
X1010990Y1193800D01*
Y1186180D02*
X1013530Y1188720D01*
X1016070D01*
X1013530Y1191260D01*
X1016070Y1193800D01*
X1013530D01*
X1010990Y1196340D01*
X1008450Y1193800D01*
X1005910D01*
X1008450Y1191260D01*
X1005910Y1188720D01*
X1008450D01*
X1010990Y1186180D01*
Y1103660D02*
X1013530Y1106200D01*
X1016070D01*
X1013530Y1108740D01*
X1016070Y1111280D01*
X1013530D01*
X1010990Y1113820D01*
X1008450Y1111280D01*
X1005910D01*
X1008450Y1108740D01*
X1005910Y1106200D01*
X1008450D01*
X1010990Y1103660D01*
Y1096040D02*
X1013530Y1098580D01*
X1016070D01*
X1013530Y1101120D01*
X1016070Y1103660D01*
X1013530D01*
X1010990Y1106200D01*
X1008450Y1103660D01*
X1005910D01*
X1008450Y1101120D01*
X1005910Y1098580D01*
X1008450D01*
X1010990Y1096040D01*
Y1088420D02*
X1013530Y1090960D01*
X1016070D01*
X1013530Y1093500D01*
X1016070Y1096040D01*
X1013530D01*
X1010990Y1098580D01*
X1008450Y1096040D01*
X1005910D01*
X1008450Y1093500D01*
X1005910Y1090960D01*
X1008450D01*
X1010990Y1088420D01*
X1050290D02*
X1052830Y1090960D01*
X1055370D01*
X1052830Y1093500D01*
X1055370Y1096040D01*
X1052830D01*
X1050290Y1098580D01*
X1047750Y1096040D01*
X1045210D01*
X1047750Y1093500D01*
X1045210Y1090960D01*
X1047750D01*
X1050290Y1088420D01*
Y1096040D02*
X1052830Y1098580D01*
X1055370D01*
X1052830Y1101120D01*
X1055370Y1103660D01*
X1052830D01*
X1050290Y1106200D01*
X1047750Y1103660D01*
X1045210D01*
X1047750Y1101120D01*
X1045210Y1098580D01*
X1047750D01*
X1050290Y1096040D01*
Y1103660D02*
X1052830Y1106200D01*
X1055370D01*
X1052830Y1108740D01*
X1055370Y1111280D01*
X1052830D01*
X1050290Y1113820D01*
X1047750Y1111280D01*
X1045210D01*
X1047750Y1108740D01*
X1045210Y1106200D01*
X1047750D01*
X1050290Y1103660D01*
Y1186180D02*
X1052830Y1188720D01*
X1055370D01*
X1052830Y1191260D01*
X1055370Y1193800D01*
X1052830D01*
X1050290Y1196340D01*
X1047750Y1193800D01*
X1045210D01*
X1047750Y1191260D01*
X1045210Y1188720D01*
X1047750D01*
X1050290Y1186180D01*
Y1193800D02*
X1052830Y1196340D01*
X1055370D01*
X1052830Y1198880D01*
X1055370Y1201420D01*
X1052830D01*
X1050290Y1203960D01*
X1047750Y1201420D01*
X1045210D01*
X1047750Y1198880D01*
X1045210Y1196340D01*
X1047750D01*
X1050290Y1193800D01*
Y1201420D02*
X1052830Y1203960D01*
X1055370D01*
X1052830Y1206500D01*
X1055370Y1209040D01*
X1052830D01*
X1050290Y1211580D01*
X1047750Y1209040D01*
X1045210D01*
X1047750Y1206500D01*
X1045210Y1203960D01*
X1047750D01*
X1050290Y1201420D01*
X1146810Y1231900D02*
X1149350Y1234440D01*
X1151890D01*
X1149350Y1236980D01*
X1151890Y1239520D01*
X1149350D01*
X1146810Y1242060D01*
X1144270Y1239520D01*
X1141730D01*
X1144270Y1236980D01*
X1141730Y1234440D01*
X1144270D01*
X1146810Y1231900D01*
X1205230D02*
X1207770Y1234440D01*
X1210310D01*
X1207770Y1236980D01*
X1210310Y1239520D01*
X1207770D01*
X1205230Y1242060D01*
X1202690Y1239520D01*
X1200150D01*
X1202690Y1236980D01*
X1200150Y1234440D01*
X1202690D01*
X1205230Y1231900D01*
X1186180Y1164590D02*
X1188720Y1167130D01*
X1191260D01*
X1188720Y1169670D01*
X1191260Y1172210D01*
X1188720D01*
X1186180Y1174750D01*
X1183640Y1172210D01*
X1181100D01*
X1183640Y1169670D01*
X1181100Y1167130D01*
X1183640D01*
X1186180Y1164590D01*
X1136650Y1173480D02*
X1139190Y1176020D01*
X1141730D01*
X1139190Y1178560D01*
X1141730Y1181100D01*
X1139190D01*
X1136650Y1183640D01*
X1134110Y1181100D01*
X1131570D01*
X1134110Y1178560D01*
X1131570Y1176020D01*
X1134110D01*
X1136650Y1173480D01*
X1118870Y1102360D02*
X1121410Y1104900D01*
X1123950D01*
X1121410Y1107440D01*
X1123950Y1109980D01*
X1121410D01*
X1118870Y1112520D01*
X1116330Y1109980D01*
X1113790D01*
X1116330Y1107440D01*
X1113790Y1104900D01*
X1116330D01*
X1118870Y1102360D01*
X1173480Y1097280D02*
X1176020Y1099820D01*
X1178560D01*
X1176020Y1102360D01*
X1178560Y1104900D01*
X1176020D01*
X1173480Y1107440D01*
X1170940Y1104900D01*
X1168400D01*
X1170940Y1102360D01*
X1168400Y1099820D01*
X1170940D01*
X1173480Y1097280D01*
D42*
X1275080Y1030000D02*
G03*
X1275080Y1030000I-5080J0D01*
G01*
X1035080D02*
G03*
X1035080Y1030000I-5080J0D01*
G01*
X1275080Y1270000D02*
G03*
X1275080Y1270000I-5080J0D01*
G01*
X1035080D02*
G03*
X1035080Y1270000I-5080J0D01*
G01*
M02*
